<mxfile host="app.diagrams.net" agent="Mozilla/5.0 (Macintosh; Intel Mac OS X 10.15; rv:130.0) Gecko/20100101 Firefox/130.0" version="24.7.17">
  <diagram name="Page-1" id="ctIJ-lDDJsclJfW01KRS">
    <mxGraphModel dx="1673" dy="800" grid="1" gridSize="10" guides="1" tooltips="1" connect="1" arrows="1" fold="1" page="1" pageScale="1" pageWidth="850" pageHeight="1100" math="0" shadow="0">
      <root>
        <mxCell id="0" />
        <mxCell id="1" parent="0" />
        <mxCell id="SolYquduVEcN4SEWnmSy-1" value="" style="shape=cube;whiteSpace=wrap;html=1;boundedLbl=1;backgroundOutline=1;darkOpacity=0.05;darkOpacity2=0.1;" vertex="1" parent="1">
          <mxGeometry x="593.23" y="1225" width="126.79" height="144" as="geometry" />
        </mxCell>
        <mxCell id="SolYquduVEcN4SEWnmSy-2" value="" style="shape=image;verticalLabelPosition=bottom;labelBackgroundColor=default;verticalAlign=top;aspect=fixed;imageAspect=0;image=data:image/png,iVBORw0KGgoAAAANSUhEUgAAAf4AAACGCAYAAAA8aeg9AAAACXBIWXMAABYlAAAWJQFJUiTwAAAAAXNSR0IArs4c6QAAAARnQU1BAACxjwv8YQUAAD6NSURBVHgB7Z0PlBT1le/vr7oHEZihBYyuMkPPec+8GDAOCujCO8+ZmJPzMOYw7NGI+87CmH2R5EQDxD/7TFTAmOQt6gKBvATctw5kdwNJXhhPVLI5UZrz3hACqJMImujumWEGjRuBDINAItP1e79vdVdPVXVV16/638ww9+MZZ7q6uvrXVU19772/+7tX0BhAnutOkhlrIimTZIgZJCihNidJqh9rB/U4s83zQupX2/vVH+q36LceE/WQKY+SNLqwTUya3kUMwzAMM0oQdIFhiXw61kwxukkJvRJ7kfQV9fK+a5d6H/VDe4mMLjYGGIZhmJHKqBd++YfuBNUYbcqTV0JPzZUXeQ0ykYIUmfQsnU+nxCWNPcQwDMMwI4BRKfyWV0/xZeqvZkvsRzwqImDSNjpvdrARwDAMwwwno0b4c559TCwaHWIfBIwAsZEjAQzDMMxwMOKFX57uU/P1EmLfNiLC+OVEUjtJYyPnBDAMwzDVYsQKvyX4cbl6dHv3miAfIE3bxKSGdmIYhmGYCjLihH9MCX4+PWTSWjYAGIZhmEoxYoR/jAu+lx5Ki7tEbX2KGIZhGKaMDLvwyz90J2lcbL0aSSsxbpAD8EF6LScBMgzDMOViWIVfnu1bQVKuueCS9sqNEGvExfVriWEYhmFKZFiEX3n5TTReefkc1o9CD/0p3cLeP8MwDFMKBlUZy8u/KPYqi35kkuq8dctzfauJYRiGYYqkah6/NZc/PvYMC345kF30J3Mxe/8MwzBMVKri8VsZ+xfF9rDolwvRhPMpz3RzQiTDMAwTiYoLvxXaj8k9RNkWuEy5SJKI7eLQP8MwDBOFiob65dne9erXSmIqzQYxoWEVMQzDMEwIFRF+q6HO+NguDu1XE2veH1n//cQwDMMwAZQ91G8l8V0UL3o+f8u25+g/zFtKD3/jGep7+/c0Vhg4fYae2LyTduzaQ8Vhzfu/ap1/hmEYhgmgrB5/RvRjRc3nQ+TvfWgzdR44kttWf+WH6MF7PkNLFrfQhQyMnXXf/gENDJyxHuPz4nPj8xcBr/dnGIZhAimb8Jci+l7h81KiEI5YOg8cVpGNdjr8m+685/BZv/7QXbTwE/OoCFj8GYZhGF/KIvzFij7C219VIX2d8Pbk2omW+N+97FYqNxjHKR+jo1KGBoQeUxnO6EYQ+MwP3HMHFQGLP8MwDJNHycJvJfJhTp9kU5TXIbS/aOnqyPP4EONnt6+NLMoQ985fHqFe9X6Hf9NDh9/ooVNqm877470arryUJtdNpD+/roE+NutjNOvqJNUpYyTqGNZt2klbtj8f6XWzPtJI27/9YBGGCCf8MQzDMG5KF/4zvbuidtZDiHvpPesCQ/s6PLv9MZo/b2bg87bQdx48Qi/8/EBFEgUhyDAAbrl5Hi24YWZBQwBePgydYj9zsQaPujYpcXHDhZ0kwTAMw2hTkvBbxWPQXS8CmM9/+JvPULEUmu+H2EPkMXXwmvLqSzEsimGBMkQwvqBkRBgf6zb/oOjMfUx3bPrmPcXM+/M6f4ZhGMaiaOG3KvKR3BDlNRA9LFkrBogq5roX+Hj58KZ37ErR95WgVlvs/ahTUwKIAgQZKJjbxwqGYqMQEP/oKx3kKjFhRqTrxTAMw1x4FCX82WS+7iivKVb0IaIPfvEOWr7sU/lP9h+i/tf/nq6/599p4GzVGw2GUj91kF7adD0lPryEaNKH857HOdm6/Sd0auAsRaWopL90ukXUNqaIYRiGGbNEFv5iMviLFX1499u//Tf5c+d/fIfkG2tI9r9sPXz6xTp6+EdTdA9LdRNMS5RnTf+AJo9Xf08bpLqLzbz9+k7Erd+H3x5nGRaHj42LZGB8a+lxuuPP37f+Fpd/mkTjcqLxf+Z+jyKTHEERnj8y/Wdzsh/DMMzYJbrwn+l9Rr2qTXf/YkQ/0MsfPE2y759J9mzNe83i9ZfTvjfH+x4PIr/wY2dpZv0HtODDf7QeFwuMARgA+347njr/dTwd6RsX+J6HHj+Wtz3IACjWOIos/pzsxzAMM6aJJPxR5/WLSeTDnDiWriFj3oUK65vKy6c//s73dRB9iL/NfCXwC689a/2UIvRhwBDAe+/YP8lleLz4lXdoljI0fBl/hRL/uy0jwMkLLx4oqlRx2AqHfHi+n2EYZqyiLfxWiH9c7FX1ioTua1oW32etl9fFd706vPzuLSSPfT/09Y/8UIX7JdHCprOW8FcbGAFPPJegBmVo3H9reDTd8v6vuo8oXjt0jCJC/7OubqQ9u56kCPRnQ/49xDAMw4wp9IU/YogfoEBOS+v9WiKGcPXXv3KXez5fzeWbr94d6OUXA+boT50zXFGAHb+YRCu2T7P+vvvjA/S120/mnrO9+ZnTP7ByAq5RP8gRKBvK+zdmb3WF/nG+lt7zt1pGE6/vZxiGYaKglakm3+9uiyr6AOvOdURp+bJbrblql+gjtH/wL0sWfQg9xBvRgDkPT6ePf+OKvH3sJD5wypO8h8gBDIVH1ev/Qk0lXHVfA9389SvoS8pQ2N01gUoGxs3BO0keT+U24Xx1aIbvi+5hIKlZnj26khiGYZgxRajHnynJq0L8RTTfsSkUvvZbliaP/TPJt56iUoDY7/7VBMtbd2biOzPtbWAUbH2pzvobQr9r1buu5yH8MBr8Mvrh/SOP4I4b37cSB0tBJO/OJP45gOe/++cHfPdHlAQGUwkg5N/IWf4MwzBjh3CPf3x8BZUg+sAOR0+uc3vIEK480e/ZUpLoQ+yR5IcfiLlTrBHe94o+cHr5Tu/fZvLFJi1vGSA/cPydaqoA0QAYB5g2KBasVkA+gxMIO8oCe7G696mpkRJJ0DiDvX6GYZgxREGPv5hCPYVAhb3WpY9aBWuwRh/hbNf7QfS7t1IxwMNH+N1PuG2QcPfAp/KdW+dSQIj8m3/Xm7cPvH4IfOdb4619C63nh4Fxv3qfJT5Ghg5ez98vV+KVF79Tvu6BGa+/hxiGYZgLnsLCX0RCXxioU48166mOJ11z+sWKPoQegh+0hh+h+CU3vF8w099bA+Ctp3pDE/ispD9lCOxThkCQsYG6AduW/76o5YRe8XdOl5TQqtcfSe1iYkPJ4QOGYRhm5BMo/OX29gtR7Jw+QvlPPJ/w9b4h8ner8Dzm3cNEHCF6p3ij8E4UsUYkwLuO30lQpCEM8R/vI1H/l7nHiJhgnb83UlIWuJwvwzDMmCBY+Cvg7fuC7P1Xl0d6SSEvH4IPkY2yjv+yLyRdj3+86t2iEvUwHhgifuOCIYGkwajev7jmKRLTmqkKdIgJDYuJYRiGuaDxFf5qefsDJ9+lSb/975GW7KFcbtt3P5QXXodX//htJ32T9wqBufsPf7nBtW3j0uOB8/OILoRFEBABgAHgHSNEv12F/gMr+vkRr6XTs3bQ5Esup4pTobn+RHJuU8ykFTQKONF7sOCUx7Tpc5pNg5pUjCkhpehJnz+f6n+3q4cYhmFGCf6T0+Niq6kKNN++lu6YfU556Hr7Q1DRjMcb2ofYQ/SDBLmQWPtNEwycC07ce/iHU6jvZDy3fM/Pg8d4EHFAFb+d+4ey/GEI3PyNK3yXFAbxZEeMdj/1JHV87zGaXFuGugGFGGe0qf+voTITH5QJMkQbjQ58hR+CLw2B+tNJ+9shlNkcH1dDU+vntisDYC0bAAwzepnSMGdljISWg2JKc9WJvpc7aJTir3CCmqnCIMEPiWpPKnGEdxwGRB/hfadQQ8xRZQ9C6ifsVglddWy/oj3OfXS22cBbRygflf6QGxC0kgAGwbeWHfcdG16j85ntc4O5/Sc2RW/gExkhVlh1GxgXUxrmrlCGyx4RsKxVGQBtsXE1exKJJj53DDNKsaJ46t+4zo+Ki4/qf+t5wm9V6Stx3X4YEHxnJzoI3M4C699t0Xdiz5mjxK4XGAcQTAgzjh21xO6pAkv1ULbXO7ZCBgA8+5e+8k5eZADjsosG+WEnLtps2f4c7TtwhCpMgi6yvH4mS+LypqQguSZsPxgF8bpxXBOBYZgRT77CxWLLqMJgWZoXCGenT1Ic5vSDRN8rwgCCef0jGcG3wdr8IHr9PP6TwR4/QvjI+keo3ynmMACwLNCvgE9QYh8qBvoZPCgFbDUc8nDPQ5vp1OmzVFGEWERMDmNcvFWQ0LTu5ajIY2AYZmzjEn4rqU9WNsyPVr1BTXsmezxzeNBI5HMSJKLw8mEgQDDt6QB4+sjwx1r6IKKG+u0xIIyPceD49ljwOkwB+Hn/2OfFr75jre13gvEe7hvn3neaf+Y/ztvWbT+hioIa/qe7m4mxMARFMYQSlybnNhHDMMwIxu3x1xitVEEgXFu2P+/7HNa6Oz14iDc8aKeA5kT/sglEF9cPHVftg3l8p/cMj/zlrx2zjlso1O+XyFeoKp+T+mz7XYwJ72dje/8u8Y/X0eQpV+YV9MGqgrYtH3K9J85D0Lr/Lduer7zXbxjNxBSFHBzdc38Mw1z4uBVOGBUN89sJfV4ghF6h8y6Hq6urpY5nvkIz7vwNGZ/8VzJaXibjlt/TkSnfdYksRB5CDI9cZ27fbz4fYqwr/vb47UQ+p/ePcb0evycz3uyYZ/zVO9Sx8ztUP93Rhjdbl8AJDAq/FQMo31txr1+Iik/3jBakFEej7C/ighseMQwzosmpmxXmF7JiYUoIPsr1+uEVfcyTexPfNj/1CDVce5vlOdscfv1Nav3ct3OiP+uqy+il1WciFe8Jms8/dU5f+G2QyJeLSFBG0Fvv20uH33R3+2u46gba9NSjrm1oLuRt8wtDwo8qeP1J+X43h6wJMx+yS39f0fNez0Ht/RmGYYaDIdWrqezc/vd3pXy3Q6S9a9qf9Cx1e3DV52jhJ5td2/qO/Y6Wfu4BGhg4bT2e9dGr6Nmd36W6mn4y96sZi3N9pEOQwCPpr5ga+w03rqI9iz5P9973GO3+2V46pcbXescXaM/uf3R5+QtuvJ7u/uwS2voPO3LbkB+w4MPHcpEKnBv8eCsB2l5/Wev1exHWtE9ZRGxQiv64kCkqEuV1NwmsONDZl6hfCFk28TWNwXZhjlshSCZDd5ZyLTEMw4xwcpX75LnePZVM7Lvu5i/4hvm95XG96/ohlq90Put6DUR/0R2ft36DnOir6QCL86fI/KXSrYHw5W/eOv02har3BSE+9i0S05fkHsMwgfjbnwPiP9keY5aWhf9NRS7eyj321vWH6GPKwMvk2on08kvfrVxRH0EpcXFDC40ALm2Y2y11l5hKSh3vO1jWcSeSNyZjprmnsPiLtcd7D6whhmFGJdMa5qxR/461itdJmb7rRN8r7TRKGXJ3TapYaBchfj/RhzfrFH274I6T7U8/kfe6deufzok+BNUl+qBmMhk3dLgSAIMIyuAfiBjqF1c94BJ9gHA+jBLrfdR4lylDwMvjq7/segzDxzkm2+v3Aq9/x49fooqB7H4u5mPR37O/J20YLcr42IaIgutJKVMqIrGYRZ9hmNGCpW7ydF+z8vAqdpP/fsDc/pIb3R61V/SX3HarEs4Pu7bt+NFz1g/wFX0bJf7i+m2unAAvhebxw5b0OYHgQ/i9wLvf/vSTuRB/5/5XaOv/3uHaByF/fE4n3vMQlOG/+8UDVFHilTMGRxsQ/xO9B9vUzyWDRqwx8zPxkuN9h1pO9B0YtaU7GYYZe2SUT5gVTerzqziH+XPn3D6EFgluTjC37zqW8prh7eeeX/k517y5F1E3y9XT3kuhzP1Tuln9KqrgJ/o2GJ8zkW/dhqFohQ0+p3MK4KddE1xjmx/QE6BTndegmghlgZf1+QIjIPOT4gx+hmFGHRl1McRNVCE6A8rMzr/KHb5G1T6n2MEL9oq6M8SP55fcfiuFIZJ3B3r9hbz6QtX7XMeH6IdMKdiJfADJfk7jBeBz3nHbUKciRCK27HGP2RsdsXnh5xX1+tnjZxiGucDIqJsUWMpHlSAozO+tse/N5P/8X9/pegzBt0P8CO17owGBIOSvvH75Vn6uQMmhfnj7nnn9IDDenT963hJ+fI47b/8UzVcGgc2dyohxZvg//WKdK8SP6IhfYx+E+5cvCzeAikJUziBkigfNgGom1iRNw0waJBMmiX4hRf/g+4Nd/f1dJUUhkMgYHxxMSiETOLaURg+2l+PYYwGcv5rz6QTOn70N1+b8mfM9fP6YkULcSuCq4Pr9oDC/syf9kb5xLqHFvP7MbFKcjdNL/vxfLykY4vcCr99X+AuE83UK+IipC0gXhPLh9T+xIfM5vv/D513Cj888/8braN/+VzJjU0YJoiB28iPOGcr9HvGU90VEBWv6K5Tdn8D3Q1zSyDesYQZib9TF2wwpFqF7Jsx0oQJ2md+Z/8Xramhq3dwerGyI0iYYLYdJGCukMJuFmUYLZcJ/kii37gfHnlY3t0tK6qpWC2J85lhtrFkKkVSfe4YUlFD+STLzrOhX4tqvRnlUStllmEbPe29Xt4aCZYDVGq2miN2k7hbN1soTM00yZo0vtx/Oo31tlBHQZQpzbywtUlUfL4yS9AfqfBpJSWKGGkvC7jKnzq0aG/WbQh41TOo6fuxQiiqM8/qq79u12Ja5vu5rmz6dTo0Vo8nq8JkYn4DxLYSZtLeX2wCPUzzelPlqlh/dMP+O/e5GNcuXLsx7DebJlygvufMXr+Qlw4WivH6aMp/o5D7X5kJevU4BH3Glnrdvs1wZLIhcLPjz6+iWT+Y707d8sjkn/OCnv5rgWvWwQJ03r/CDI2900/x5M6kiZBL8UjRGSSTVzcmsWa+1s6S9J/oOtgc9HWVZ4vHegznlgDBLQzxjtQUWhV+X3actPq6mbWr93Pb06fOrgm4U9nEp02bUEvsQmoSgptyxK2AA4MYXrxu3Qt3pmu324LZhI3IPgMz+qUatBgWxndowR0U+jJQk+Wyh61AqGUNJrB4ywPTuoJlrI1WURrRmxhvdSCtmrOoaL1MjbIVRJ0XMHgs5o7z2uTUy/6vYuQy8vq6BuK9tvM6gabVz1VjMjSf6Xs5LpE1c2dRUYxhazuv502bHSDIirPMxSWmwEIvUR221jUcY35JiQzs6DPCpdUPXRn13UsV8d+LqAlQsm/+wEiQ/Fja5q86hA5+T+TMv8n0d5soXOLzkKCDRT3qEP2zJXl9YEZ+p8ykK8Pq9FfucwLB5+LG/yz1GsuPXbj+Ze7zw2rO+rXxfUOH+igm/iCVpTDM+ISjdprOnzPzjbKcyMq1hzmp1EdaESrIP6kbSFquraU6Mb2rx3hxKOW7u2ONqmqfWX7/K72YcFbQ/jtXUKDGVrZYXWsTArC6K6vXqpa1KVFcbZGx4r/eXG6lMYIzxmppnbMEqFaeRNq1+bgoFoMrlaSvDrE0dG2vSk7aIRhub+1wqFVpbigGQEfya1Uqs2oq6vuqcqwhX87SGuV2DH5xf7Pw+x2NxJZh66+/jk5Tn3D/8joxtACljZiVlu3/qut/Oa6O+O4TvDpYaR7k+BsUqGOY/6O/xO5vxwLN2VqZDOLu+pgIRMCX8XsIy9ws+73O8UkH74PmeugbOKQdvZ7/cfpXM7KfKfT+YwtjiTCUAcVECvccKIZbxuPaxhTB2WR5wCUxpmLsiNi7+KowJ/RbI4WNTN9UNSrS6LREskakN85ZhjOUS/TxwXEPsUTfxPTAwqEhwLfCZ1bnMRIjKMjRcZ3qm2HNpXd+6OLzAlWW4vog4dU9ruGEljVKmNcxbnTkfck1Zvu8wirLXR/e7A1XR2rEYjgY05HF60d7QNcLZ8lR4xb2oiAkNedvCMve9kQgX8clUdk4fcRlF4AXHEkcYBn4RiNfe6KGKERMV+KBMGAhflkOcAW7c8dpxCOmXTfRdGGJXMWKF10Do1E1oQ7kE34stWup99KZrfMA5U4HX9kqN0YW6iVvCpsbrNNZ0UN7wehgPokL39JwBUD/3GZ3rjfFPrZ+zqzLX11wPAaVRBM4ZxLlsgu/B+nduGUXh5yWuvigzKjTFr+aee/K2eYUrL8wPj/f0YaLBUy5xtWvzI1yOanj106+ga2ZeZSXF+Rbw0SBsHn+giEY9eccYOE29auxoKNTb9zvrc+BvzPE/4FmZIE90Wp/fGc4/4j0/yjDaecKdEwGPv4IJfkliqk4sVrOLyokKDWa9tTVUfhJWCJyoRfsFCO2rSARV6/slaKUSxmZvmDgMeKtUmXNWGDVeNU3T6jdN4yWTJBfH+W+lagwtO82jrmHg2OzrKyp6feUaJXKEsrMjHUSM1Dg36PYcKQ2cl7mthb7r+uXpIhIUfvZ6tN4GNPVTlGFw/qzl9YvsHLq3Nn/n/pddr4HwX6MMABgFWA2AJLrJGsbAQCmh/gCwVO/wkTfVWN+l117/bV6xHhuIP3CKvzy2I+/8eBMQJwe0Gh4YeL8ywi9Z+IeDStww4a1RpVCeKgRIJ3GqOqLgS5M17XF5uJgCjFN5+muizo+XkQSNrwkVCjV3DgOqqlNyWe/y1URybku/pyNlda+vXIOumMN2hTSA6CNiVOXvUcHverxSN/bet9/z3e71+L1et73MD8vvxNRdeaLvB7xq2xh44Wcp6/TmedPnT+W9Lmyt/s79k6xGPb4Jfud684+nxoiufLqsyy7ts8aKxMNzfeq93Pv0eqYjZk4Pmud/j+qv/BAxzHARrxu3kvoLe8fDKPoWWcHapYyUljAjBcmG1fHQApDirv6eAwUTnqzw/rAV2hIb/caXjf4kqUoM13dJh6n181ozol99HPk9s73fdSwEruoXu+5it8fqFN/JzudOdqrQ9z5L0AuJvh/eiICFCqN7CWu7i7Hd/PUrfDPprba/g6fC3zeE72eLEsk31/mOa0Az6tBbuQS/JDHDitUYCM2AiDaqR2ulkB3wcqhclO/YoQJUrOhnmiPJLvW73f5R0xepvKZJmuOM19YUnAe1vH0V0qaIY8ycv8y5tH+wDWOnSMhVYT0gMvkaNExJbnKVX2Mqa0yVSoAcZVh5EMKsXJRNg0x+T/60YbxSzXmChKiQxz99mvs5eP1LbtvlKtWrA5rhYH9nkR/577t9xxLm9WN8j/xwiuV5P3hLP9U5Qu2YkxeX3ZJ7jKI8UUG/AYT4nUsNrfc4kfnbO76GEGOFubAQJm0cjE9c49cXIEobUV+U4A/G4neh74D3qan117eSiK0v3IrYM1aS1xZ6PitUSdIdXkbUtwlTdpwosMxNhZubYiYyxmkZ6YI5/+lzng1aPmeMi+vPl6vzaC13C1mKZ7V3TqebhSGXKW++OXhPtHg+uKHgsazkuuKTNHFu1fXqUUaeZZAIoa6z5QSKprDXIRJxou9gR7nHhPNoCnoWBYQG4/EeonQiPigTpkFNhqBFhc/ZyCNr5EbT1+w5MA2RIpqY6weSSDar45xJGqZsjnwulCGGVRDHe3+Z+05VbI5fF6dHO9kTDbC8/tcftta+t97xBYrCjh8+NxTuz4bRvWAFgTfHIAiU0EXznF2r3s0ZL7L76Zzww9DYF9Hjtzrz3Xotmfvd95i888CMSSD67x07GOjRHe89tGZKw5x+g0TkjHV4oSd6Dy0Oeh5r85VQdcXM9Ku6N69CxYmiigLGlxbxVX5GiZfsHHObGu8aNd41ugYAihf5hUFB5uaqcxQl0n0H1+jsmf0s7fixjADfsUL0w1s8WzUPiiHESMG4DHNQhaeNFV6jD5GgtCEXB00/FDsmfM/PBxi3WVLqZ0PwORt5RDZyQ77v2XPTlf3Jngtzj75hbq5W/wY77Pn+0tPWK4zs2Urzp79Fe3b/o2/jHj8sQXU08JGvf9V3v8/dPODy4MPIC/1npyMAxvWAZv8AjA/GzLb/9dWM6PsYJVGRf3yHmAsH3GRxMwzb72TvoQ0IeVMErBu4usmE7YebkLqxRCqAk2icP8NvezRREGtPHD20WEf0nditkzMhdo13QRgUeQl+z6F/SQg4jzoi7Yc91kGDZttTK0LSNp3jJa6c2xR9GkK9hylb0Ea6UJEgjAvfqbRhtKBSnvP12OZN5MuNqdipEUl3wbjV6XRpnzNTTTPQCCaKkZs5B2Jx1O975lwcaNT9rmNYzn+DI174gfz1l2hm3SuWWL7S+Sx17PyOrxGA7P7HV3/Zet5+DtMFcsC/LgA8628tPU5RsEP/D/9oihWtkL++NzfXj7A9xuftMwAg9o8/+mX6t9dezIy/9b9Q7RtLyyL6FvHiljQyIxWZ0m37a0p6liKBY+vdZAaNeDuVSDRR0PN4C4FIiO4NUZL09R5NrShHNIPLDwhp2vhgNsb7Xh+MlnBiBq2gCNiiHaUqYEZYXl6ZEVmhxjhhdqHvTFHefmbKoJ0iAsMEBgONUKKci7RBLWG5HIWI8l3Hv0G7NkTVhd+7Nt7pcReab4f42412bI8ZIrvt6Sdo4SebrW0pFRVY/tmh+vnW3LlPcx4nKIPrDN/rgtD/x79xhRXiN/cvzgk4DI7U7n9SBsgqa1yIAthij2WGVs2BgcNk/t8W63e5ECz8FxRqXnub7r6mEY9044hy7IzXTz1UArFxMa0EtFI8aC/WDVEjEgKv36/yoKGRNIiSqaVU2bPp7+nqz9zAw4nqWQ956tGiJzYQWXVNZhcyQtHPIqq3b0V1ShA8GAzOiMSIQujWUxBrgyIoUcB3R/dc2BEuZPUXkxUbyuS6ib7bvWvjo8xnQ8TNPddbgm6DQjjbn17n8vJpcMDKDYCxoAOK5hx6/JjVBjeKAWCH/nf8S48Vspf//kLuueWfvdMaF6IAuQJDGBc+w//7eEFPP3ClAwUXHaoLON/M6ARduHT3xU09SnZ7lGMDNf/YQyUgSK+9s5GWi6mcpEkz5C/ybtQqEqBzPhOolIZKdpeq8DtVAeVNNkfZH/X/ixV9XWLpWHOU/ctl4CEiUdbVLWUARbJ0cmLKaeSCtJFeI7WM1UyEC1n92Lnsmf0NV17qu93X4w/IYAdoVHM4W9Y3s6a+L+f9iykLSFy+MNN9D5zrJXl8X0aAlchG5f5b+zN9759LWGv4dYAQr9g+jQ6/PUCP39aWqeF/2cKhlr3nT5HEmv93d+cy9/E5d/wic3wU7PE2LXKeB+9Kh6CoSKK2YsJfEcOQKUzUDmLwUKXmv+Oox1ZzkEeLLT2Sne8MFUUszzte5ja1CG1PmzEnFZoBbdAi8iyLU8K/V2iMG8DblTFqQ7e9KrTd1TKiAMRFedXtVHGMRZF2l9rz0uGHUp6uKCK5tYJoXR9hmmWdqkDUaFrDnI1hq3yQgIs8nLJl9aNSn7OAzOQAIfIK16wr3T3mvR3x8PjJ5zP3M2yH+Fsoj1m+vcP6KSd4j28tO04PKCMgigEwlPX/G6pXIfxCUwwoU2x/pvtVlMEp/N7eBXkef8C6/sl1LPzMyCNWE9MTT6K2aQ2lN9PJQ2rtkvRWHRSm6KCIc+n5bXfRPlV0qW17yaRUOTrvCYGmWZpmWBkFthCRxqRInz5fdIjfi2kMtgtzmAstOdGrYdCPVsnKUCzr6gQVmUsIje97PP3BYnj8PeWo3nfvQ5tp0zfvyYl/UBW5POGv/0CJ69DjzjfHD4k7uUv87vM8V0mKMQDs0P9jt58sOM7djsY7szwd9/IqGXoq9R0JaBw08yPJ3N+dB47QvgOH6YF77qCSEaXN7zJjGyH0vObhJlarwtX9lBMkiPTUGXM6lHBrztfmk2mfCiFQEQeDVivDBlYGig5tK7aPOpH++UzHYimqChGusfr8USNOhbA83RlzukbCGn8r18HU0tIEDF0qN1LP+FKRoGsNMuVRKpF1m39gic3AaXfI2k/8vU15vHPqXmFDK1o7AfCnv6pIE5qC2AYAEgCdLXODsEP/yPoPwplLgFoCTjo9dQW879nr01Fw1lXuOr8onoRrsmPXHioZU54ihikSdZNJ0qhA5nmMaTF4V9nnkLMtVLMd+PZEaXObiJZH0F/puX2A9eRR9lce6a+ozEgpy37MYogPxkeFkauuQRLuZQ+VAMTlic07rb9fe6Pb9dyCeR/N29/bY94rbF7DAKFu2+uFqHZqFtwpNxgnxB/L/3QSABH6n/PwdN85ebwex1py4/t5dQT2veX+fE6PH5/fOxUAGjwGlt0gCVGYfQdKbHEs2eNnikeFgWfQKEAII+ndBm8ys569Qglkjj7qOgZAXEj9cLakSuQX5BEfHExG2V8apSWK+mFIWZXPGoaMcn2GEfWdU8IvzR4qEgjMV785VIr48G96XM/P+kij7+s6HeLm7TGPcL63Pj2W3NkMh9fvBMl/WAGgYwBA9BevvzyXyOcEr924zF1DAMLurCSIfZzv4Sf6YOasa1yPjziuw9Iv/m3edYmEwcLPXPgocfc1UOA1Z8SftJdARiXX514ZAOVYHjiSkdK8YHOGDBodwo8kYKNYjw6iv2jpahoYOJPbdtjj8c+62l/4vWVyncIOdnjm0yG2tme8U4noQBHtcsuNrgEA8Ufo/4nnw78Tu7vcRs18zzTA7gCj5z/Pm+V6/NobPbm/T50+Y4l/X7FNfNLmiLCmGWa4sCvGoWhMJZeP2a1urT4JDFM5lPAPFhcSgqfvFZPDDsEBs65O0uS6fLHyCphX+L3PIyqAsDiAV7xlj0+3vGECBgDC9pi3L1T+98nnEoGhf5udPgaPk863/Kc5ZjoMLFwT73WxjbSixF9wVj/DABSNQZlU5bUuznbhq8S/jYSadtiFHu5UAgjn0hhB+kzTMIWJi0sa++WZ3v4oXfqQOLb75wfytsO7xJzy/HkzrcdY0jdThfu988wQP+eyPcyfQzRtTx4RAazdd2a83/3xgVyNfMyfL2+JVme/kuBz6NQAsEP/WMLnl/XvNApwzAWO/Ac85xfqX6DO9eTaIUPptYCwPkR/6RfXUcf3HnPtH0K/mNTIHj9TNNo1AETp5W9LQUZIOkMDI/XLWgFgVf0zqFndP29Sn7WpXMvKBMkNKuy/15n5j451cTOt9Xq/JYqVIMqYgCH1lndGQV27a0WxhSbKiEmifwQMQ4uM0gir+5FWeAmCbyfz+dF54HBO+MEtN8/zTTBDOB9esg2E3BkOh3jOqj+ZewwhvEN5/dgOr3/dCwl6/LaTNJLQWQJoh/77TsZdnx8gcoAywDCAdMP8C9X5de3nY5DZHP5NNy374v+kju2PkRaCWPSZEsGcbvjU3KAxrq2/e1/JK4yqTXZtfsp+nGm9e77JWsZYmjGQiNfUIIGqxd6AKQdrSaAm8UnxJhWTSFFF+aO6vjXae0tB11K5GSFLRtOm0ROPhe+nDIS1pmG00zCSEX4s6TPCbRVvMp8fWNb3gOPxkr9ooYd9XgOv3Sl86JTnEv5fTMoLn3/tMydp968nWMKI1y/82FmXVzxS0DEAEPrHZ3T2CcDvB2/pt5YC4rVOch0BPdzyCbfwd4Zk8eN5GG5aa/zTI2OZDDN6Qca1zvJiFBVRvzbQKCe7hA4/uZoAiAoU1VMefdTVa52Ff9A3Qeq2exUGChClqIJg5cPUhrn92saNoKZyRiKyfRaSNBKoOd9DZrgRpP5N3HSyZ/8aGkYyprg0O3R2fthnXt8LhOWUYz0/wv3OCICNd2ke5vHvuPF91/Pw6p1gHwijzV3f/VDBOfPhxlkDwC8B0A79O5P6YAB5EwYx9eH3ORdcN8NVKwHnXmcev/ft90gL00wRw5TA+di4lNaOUkQr+zqKgHBbzW6OHmoZNGJWK1Xd/ABvHwGTTP1OjEK2VmWVgIw0TZOI18XbqExIIcpa/a4UYARpNbTKGj80jGSEXzPBb/7cmTq70Y4fv+R6fIsnHG3zpCfT3evlwqs/7JnXhjDaa/9hHLQp8R8JWf6FsJsA+a0AgKC3bfmQK9rhTerbEZAzsOT2T7v30yzYc+fiFq39KF3pMCFzoaPdQCjr3dIFDs4HuqmhHavOefGGxq1SwhHIThdUFDXGvZH2J7GiHMIXtVNhNdA0zBJ2l7zhwlJMJPhl5/kL4g0rB7H7Rfc8M8L9ftn98GQ7PevWkcTn5BGfCnjtn/99TkBR8GfZFv/ywCONQksAEfpHuV+vZ4/HO/3qAFx2MS1svtq1rVOjWE9QBCYf2WV9LximRARJrZah0hDPDLcn5Me0hjmrpzXMi95vvgCZdqxmaG0Ab3b+YHywK9JqAhhUJY497JpEbguNZYu1NSWPKTaupgylScuLvmEmVwxnzYYhV9mUoVYbwso6opGpFT8kQhCbu5d+2ndfr9eP7HjnvD6MA+/8NkL+CJ/b+2GfkeT5YxyP/HCKb+EeYBsASE50GgAwYry1+oPW/y+YfyNNvuTy3OMXlLGlE+ZfcINe1EaZrpGseIYJYtDQuxlaglBXs6cc4o/owbSGua+iIl4px5taP0+F2sUadaNeo1thT5diagJkwsl6hpTjndYUI/44b1Pr5+yK1dW8WkikrLyGqKsyBK0sZclirDb+jBgpc/sOMK2jaZihpfOuchm6UxrmrogSMXMIv9587gJPsZggXvB4/cuXfUrL6/fO4wOIqDfkb5e9tcUfWe/IiB/uOX973h7GCrL34cUHGSSYtrBrAAAYPd6mRDsDjIcH7/mM6/GWbc+RDgtv1ova6OZ9MEwYlnerLwxNlviX4A1ZImcIeINNqIgH4VKC/UzUY1r7CzMXKrcr7EWtsR+EQeHz034iMmgMboheQyBjuOiKA/bDeRNCtOJzw7sudP6kKSJXNlQGTPu0hhsihbwhlDj/GBeNUCIYZiV/163z0TB3vYHEWPWd1zVOc4okahtT6lsW+mWCgOuw48d78pL8grx+CKQT5zy+DebB8zr7KZF0ij+e/5LnWNUGQm33G8C4UJbXW2/AaQjYNQAQAfAu7wv6LEvUHL0zqQ+evk5Nfrxmid78fo/1fWCYMjEo4lH6jzdBaCAKUTwiVLzDjQ8i59yeFew2NMbRNQCwD8Zgddjz4qixDyOjGIMC4qX+bArfW+QtcSzO68+2DVbigPee0jBnJcTdbrKD35deObfJ2o6xqf2cHnVO/AOuB4obFVfV0Fyve00QfYExotn6dtiIaJhZ3/ViDEnbOFN/5ownZ/nnQsd0K6mU29SkUsEe1PYccZjQoJjP1m0/cS0bg9GwdftP6NSAu1IfBBshbafwYR7fOedtJcGpcL5T6AHE/6WvvGN52dgH8+fDCUT8heySQ3wGb1tdbMdYYRzAuEGEAx0IvaKPOX+/6AU+u9fbR0ElHRbM0wzzC07qY8pLZg36nLXqy6UVcs6Ijrk+VhdfPa12XsoU5l7DpC4UjLH3qTmfTpCRbjJF7CZ182r1FWnvcTMGQJu6KbYLdb9zLpVzEquJrw8LJWeel2vU8VQofW5XpuWuuVdI0e8dp2mYSUGGGic1RREuKaVv5A3iEjPHLVMGQJKiot7fyLQKJhTfsWoDqN8yZkUhrA/m/7LsVAw1tfgux5PpVSSMXRQR5zVRD9X5kz32+cvURIhdq87rSjFKauFbSxzr56pzQVqJldb3KCPWq9V3aG2hls0w0AxzsNXAKhgYoBrHNCR1nD9/fqPzmB7hR3g3VlD4wYNKzFuXPhq2mwo/P093L/t0rlKc7fX7FQCC0GFdvl2tD4Joi78NxBKi6RV/O+yP0LhO57xKA+PD23zI5t7vTctFBOyeBfd7VjPYhpAfn//skjxvXzeb32swBDKYjhy2Y5gwkM2uRAbL9jQ83QyZnvay1cCytqxQ2UirWEosq1PRaqZZ2eDCgDed8j6HZD6iyKFkCHqTEveVGIp3nIKKyz9Kx2Ipv+0Ql0Ry7uK4Sa9SdWkKEn9UNJw2Y04qUq0CB9kM/Tb8kTt/AudN4ntAowlEQKbOmLNIGYHa3yNbrJURRFMb5qiojoqgZKPwSPI0leEjTGXsFjDO/I4pBa1UUQXkujTa18z1bcyE+8NbHFplYuvCy77aXr8TiE/9lf5Z+AjnO8Pg8Ja9Hrwt/t55c6uyn08Z3EoSNHePcXtF3/b0f+ppxPO120+6ogL2fn7gvHkL70Tx9oPOuwcO8zMVY9CILa5koxtdhJqFO957YI13O5KkMsl8IwGxNlsQyBfkTqBxEFWfpnhtja9nPygGq359K9QzoWTSYrDopk7Z6FUmOqR+ULRJJ6IVfDy51mmo+SmXVoGIoPl6L/D6vdnmm755j+++8HQf9izfg5h7w+AQ/yiJfBBSuz1uqZn/eP2Wl+qs4+kuI7QT/rxdCeHpe5cvwtMP+lze84YSvLre/hLdtfuY7mGYCjHU5nb4xF9I2vbesYMrA547NRIME4xh0JiwIWw/eJYoCETVxlomOHe9dzMiEdW9vgKO6oi8Z1X/XAQh1qpom+u7lK+CH5gbdJP8dL3+ex/a7NoG7/Pupbf67o/kuCd8lvh5xd8W0843/TvWOfeD4OIHSYTXPzLdSpo7HNDbPgi8HqsL8PpH1W/7mGHvb0co7PB+oc+E6Y6g0rzLl92aN0ePpjs6REjqU98Is50YpoIMp/hbot93sC3oeQhpZmzDJyY4LxhDf09Ky5PFFIoKA6+qpueL7oSDxkRfg6Na1zdjHBmLlTc7Ij1+MPyGLkQ/P7KVJ/yZoi0y1OsvlKXvBev6vc1jHrz3M1bbXj/8BDBI/P8iRPy9RgQ8dhgXN6uIAdrkIgoQ5GE7vXt7iZ43YvDTXxU2fvyK8vh9Fhw7aF4fwv34A7e5tiHEr9tmV3tuX1C7uLixhximwgzdEKspsHJVIdG3wdhO9B5sQ3ndahsAQ6IfHOL3AyWB00ZsduXFFsaFXHXi6KHFhQyTiguelKm0MWF21PM0HNjnopodKHGdMA3kJ/rAP+5t6nl9ul4/gNfvXd63ffPfBL4e3rV3DTsEEwl/3uVxDQEJfSiGs7uAMNud8mAAIApgGxB+3n0QO0OmD5zLEjFu5Cx4RR/HwPv5UVc3kZ7drgzreO3QuJXgF+qQ6CSSt89JfUwVsQUWN6iKCpYSiUGDZnvDnWG4DQBzY6VFFXkHpYhZZrwHGjO9ACowVktsY9rn0TkeKity7fG+Q9oRkZGAVar56KGWqkzLZK9TZhrIH19XF8ld8lwv1vU3UwEg3o8/9Nm8UL4fCPl/6aFNtE2JvQ1Eadvm/xG4QsBex+5M2lt47VnX8j009gnK5EfzG905fYgvfiDOUfIAYFxs2VOXJ+Y22L74zcutMfot78N7Fqo9sPkb9+Ql5S1aql+Ea3NAPkUeglIjNalPIuHU0Gh+Ye0sQpNTI6NpqYf1dDelucqo0JKkSh5bmLJdCM2GTX84f4oikr1BtVvrjoVYXdQSNT/QPEbS2qAle7pkhRg5AStRK4CEgaI25WsOkx3neyWO0wah/0TyxnYs+xJkrCj5fJZ4Hu3xxMz0GvVwUZFtijMGXEys6u85VP5/41XCeS7K+h2ibCVIKdee6DvUHrZv4KIAebq7mWIxrcyxRUq4dQrIgK8/dBfdvcw9v4+qcw8XaPfrFxqH4GJK4L9eG9yaF558NSr5YR0+jJEgME4k8XkjFQjvB3n6ACF6vyx+XW8fnv4mXeFPp1s4m58ZCaAwiTREm7o93RRZtCBSaBpjUup4mYTUj0SyORFLn2klQy4iaTRFGSfCsEIZs6agZ01jUnulPdfs+WwVQl6rs9QOHebUnSolSf6q3OOLfN6y13PQmLSh0ucpkZzbVJNON+nsi66TpU4zYE1+3Bxsk2QsK9Y4s6ZelGMi0rQxyve94GpA5fXvCfP6Aebwddb12+zpeIpmfSTp2hYmaH7iX4gjfZnmPdUQfgg6hD9KDQEIflAiH/ATfWTw60RXrDGpKYLUrif1lvDB27+4QXM+gGGqB4QiPvh+k4o4JKUwktimPJsZ6tcpJHUpgeqPSbP/fCymvMCJPcMV/i0wTiylOjo0ztIFo1QgcPFBmZBCJuwokZRGz2Bc9Ff7HNrnDX/j3A2NBQV8xvePpnB+KcAIQLEiFU1qzhholPBbvqeuWY+UogdGWaag1aSuYs5RYeGP4PV/9RvP0NbtevXiIUaYt/aKUpj4I0zu7MynA0LpqKTnXT9fDjB/D2NkfkDEwQ+7rHChvAE/0ce8fvPi+2lg4AzpgCkY3fLK7O0zDMOMHULr/8izvSjU0Bq2H+bwW1rv1840h+jD87er+tmEib9V216J7ZKIxXr6zjbSL86vUMffSX3HfkfFsuDG62nhJ2+iO+r/nuoGfx3ptcg5+NL3phXMIQgSfczr655bLPvr2P6Y1r6ZTP6G4SgCwjAMwwwD4cJ/rjtJZgyNEUITMqKG/Gd9pJE6vvdYZPEHSPiLUpffuEHZL1MXZMa5/2Xa8cPn6YWf7VUe9OnQ19bV1dLyv16iRP86S/gtzvWRub/V+q3DE2qe/8nnC5/Ccoh+UDQlEJFu5CV8DMMwY4fQ9PWMKOh1goKn+fhD+s4jKs+1/tWjrmV+AAK47dt/U3CpYJS5e9F4d070rXEq8d701KP0ameH9Xu+LeYOIPbYr2Pnd+jfXnuRHlz5uSHRBxfXk/jYJtJlsiexz/1eE60kvFJFHxQqiZyHlGtZ9BmGYcYW2p0PVMi/m0K6VdlEyfIHQZ5/IeFDuP+BWzVyGpRAGzd2WL8LjvmOL9A+FQmwgXffsfO7FIbl9Z/cF7ofkg1RZtgLRHr7tx+0zoGTYkXfazwUoEdMaGgkhmEYZkyhv2A9ndZ25bcrb13b66SM59/Sel+eyGXyAJ70LUCjm1An4OmHiD5C/07Rz2x7JW+b7/GvepB0wJI/73K+JZ+eQyn1+coh+jhGBNGPdD0ZhmGYCwdt4beyvk29kD8K+2CeWbeqHwgSOxwLYXD8OI2JazyFcALH3bi84POHX3+T7r3PPxHuHrU9LBFQTJ1PFK8jHezVCAjto2rhpiceojr1+Zx0HjhsZe9HEX07aqCNuo6cxc8wDDM2idTkWP6hO0HjjD0khFaRg4wnfz9FwaoG+JW7fL18iCES/3b/9EV68+96ww+GMH+L22tHMt+pgfep99g7VoLfjh+FL0FcctutdOftn6L66VcoY2aSNf/vRP76SySP7Qg9zpe2TaPEf1piheS9gg/CChn5ETmZT4X46eL0bCEax8T6WIZhGMZNJOEHUbL8QZSiM04KzVcPnHyXat9+guTxVMFjiMtvIXFdu2vb0s89QLt/ttd3fwj65qceURGArynjwD/bf7LaZ8/uf1RGwJ/ltsmeLSRff4QKkrieTl/2BZp8xey8pwZOn7HqIOi22B0abyay4p0qKAhn8TMMw4xpIjent0RD6DcaiFQ21gE8++tu/oJvyLtuyuUkrnmKjNlbLUENpNbdxnbd+qcDRR9CnlKCvvCTzVYmv1PYncAguPc+z8e/uIECUePDOPHjJ/pWaF9FRaoi+iRXsegzDMOMbSJ7/Dby/aMbyBArdPcv1vMHodnqf3yHZPdWku/+xLVZXPWA9QMwV3/dgkV5L7XX6H/+s0tcIXzsD0MhaK3/crX/46u/nHlwcl8mu98mXquiDbeSuLQl0DCBl79u007asv15ikpRoo95/UkzVhLDMAwzpila+IFuLX+bUsQfc9gwAAq2mB08bYX/5e+UAdD/cp7wv/Avey2PHUKO+fpZM6+iaz764bw5ey8Q/8NH3rReh30b6v/MWtOfiwrYwq9EXlzarET/0642ul4wl7/u2z/QLr/rpEhPv0tMmDGbGIZhmDFPacKPZL+L1Hy/5vp+YBXtWfqoEuCzVAxBpX7zUFEAS3xrP0oV54PjRH/6fUGxB1HLGnspIpEPqKmZdAuH+BmGYRgQeY7fibiksR+iQqTZK50y68337HoqqnjlgGgeeaM7fMfxVxBddBlVBeOiUNG3KVb0cd5Y9BmGYZhSKUn4QSbZT4m/JO3lYbbnuvAT86gY6q+8VG9HU2+tf8mY57V2m+yzhE+H5ctupWe/F1H0cT1Y9BmGYRgPJQs/sMRFRhd/FLGJVG1OA3jUSJyzkIOZn0pj/sn6hffF/H0hohQ1wnw+2uui/0FdFKMB10Gy6DMMwzD5lEX4gZjU2BVV/AES9lCWN4o3W1c3KfC53rffo/8wd6mVRwAR3rdvP1UKJPt1/uIAPbHpn6z3w/vufvFAwdfU1U7SOjZC+6ldTypv/1MUCVv0cT0YhmEYxoN+izsNIDbyXPdskjEsSk/qvs6a91fiv27TD2jr9vBKeoUS+9AhEF41WgR3ZhsFIRMf2fuzPnqVlc1/zcyrrG2z1DYd7Gp/h1//LfX2vWuV+cVP77Hf5S31K7jqQBNEQWAQRYZFn2EYhgmhpKz+IKzqfhHF3wZZ/0u/uK5gEtx7v/k/BY/x1W/8gzIg9NfH28vyUJUPPyjnaxNWq9/LKy9+p2D0IqgoEYDR4u1JEAFO5GMYhmFCKavHbwPxUeLfUoz4w/uHeGLNP6r3+YnkqdNnC3r9t3zihkjCb4t7H0UTeS8Q7mJEG6/5uprHLzbZEev0SZiLWfQZhmGYMMo2x+/FEqE/pWfrdvTzgpA5Mv/9kv8GVNi9EBDgmVcnqdrohPkHTg+NHcl7+HxozVu06JtyG11ssqfPMAzDaFEx4QdY52+ViZX6tf2d2NX6EAGAqEbxpu9sLX2uPQoYm47wo3CRLfivqs8V1KlPC3Ve1flt4057DMMwjC4VmeP3Q77f3URGbBcVMe9vg7A/EvZmXd2opgSSBfcttUpeVDA3Hyb8GNPunx8oRwJgD6XTd4naxhQxDMMwTASqJvwg09LXWENCLKMqUEpvgCjA20dUokqkSCjR59A+wzAMUwQVDfV7gViJiTPayEzfRRHK/BYLPOv582ZSpUFiXsWx6iPIVWJCA8/nMwzDMEVTVeG3EZMa2zNlfuU2qjCbVQg+SrW8qKCcbvHZ+NqkyEjPFhNmbCCGYRiGKYGqhvr9UHP/bWrufzWVMPcfBvICUFHvtTe6rbK6h9/ooWJAUh7q7c+6OkkNKryPPINblOgXnZwXDs/lMwzDMGVl2IXfRp49ulINZwVV0ABwAgOg9+3f59oDI/FuYOCMax97FUHDlZeqqMHESgq8m0xYfyNNMDdwxj7DMAxTTkaM8INs8l9bNvkvSWMNFnyGYRimwowo4bcZcwYACz7DMAxTJUak8DupRg7AMNJjJTiy4DMMwzBVYsQLv4083d1MRi4KMHqBdy8oRen0Rk7aY4hhGKbKjBrht5GyO0FnqJVisWVKRJtp9JAiUz5LE8129u4ZhmGY4WLUCb8Tywg4rcQ/ZrSqSMBNNJKmA+DZG9ShPPu9NJE6WOwZhmGYkcCoFn4vVj8AoiYSRrP6fa0yBpqoevRkQvjyVxQzO7i6HsMwDDMSuaCE3w8rN0BSQkUFlEEglDGg/pZWZCBJ0UEynvLkRZf6fYpMs0tt61IefQ979AzDMMxo4IIX/jCspYNg0GMICBWqj1FGzMdTPws7wzAMcyHw/wGSpeHlLg8lwwAAAABJRU5ErkJggg==;" vertex="1" parent="1">
          <mxGeometry x="618.23" y="1254.74" width="92.31" height="24.26" as="geometry" />
        </mxCell>
        <mxCell id="SolYquduVEcN4SEWnmSy-3" value="+" style="text;strokeColor=none;fillColor=none;html=1;fontSize=24;fontStyle=1;verticalAlign=middle;align=center;" vertex="1" parent="1">
          <mxGeometry x="648.6899999999999" y="1284" width="26.19" height="18" as="geometry" />
        </mxCell>
        <mxCell id="SolYquduVEcN4SEWnmSy-4" value="" style="shape=image;verticalLabelPosition=bottom;labelBackgroundColor=default;verticalAlign=top;aspect=fixed;imageAspect=0;image=data:image/png,iVBORw0KGgoAAAANSUhEUgAAAQcAAACbCAYAAABveF4rAAAABGdBTUEAALGOfPtRkwAAACBjSFJNAACHEAAAjBIAAOg/AACF9wAAjMoAAN03AAA94AAAKL5YznkDAAAXMGlDQ1BJQ0MgUHJvZmlsZQAAWMPVWWdUVMuWrnM6NzQ5ZyTnnCUnyTmKSpMzSBSUICASVESCKCAKiCAKRgREQIIoIkmCIiAKCCgqBjLIO6D33vfWzPyYtebP1FrV9a1dVbvC3mdXfdUAsC6QQ0ICYBoAAoPCQ60NdXgcnZx5cGMAA7gAATABKbJ7WIi2paUp+B/T8jCAdsqXEju6wP8u0Xp4hrkDAFki2M0jzD0QwfcAgHXcQ0LDAUCtIvK+qPAQBKOfIpghFJkggsd2sPdvvLiD3XYxBr3bxtZaF8EsAOApyeRQbwBI/IicJ9LdG9FD0gMASxfk4RsEAL0jgjXcfcgeyF7kI23EAwODd3A7goXd/k2P93/odPtbJ5ns/Tf+vZbdhNfzDQsJIEeD/+sUGBDx1xh0SKYMCjDfsQ0Tkuc8yHomSMmB5F8hAbs2Q9pAbJ5BdjZ/sHiQm7nFH6zhFWpg/bsvZBkSrrODkfVBXiHhlrZ/5HExPrrmO+MgOMczTP8vPZf9yMY7NqNC8J3QCGs7BCN7ALWERdroIxjxKGg6xsfW4U+bnx6een/kMOzla2D0B9P5hhvtjMWA4D3+wSbWv8eCFYEJCACeIAKEIr9BQAKYAl2g9+dXAngBMlITidSFAX/wAcGBSI9gpE8wgnn+tNP9LxKD3X7eSL//1MgD3JF2EX+P+Zf0Hw2+wAMp/5KT/9TtzC7skG/iPyP8u77dntJV0vPSm3/VowXRsmgFtA5aHa2BVgE8aCY0G5BAy6OV0dpoTbQaUqeCzHJ6d5Z/5rijP/COV2R+cLSqvc+fNbj9vQL73da+/+2K/sy9Z+HBwt8zBOGeR8J3HEg3OCQ61NfbJ5xHG/lyPcV5jILcJcV5ZKVlZMH/p7QTs36jH9a7sQhi6v1HRkZikjKyIKLOP7Jg5BupzkVc/MI/MkHEz1lVALhj7R4RGvlbthNOkFhIBNSIh7IiMZEPCCP7LAsUgRrQAvrAGFgAW+AEDiK77YP4YCiIAsfAcZACMsBZkAsugmJQCirATXAHPACN4DF4Ap6DPjAE3oBJMAM+gUWwDDYgCMJBJIgeYoW4IQFIDJKFlCENSB8yhawhJ8gV8oaCoAjoGJQEZUDnoIvQFagSug3VQ4+hZ1A/9Bp6B81D36F1GAVTwgwwJywIS8HKsDZsAtvCB2Bv+DAcAyfDZ+B8uAS+AdfCj+Hn8BA8CX+Cl1AARYFiQvGiJFDKKF2UBcoZ5YUKRcWh0lF5qBJUNaoB1Yl6iZpELaDW0Fg0PZoHLYH46T60HdodfRgdhz6FvoiuQNei29Ev0e/Qi+hfGBKGAyOGUcUYYRwx3pgoTAomD1OOuY/pwAxhZjDLWCyWCSuEVcLuwzph/bBHsaewRdgabAu2HzuFXcLhcKw4MZw6zgJHxoXjUnAXcDdwzbgB3AxuFU+B58bL4g3wzvggfCI+D38d34QfwM/iNwg0BAGCKsGC4EGIJmQSyggNhF7CDGGDSEsUIqoTbYl+xOPEfGI1sYM4RvxBQUGxh0KFworClyKBIp/iFsVTincUa5R0lKKUupQulBGUZyivUbZQvqb8QSKRBElaJGdSOOkMqZLURpogrVLRU0lSGVF5UMVTFVDVUg1QfaEmUAtQa1MfpI6hzqO+S91LvUBDoBGk0aUh08TRFNDU04zQLNHS08rQWtAG0p6ivU77jHaODkcnSKdP50GXTFdK10Y3RY+i56PXpXenT6Ivo++gn2HAMggxGDH4MWQw3GToYVhkpGOUZ7RnPMJYwPiIcZIJxSTIZMQUwJTJdIdpmGmdmZNZm9mTOY25mnmAeYWFnUWLxZMlnaWGZYhlnZWHVZ/VnzWL9QHrOBuaTZTNii2K7RJbB9sCOwO7Grs7ezr7HfZRDphDlMOa4yhHKUc3xxInF6chZwjnBc42zgUuJi4tLj+uHK4mrnluem4Nbl/uHO5m7o88jDzaPAE8+TztPIu8HLz7eCN4r/D28G7sEdpjtydxT82ecT4inzKfF18OXyvfIj83vxn/Mf4q/lEBgoCygI/AeYFOgRVBIUEHwZOCDwTnhFiEjIRihKqExoRJwprCh4VLhAdFsCLKIv4iRSJ9orCogqiPaIForxgspijmK1Yk1i+OEVcRDxIvER+RoJTQloiUqJJ4J8kkaSqZKPlA8osUv5SzVJZUp9QvaQXpAOky6TcydDLGMokyDTLfZUVl3WULZAflSHIGcvFydXLf5MXkPeUvyb9SoFcwUzip0KqwpaikGKpYrTivxK/kqlSoNKLMoGypfEr5qQpGRUclXqVRZU1VUTVc9Y7qVzUJNX+162pze4X2eu4t2zulvkedrH5FfVKDR8NV47LGpCavJlmzRPO9Fp+Wh1a51qy2iLaf9g3tLzrSOqE693VWdFV1Y3Vb9FB6hnrpej36dPp2+hf1Jwz2GHgbVBksGioYHjVs2YfZZ7Iva9+IEaeRu1Gl0aKxknGscbsJpYmNyUWT96aipqGmDWawmbFZttmYuYB5kPkDC2BhZJFtMW4pZHnY8qEV1srSqsDqg7WM9THrTht6m0M2122WbXVsM23f2AnbRdi12lPbu9hX2q846Dmcc5h0lHKMdXzuxObk61TnjHO2dy53Xtqvvz93/4yLgkuKy/ABoQNHDjw7yHYw4OCjQ9SHyIfuumJcHVyvu26SLcgl5CU3I7dCt0V3Xffz7p88tDxyPOY91T3Pec56qXud85rzVvfO9p730fTJ81nw1fW96PvNb59fsd+Kv4X/Nf/tAIeAmkB8oGtgfRBdkH9QezBX8JHg/hCxkJSQycOqh3MPL4aahJaHQWEHwurCGZDLYXeEcMSJiHeRGpEFkatR9lF3j9AeCTrSHS0anRY9G2MQc/Uo+qj70dZjvMeOH3sXqx17JQ6Kc4trjeeLT46fSTBMqDhOPO5//EWidOK5xJ9JDkkNyZzJCclTJwxPVKVQpYSmjJxUO1mcik71Te1Jk0u7kPYr3SO9K0M6Iy9j85T7qa7TMqfzT2+f8TrTk6mYeeks9mzQ2eEszayKc7TnYs5NZZtl1+bw5KTn/Mw9lPssTz6v+DzxfMT5yXzT/LoL/BfOXti86HNxqECnoKaQozCtcKXIo2jgktal6mLO4ozi9cu+l19dMbxSWyJYkleKLY0s/VBmX9Z5VflqZTlbeUb51rWga5MV1hXtlUqVldc5rmdWwVURVfM3XG703dS7WVctUX2lhqkm4xa4FXHr423X28N3TO603lW+W31P4F7hffr76bVQbXTt4gOfB5N1TnX99cb1rQ1qDfcfSj681sjbWPCI8VFmE7EpuWm7OaZ5qSWkZeGx9+Op1kOtb9oc2wbbrdp7Okw6nj4xeNLWqd3Z/FT9aeMz1Wf1XcpdD54rPq/tVui+/0Lhxf0exZ7aXqXeuj6Vvob+vf1NA5oDj1/qvXwyaDT4fMh8qH/YbvjViMvI5CuPV3OvA15/G40c3XiTMIYZSx+nGc+b4JgoeSvytmZScfLRO7133e9t3r+Zcp/6NB02vTmT/IH0IW+We7ZyTnaucd5gvu/j/o8zn0I+bSykfKb9XPhF+Mu9r1pfuxcdF2e+hX7b/n7qB+uPaz/lf7YuWS5NLAcub6ykr7KuVqwpr3WuO6zPbkRt4jbzt0S2Gn6Z/BrbDtzeDiGHknevAigkw15eAHy/htz3nRDu0IfcKah+c4o/CYVcPmCktIckoU9wOyoJbYPRwgrh2PAsBG6iOoU5pT/pLFU99QKtBJ0nfSnDFJMoczRLMxs1uwNHGecP7r08ybwv+Gj5rQVOCz4XBiJyol5i58W7JFakhKWtZBJkq+SGFGBFGaUDyukqtarv9pLUlTVcNdO0bmuP6eL1FPXdDc4a1u2bMIZM+E0NzfzMMy3uWb6yWrVhspWzs7APdDjtWO303Pnd/kWXlQMbh4ArkczqJuGu7WHtecjL05vsY+O714/HH/KfDGgOvByUFOwTYnlYOZQnDB/2NXw4oimyIir7SFx0QIzTUaNj6rFKcYrxKgnax00SHZI8k8NPnEjJOVmWejetJb07Y/jU29OzZz5nfj+7lLV8bil7KWc9D32eMV/8guFF94L4wvyi6kvNxc8vD14ZLZksnS/7WY66xlghWqlz3aUq6kbOzTvV/TXfbtPekbtrcy/s/tnaygcNdY/r2xpaHj5svP+opqmyubSl6HFua3rbsXa/Dpsnip0snWtPJ5/1dj153tb9+EVjT01vfl9Yv+4AaeDly4JBryGFYczwyEjFq8jXWqPY0U7EvxTGZsezJtQmpt6enlSb/PSu+L31FGqqZtpuem0m54P4h+ZZ69npuRPzUvPTHys+BS3ILSx9rvni/pX26/1Fy8UP3459Z/7+5Efmz6Al8rIX4kfT6x1bktvbu/bng27BfihZ1Bz6NiYB64hTx0sQhIhCFHsopUmqVFbU7jRxtMV0TfTzjDRMysxkllTWe2wTHBScclz7uRN4rvA273nDtyRAIcgtpCBsJOIqGi2WLX5boltyThotwyu7V85ZPlwhQ7FMqV75hcp71Z97sersGjKaZloB2pk6t3T79D4b4A0598ka6RvbmbibBpkdMY+zSLI8YZVinWqTbnvKLt0+2SHa0cfJ1llvv6aLwQHng1GHcl1vkVvdutw7PO57Fnod9Xbwkfal9F3w6/NvCKgMLAjKDE4MCT3sEqoVxh22ET4UcTMyJcrtiH60dAz/Uc5jrLGMcTTx2PjlhPfHuxJvJ+UmR504kGJ8Ui/VNI2cfjzj6qknpyfOfMlcOruStXTuR/Zizufchbwv51cv0FxUKQgqLC/quTRVPH955srbktel/WVPrzaVN17rqvh8nbfqwI3Cm69rGG6Z305FotfafclajwcFdQMNmIfyjYcenWgqb25saXp8vfVsW2x7VEfCk8zOoqelzy51nXke0W3zQqIH3TPae6cvo99vwOql/qD+kNWw20jEq+TXJ0dj33iN6Y6zjS9M1L89Oen4TuI9/v2HqbbpopnDH7RmKWcH50rn4z/6fvJY8Pkc+CXka8hiyLfQ75E/on9GLfkuG65Qr9xd1V99vua89nm9b5Nya3TX/mKgHTKBXsGeKCwqEy2G7sXEYKWw87ireB+CFGGN2EVRTBlFsqaSpaaiXqZ5TdtCV0mfzRDL6M1kzazOIsLKyLrJNsc+wNHEWc1Vyl3Ak8ebsyeTL4U/UoAsqC/EI7Qq3C1SLBomtk+cVwKWmJcckXoq3SBzXTZfLkHeVUFFEavYq5Sr7KjCqvJatUjNY6+sOlZ9QqNWM1PLR1tPR1CXRg/o/dCfNRg2fLgvz8jTWMB40iTf1MIMZ9ZmnmRhZMli+dGqyTrbxsdWzY5kN2F/0+GYo7ETo9Nb54r9wcj5v3bg0cGEQ7queNd+cqGbv/teD0qPUc9rXoe9lb03fZp9E/y0/IF/S8DxQN0gdFBH8IkQ7ZDVw1WhTsiZXRluEf4zIj9yb+REVMIRziOPol1jmGJGj1YdS4p1jBOOW45vS8g+7p2olySazHKCIgWk/Dw5lfoirSb9VAb5lPxp3OnRM7cy08/6Zxmeozv3JHt/9kJOTK52ns751Av4i+kF00Wsl2SLVS6rXFEokSoVLuO9ylpOe41YQaikRjxJ/YbrzZPVN2te3tq8I3zX+d65+/0PGOqc6gsbRhoxj0SaDJvdWuIfX2ptanvbvv2Et1P3qfezU123nw93b/WI9O7vO98/8VJ28PTQlxGbV/WjvG9yx6XeUr2Lms6Yi/5s/n15zWrH/r/flnYSVhGAbIRn2p9G8jwAWQ8QnvkQAGYiAJYkAGxVAHyyGsCG1QDyP/H3+QEhxBOPcE4mwA1EgDzCNE2BM8Lwj4A0hFHeAE1gAHwAmxAdJAJpIfwwDDqN8MEOaAqGYF5YB/aATyIsbwBeR/GhzFAxqArUCBqPVkUHokvRrzF0GBOEkbVhIawWNgHbisPgjHFnca/wvPgAfD0BR3AgVBDWiWbEK8QVCnOKCko0pRtlG0mAlEb6QmVL1YgwnSwaQHOYZprWibaXzoDuEb0yfS2DKkMbozXjFFMEM5Y5j0WQpY7VnHWOLZVdhn2Ko5jTjUuMa5X7CU8ur8ceeT4s3xv+uwKZggFCJsJiIiSRRdEhsYfilyTiJF2kVKQZpBdlXshel0uT91EwVpRUYlTaVv6sMqE6oNa1t0O9XaNTs0drVHtOZ1kP6GOROIffhzciGFOaMJjymsmbm1sEWeZYNVrP2JLs5O2dHGIdLzu1O8+6UByQPmh/6JhrGbnHbdWD39PG64R3o8+6n67/hYC1IPfggcMGoY3h8hE1URJHbsfsPdoXGxzPkTCcmJNsemL5ZE6aeHrHKc8zjJlvs15kj+du5/NcVCk0vXTocnTJ5bLRaxKVl29IV0/evnLv4AOK+urGA81irdwdBk9Luil7hfuXB7NGhF/3j116e/79wAfX+bXPdF9vfAc/pZdVVrbX0tfrNgY3H26V/grZVtqNH9DumwMdYAeCQBZoAjPgAgJBHMgCZaAe9IIZsAUxQVKQMeQFJUEl0GPoPYyGhWBTOBS+CLfBX1EcKBPUMVQNahrNhrZGZ6A7MBBGHXMU8xCzidXEJmGf4WhwTriruO94bXw2/gNBjZBNWCAaIDbfpHCkuIcw4VDKQZIK6TIVBdURqllqJ+oeGgOaFloN2mY6Xbouehv6cYSZrjNmMokyPWc+zMLEUstqxfqBLZqdxF7GocUxzZnFZcxNxT3Oc5f3zB5fPh1+Fv5PAo8Ezwp5CeuICIjSieHFMRJ4SSopOmlaGbzMmuyc3Ih8l8JjxcdKXcpvVL6rUe2VVrfS8NUM1wrV9tFx1DXUU9GXN1A2NNx3yCjO+IpJp+miObuFvqU/cqbl2Jy3zbXLsb/s0Oz4zVlhf4LLi4Nch8Jde9343L08cj3ve/V4T/ts+DH5ywXYBkYGXQxuCfkYyhxmEB4ZcS1y9AhNtFlM5tFXsYJxsfFTx72TaJK7UsJTsWknM9CnUs+wZ7ZlJWY75uqeV7ugVqBWpFIscgVd8qQsspz92qNKtyrGG+PVHbd67yzdl3lwrP55I3WTXktoa3n7fKfOszvdMj2FfeMDPwe/Dc++mhqdG/v5FnpHnGKY4Z/dN5+3oPQ1/Uf5SsBaz0byZtvWz19ru/aHka+fFnABCaABrIAXiAV54BboBh8hAiQGmUGhUD7UAn2EmWA9OBwuh0dRtCgjVDKqBbWFVkPHoBvQmxhtTDpmBCuCPY4dx2ngSvB4fDB+kKBCKCLCRD/iEIUexUNKFcrHJEvSB6pEal7qFhoXmmXas3QSdC/ogxhIDBWMOoxjTNHMXMw9LGdY3dh02EU5GDg2OMe56rjP8QTymu6R5mPhx/KvCXwT/Cr0Q3hLlEqMX1xLwlUyQapIuk7mpewPeTYFI8VEpTYVSlUXtVvqOOSu2qS9Rydbj0m/2tDZiNa43/SiebClnbWszaids3234z6nl/u9XFYPJrlC5BC3IQ8lz0Jvgs9xP6J/aaBZMAh5EBoczhXRFhUR7XH0S1xZQvTx4cTNZPgEPoXmpFxqWNpght2p+TOpZyWzXmen5qrlfcuvvHiwkFh0rVjp8qMSzdKWq3rlXRWWlYNVtjf6qg1q6m8L3zl/D38/tnazLq1B8GHfo8RmxZb51sJ2iyfozofPwp6LdU/3XOpzHGB4OTCUOWL8anv0xpjF+NzbiMmt94nTqJnEWXgu6SP6U/zCly8GX6MXi76d/h7xQ+/Hys/rS+ZLb5Z9lpdXIlfmV11We9d016rWSesh6wMbChv5G982jTZLNje2bLdu/kL9cvx1Yxvattu+vmP/MC+53w+wEKUOAJiJ7e0fggDgzgGwlbW9vVGyvb1VipCNMQBaAn7/X7F71tAAUPh2Bz0tvJXwny+kAPwLb398WUMfJs0AAAAJcEhZcwAADsMAAA7DAcdvqGQAAAAYdEVYdFNvZnR3YXJlAHBhaW50Lm5ldCA0LjAuM4zml1AAAEazSURBVHhe7b2He1NX1i4+/8vv/r577/fNZJJJZpJMJiGFhBIgVPfee5V7792W3HvvXW5gMGBjGzDFNphig00zvXdCy3v32pKIQ2Rj2ZIhYb/Ps56jI+kc1f2ed6299lp/ERAQEBAQEBAQEBAQEBAQEBAQeB9RUF6HGGkhAuKy4RYqg11AGix802DqI4WlXxqcgqXwjc5CdFoBsgorUdckh/LQPyVyS6oRnJAD5xAZbPxTYe6TChMJfR9psPRNhX1gGtzD0+Efm4XIlHyk5ZajtLpRO9+JdUg+tgSULdJKsdmnAJslOdjinQl9bxn/QSVRGcgoqPhT/3gCi0N1XTMnAvqzb/ZZ2H9xs18RzNigSUgvWvR/zSmiQO1rzGYBSaVa/X+XVtVzUtT3zmCfq1jta87HaDwaMxLxicpESWX9wt6jgVea2pNr0+hDmrEfPzGjWBDFO4rWtk64RRUgIqNmSX6jiOQ86Euy1P5fFmU+ufxqWlHbsqDPYSpJVX/eWcwxSKqV7ysyhX0fjBDUvYY2TM8nD/5JJZq916Ugh5mmx9RFDJOEypcXeAfgH5OJLb6Kq7ZrWKZOf5vE9EIYSHQ3CGaa8iU1wlKTQ1JmsU5JYaaZ+6W/2+SgMit/7TCuwMKRWVD+u4GqrSvh66htlMPYR/ab19Kp+S9M7i8lOVD8ZDN7n+rOqwvT+L2+LXIgI1mpfBsCSwh5eyds/NnvruaPqQtyyCmqxGZJ7u9eS6fmnf1Ok4OxT7ra8+nSQhNz/zjkQGYo0VDqCCwKAbFZ2Mz8T3W/BZm2ySEpowibfTUL8mnDjLzT3llyMPJZGjfidcsvrf1jkQOZbaBMEISOQVdvImJ13/9M0yY50NQazSSoex1dGwUllW9DI+iaHOwDpWrPo3NbiJulKTmsd06AuXcCrP1SQV+kvlf6oiXjZv8SFFdoyGoC84ZHVC7/jtV996+btsghr6R6UVNxKtskYSrHOwOG3lIYe6fAwIsNLknOGz8P5QYo34pG0CU5JGQsYmqSfV4aZ3ozvgsjr1Toecmw2ZvUYMGc8Qt6jvJtzB+akoODX4LaF2lsboFbqJS/SXXHvcnMfbV3xRL4LVQzEfMxCpIpD1sU9CWZas8/H9NjFxzXUBkKy+aeVq2qa0KsNB9W7EL1eo5ETnH1gj6HLsnBSKJZQJYIgciQEpyaWuaX7EV5EmFJubANSGMXbjYefQv5uayCFkCWmpKDV0TGnC/S2CyHmSRZ7bFzWyla2zsX9IMKzI25YgyvmzbIwYENGHXnfpPRlTE0YWGBREJ8ehFPvtMPWHg+ja7IgQatJjMTpLqCYucea/NFZf0Cs0i1TQ4q6HtrHo2NYD6q8nABLWIpyUGaq7jiqTv3XEYpwfK2jrf+++uKHFzDNAtC+kctnqQXDV2RQ05hhcY+p5XfwoJIAnNDE3JwDFrcb2A0j6Dn62YieQcGghK6IgciP3XHqzNykZSHvV3oihwIJl5Jas8xm+l56zY7711Eak45guJz4BIi4wtpDL3T+Pdg4C3lKefkO3qEp/M56vSCqnl9P/VNcqgsJj4ZG73nTw76zhHIzit6dfzrpnwJtSgorVF7zrmMAtrKw98J6IocKI6i7nh1ZuSV/G58J7okB/pTqzvHbEZXOOWhf2pkFlRw33gh0Xy6qtDqxKTM3+fJJ+dpPjgXYsqX+x1oBkvd82czcj8y88vfqd9cV+SgiXoz8X4PyCFOpuEcN/uzKA/VCiLDE7DhJzN8s2wDt/XrTBESHIv6+mY0NTUv+Q9AMRWDBcjuWY394UJSfp2/puk7tc/Tsilf7ndQRcbna0RyykPfGeiMHDT5bjzfETdLl+RAuQvqzjGXKQ9dEPJzSmFi7IBP/r4c//3fX+Efn/0AT0k0Gtt3o665B8WVciRJS+DpEwtTM3dYWXkgMSENDQ1aWv8+Byz9dLOuYOZimrdJDoHxGua6+JeivKpO59+7ptAZOXhr9tvIcrV7oVwQ/gzk4OEShH99vhr/9+/L4OYZiQb5bmzYYo1NEncEBiXg+r1nuHz7Ma7ceoJLzM5fe4jjZ6+ja/dhxCQVwMDQBV5ewait1c2f1dBn4XP+bzKaNlS+zFslB3Mfzf5HFFNRHvpOQWcxBw1XXlKOgvLQtwddkgPNO6s7x6ymoVsRE5WKf366Emv93ODemQeXhgwYW7iho3sQVXWd0De0R2Z2Ge48fIab957gxt3HuHr7ES7ffIAL1+7jzNV7OH3xHoaOXURGYTM26jkgLDQWcrn2qgtZ0QIndZ9VSxYY/2tewNskB8rAU/fc2cwn+t0MPuuKHEx8NM/9MGHvRXn424EuyYEqQak7x2xGlaSUh74Rm36ywN/+9R3sG9NhV5qEtTb22GjjiGVrNuP//PeXSEzMwa17j3Hv4WM8efqc26Ofn+HBo2e48+AJrt95hOnr9zF18Q5OnLuJo2duYffhKfiGpUNP3w5VVQvLsJsJTdNlN/sWYTNV0mJXDX36XdhtCkDOlTyTnv9rpa23RQ5Nre1qnzeb0eepa1hYMRZdQ1fkoGlw/pUxxSHNeUtFknRJDpY+2p/KlLd24B8ffoe1P9lhjb4NfnC1g4GJK9q792PfwZOorG5DTFw6BgYP4sUvwMuXv+CXX8jAty9evuREcf/RU64kiCAmGUGMTV3HofFrGDh2BZnlW7F6jTkKCxb3o8w3XdbYKwVxsrkL4FCtxLTsEjgEpjECyX51rPJhjsScqt+cV1emfLlXiJVqFojU5CKw1NAVOaQXVKo9fj5GZEpuGJG/8nRLA12RQ4u8nU9NqjvHbGbpN/cX3dLSiX9+vAoffvAtQuOLUNuxH2lZNdhz6DTOXX+EibNXMLB3FNMXr2MuEFE8ff6CEwQpiPPMvRg/fxMjp65h8Ngl7Bq5hMLmQaxaa4n8vMIF/SANzW1q6yXMtE0+BfCNWtiKVFIMQam/r8/Z1LYVZdUNryw0Kh6bNIiU6zlHIi0z7zfnmGnKl/kNnEM0uyoudDn1UkBX5ECgBWPqzqGJ0dolmuVJZRcK5Wl1B12Rg62/Zl8yWUTy3JlhX3y+Hma2YTA0kcDeKQIWtn6QBCRiePwiDh6dgrmVB6xdJDA1d0FKYhYa6uS4d+++khJ+CyKIn5++4C7G5VsPuHtB6mH/8cvYPXweWw+cR17jAFausUBFRaXGP0REypsXoNn4Jen+B2bQZBrNIVBzP9fcV7P/0EKXUy8FdEkOC3YtZjNGNpTuXl2vo2l5XZBDbEq2xgk+lBBDFYqUp/gdln+9CZ9t2IyVEmesDfGAviwETi2Z+N7GEvXNPdjVPwJzZ0+M3D2HfafG0NK1DdGxqYiKSMZzphLU4SVzMR48foZrtx/h3NW7OHH2Jg6OX0Hf6AV07p9Cy8AU4vI7sXadOVpbNQtSUrlwdZ9zpiVnLE2arCbksJC1FcZMCag712zmH/vuZsLqkhwIC62wPZfR2KH07LQc7VbC1pgcPMJml8HtHV28z8Cb5LQ6M/GZPY3W3tYbn9iZYNM2KcwH8uE4VAaf4VpEnmyDU1kqHOwCUF3bCVNbN4zePIuLT27jOV7i4aNHsDJ3w40bt5R08FtQDOLxzzST8Rjnrylci8MTV7HnyDS2DZ1BQ98EqnaegmNgNtxcfTX64u0C3xxvCIlfmjJ5uiYHakWg7lyzWXTau7vATtfkEJ6k23J5xhIZ8krml2b/RmhKDobO4ZBlF6K0qgF5xVW8uQjJJXOfFGyaESjTxIj5sgvVS/f21i7874+X4buGaGzclQmjXdlwHCyB94EqBI82Im6sDc6pMdC3dUF2ax2O37uIi49v4ekvL9DY2I7wsESmHJ4r6eC3INeCgpO37j3B9LX7GL9wE8OnrqH/6EVsZeTQtGcC5duPs/OOYsVGJxQXz9/Pm0/FH0PPpUmT1TU5bPHSbFYqJVvLVzgtQtfkQLAJ0E1CnMpoPNmx/5/y5RYOTclBF2Y9RyVqE1M3LF9rj38bGGBNVQxM+nJhP1jMySF0pBEJxztQfLYPzdMH0X99HEdun8f0o5u4//QxnJ18MTF+WkkFvweRw+PXyOHwqavoP3KRK4dGphzKu48jt2MMkpRmGBk7zPsLl0S9OfGJotBWvronCF2Tg6aVwDQpxFIv74aev6IO5WJsi18h/BLfTO5LQQ4EXWXMzjQquFM+SxB5Xnjr5OAzd0Xcbze4IqxsP2w90/GVpRnMevPgtLeUk0PQcAPij7cj79RO1J/bj57LYzh08wymHlzF3RePkZSUifzcMiUV/B40zfnwyTPcuMPcCoo5nLuJQ+RWjFxgymEKjb0TKGPkkMWUQ2LdIXy/yQ0V5fMLTsbK5j8gKbdBly6GzslBg/OTadKBKatIe9OztgFv/mxLRQ4Ex2AZv0CoO6/WjBFj1kK7zr1VcmDEUFI5e8qyq3MATP2LEVV1GH7JLVhmZsrIIRd2A0Xw2F+BwMP1iGZuRfrEdlSfGUTXxVHsvT6BY3cvMNfiNs5evwRXtwDkZJfg6dNnSkr4Fc+ev8C9hz/j6q2HOHP5Lo6dvYEDJy9jNyOHjn1TqN81jpKtY8hsGWHkcBg2IWXzjj0UV9Sr/8xzGBVjpeCeX0wWarSYJPSukUN5zfzXsmQyd1PdORZiVI5fedpZsZTkQIhJy+cL6NSdW1tGQdDc4gXEId4aObAvhNb/K9+GWnz3ozVcZDuYchiCpVsalnlYw6gvB9Z9+XDeWwa/Q3UIGW1E0vFOFE3uRtP5A9jB1MPQjdM4ducCzj++iVM3LsLUwgVjYyeUlKAAJUORaqBgJCVCnZq+jdHJa9h3/BJ6Dp1H2+AkanpOorDjKDKahhFTNQTvrF1YsdZy3l/yYgqs0hWFOiHRrEdl7eIWhr1rbgXFq5SHvhF/dnJQgdbILOb/8kZ7g0JXi7dBDlRMtqVt7nqRDXVNWLZBAvfsPQgo6MeKDQ74OscfG3vSYUGuhTIoGTBcj6ixVkjHt6F0sg/yCwe5e7GPKYjRO+dw6PJpWNt4Ynr6EicFijM8f/ESjxgx3L6vyHEg1UDTmIfGFTMV3QfOorn/FCq3H0du2yjSGg4hunwfAor24tvNErS0tM7ri6akLnWfX1MjojCUyBAjXVgbQV2TA6V5qzvXbKZJ/4T3hRwIlbVN/D1qqsTmaxaaFnFeSnKg9Oj5TmMlJMiw2j4Vzpl74Jfbh+Xr7bCsNBhrd0ihvzMLNnsK4LavHIFMPYSPNiP2eDuyJ3agbGoPGs8PYeulUey5OY64knxEhifhJWOFZ88pdZrWVzzF7XtPcIURw9krd/kU5ugpphooO3L4PHcp6nZPoHTrMYVLUXMAoaV74ZM/wN9TRsb8iqAWV9QtaFp3LqMuYZp2k9Y1OVB5dHXnms1owCsPfSPeJ3JQgTc1DmXf6SJbPqizVE1minRNDuTvUF/MDA0r/jg7BWCTTxnspbsgyRvAFusofO5rgx+6k7Flh0I9qKY0KfYQcaSZByfTJ7pRPNmLmnP7UHmiD1vM7DE8chKPfqZsyJ85KVy78wiXbiiJ4QIjBuZO7D9xCb0j5/kUZgtTDVU9J5DfcQTSxsOIqdiPwMIBeDIVs9m3FIFBEfP+LLqKSlv5zz/tWtfkoOl/SJNu62V1crXnWIj9UchhJqgbuaGGeSRzmUb1OjX9YTd4ZWMzzWuTlHxlGcw/lvGceVrX7xAkQ1hS3qKmUfSNXGAa3gi7tB64ZvbBMaoen23Wx7ftCVjbnQqTXYrYg2LmohJ+h+sQOtqEmGNtSDrRiZyzuxHYlA8PjzBGBkwl3HyIS8wuXr/PsyFpsRXNToyevoahE5fRNzqNHQfPQT5wGnU7T6KkawyZrSNIqj2IsLK9kDD14siIyjSyGS5ufvP+XI2tnbyzuLrvcrFmIJlfpqGuyUGT4qlkIRr2bMwta+SEos4Co1Kx0SlG7eu8bn9EclCBOpaZsrG1+NmNUpD7ojzt3NCUHKw8o5bky1i/xQkWsR2wTemBo2wn3GU7sGylCT7NkmD5tmRs3C6F8e4cWFJwcrAUXvsrIDlUg5CxZkSMt8O7PR+r9MyRW1DPi7sQGZyevo1T07dwkpZoT13nCU8UgCRi2H7gLA9C0gwFz21oG0Vq4yGuGgIK++GR2cuJyiymDdZ2nhp9B40tbTprO2/q++YCrbomB01rVlCQVXmoVmDpM78+KX9kclCBpiWp45W69zJf84uZZ28QTclBkyXbi8GaTQ6wTOiCbWoP7Ji5sMFp4VeAz3/chK9qwrG8K4kTBMUfKPfBcbAYrgOlsCiMxcYgT/zr2x8REJiMI1M3cPQMM0YGR5j7QCsvKUV6P1MLA0cvYhdzJSgA2U7EsHsCFYwY8tuPQNZ0GAnVBxBSMghJTh8cpOx9cHJoh5mV24K+Ayrppu47XaxJoufOkdA1Ocwn4Wum2fhrt4gJDXp1r/O6/RnIQQWXEGrfr3l/EDKqaq48zdx4V8mBlINlXAfspTthk7KDE4Rnbj8M7OLxqZk+vmyLxeqtydi0XcYVhNVAAdaEeULPwB2J6bUIjsjGt19vQURsLoZOXmUK4TIPOO4du8TTo3tHLnA3gi+w6j+Nht4JVO44gcLOMUYMwzwIGV62D755e+CSvgv2jBjIzBk5WNp4LPg7SMtlV3sqqabNQKXP3FW7dU0O1MhG3blmM7ryKQ/VCt5HciD4Ri20gMw8E+7eVXLQM3CCYWgDu1rv5IPSlgiCbT0yd+HHTe743NMS33TEY3V3Cn7axn7Q3iwsc7VGTGo1dh29hh0jF5Fb2Y3olDLsHr2E3iOXsJMRArkP7f0TTCmchnxwCs39k6jdfQpFnaOQVg9AxlyJ5PpDiGTuhF9+P9wzd/PXJYIiojKJaIaTs8+ivwOKx1D+u7ZW6QUnzk4QuiaHto4ujXxhbbcgeF/JgWCjYTsAsnl//+8qObi4BkDPr5yTA7kWKoJwkO2Ca+pW/PCTI/5lqIfPM324i7FmexqWp/li7QZ7ZFbsgnzfecRk1MOfKYjMim1w90+GiYUP9M09sdbAHhuMXaBv5gVT60CY24djLVMqX67cAhPHWATl7oR3ejdcZdt/o1zotfV8S5m7Eq7V7yA5q4R3LadEFXXf+XyM1IjydL+DrsmBoGkNyYqaReT8v4b3mRzqGltA5QXVvbdZjRG58vC58a6SQ3xcGlbZpTBfn1252cC0TVUMUDJHJvPd0nfAwiMLn65Yjy9LgxQqYnsqvkr0wFfrDCEJz4W0vAcFLUNw8IjHB58vx/Jkb3xfEoqVtdFYVhGKr3MD8HmSG/4V7YRPpR74JFeCTww2498rtrDzsu1yIxixz2wv282JibZr7FORlaW7cl0pjCjMJCma+5NzXA2Wghw0LaBK9UWVhy4a7zM5EDQdw/Mu5PyukkNJSTnPkHSQKmYJOEGkKLZ0JXeQ7eR5B1tsY/GflQb43NQAnwXb4d/ZPvgiygkfffI9vlq2BV9+tRnffGOIT79Zj+8aYvhMxzcdCfiyIw7L2uLwWUsUPm8Ix8dVQfikxA//zJfgo1Rn/C3RDn9z3IL/fGcKs3Byb5h6YeTw1QbvJfn8KZlUbFazq7Hy0N9hKcjBJ1qz90oFdJWHLhrvOzmYemtWq5XS3ZWHzo13lRxaW1vx9SoLWMZ38YHJYw6MGMi9UCkIMsqBcGNuhrV/MTZbRWK1njt+1HODjV8GYkp2IyxnK0Kzu7CKuRv/ypbgC3kMvmiMwL/rI/B5TQj+WRGIT0v88UWRH1MO3vgowxV/T3HERwn2+CTGFh+uW4kVW3zhkN7L3ksnftxgtWR/hqKyamzSoBlKbaP6tG6qO6ju+epsoY10G5rlGq0NIGWkrVZ47zs56GuYoUr1N5SHzo13lRwIbq7+2OCeC/t0kvVK9UBGEp8ThoIsyM0gFeGTPwj/wkEEFe9DRPkQIsv2IbryAGIqhvD9Wht8Ecvch7pQBSGUBeLzkgD8q8AX/8zzwufZXviH1AUfJTnif0dZ4u/hlvhrkAk+WrkKW9yy4ZTRz95LHpKStHfFmw+8wucv18tq1Ce3aNLE1XYeA2g2GEs0cy0o80956KLwvpMDreZV995mM6qKrjx0brzL5FBcWIJ//+jEA4Ezg5IzSYJiEXS/YjahBy4Zu+CWsRteOX08P8Entw9+BQMw9szEZ19vwD8jmSJg7sPn+YwUcrzwcaYHPpG64sNkR/w93g7/E2mJjxgxfBBsiv+xWIevVljDJnk77KS7sGzd/Iu9aAsV1fNf+t0s71D7/jTJYKTBoTxMY1Cqr7pzzmWhCYuvJ/k+JUG9jpQsDYORzBzn6zq+y+RAMDCw5+sZaI2FatZARQ605aSgdDUUZKF4jO5zlu3k2ZWUp+CSuQcGkkJ8+s1GfCQxxQcZbtx9+EeiAz5OcMBHsbav1MIHfkb4L4kePly7AuttEuCY2Y8tPiXw9Q1Z8j9CdV2D2t/hdSNJrzzkd6Bqz+qOUWd6notTRlRcRN15ZzOayqV+HMrDNUZ7Ryc2u/8xlENNS/eivlt1MPBMUfu+5rJ5L75618mhsLAYX6y0+zUoOWPW4nUloXoOmXUyIwrmdqhIhLsljGCMAyrx7++M8KHJenwUYYW/RllxUvgo1AIfBBjjfyQG+G9vRgx2G/HPL9fCNKQGttKd+PpHmyX93CpQpWZ1v8PvbI5GMb4aBAuJZEitKA/VGJ4RmifmUMA0OkXzGaC29g4Yec9/MM8nM1OX5KDH5D9NO1KGIjUCUt69IDS1yGG4kI7t7LtWnuLNeNfJgeDi7ItV1glMPSimNVUKgoiC355BCjx4ye4n0pipNMiITOyZi2IR1YofNvrgwzU/4q+MEEgpfMBI4f9z34i/em7BB74G+HDdCqyziINT5gBWWMYhK3PpuzR1sKviFo/5XRnmamefmluu9pjZzMx7cf00qHahuvPOZRSgpFyN9LzZZ11UoCrnvtHpPOqu7lyzmVPomzMDdUUOVNnr9WMpGcnKLxURybm8xkXrHK0ZVCgoq+EV4Pnix9fONx+zDtAgzvNHIIfmpmasWG0KPf8ynvegUAwzCGGmzSAKlWpw5M9XkAUniPTdsIpt4y7GB25b8FemFIgU/st9E1MO+vib3QZ88p/VMA+tg15ABaxtNF9LkZJbxZNNKEi3kCItBaXV0Pee/5WBEqmUh6qFpglWtMI2M+/38pOyIevkc8tjGuCLSg/3SocZG6Q08HyjMhgRZPL6BjZ+KbyPKM3Tqz1uDqMZm4raN5fe0xU50H9A3fGvm6pfKo1LE+8UGLItL/3PyGCTZHHl5OjcNZo0wPkjkAOBuk598a0RjMPqeb6BQiEoSUI5+F8nBa4glAFL1XM4QTA3wTyyGf/86if8H5cN+C/PTfj/PTYzkmDEoLeauRM/Qc8jF8bhjVi1znxBn9ch6LXvlboTBaUiMaNozg5FtAyZKlJrkpugN48SYJLIhV1pyM1QLdHnV2oa9EweK087K+yDdFPHYiFGnyEhfX5yWlfk4ByyuJWU2jCXUA1Xw/5RyIFQWFCEz742ghG7oqsyJym2oHIlVOTwiiDY/Sq18OoxdpvIYaVhED5Yuwr/y2Mj/uayCR84bMAHK7/HstV2MItoZMTQwFvhKV9aYxi9YVktzwnwzoK+ZyqokhI1x9U4DZYZrWmIk83vj08NbNWdYyGWlPnmgi1mvm9/QJD5xcz/P6srcjDWsOaFts1QsoBx+0ciB0JRYTG+Wm6EDZ75PDHpV5WgUAa0/Q0ZKO9/tZ+2Ez9Zx+HD5Svxgdk6fPzNanz6nR7+/Z0hVhuF8Ods9C7G2vULJwaCLtqeqTO6Qitf8o3wj11Y0yF1Rp3NlKedE5r20dS2uYZp9n/VFTnM7Iy+1EYxIOXb0Ax/NHIgFBUWQU/PFistImGbuJWrCE4OzEgpcMLgBKG8rTR63gbHFPz938vx1/Xf4+Mvf4QhIxnrxG2cUKzY9huDYHh6BizqM6oLPunCLDUoFaeCsa+Wis4wN0N5yjeCgmBqz6FDIxeI8i6Ub2He0AU5UA/YxVdwWpgZ+WRA3rF1Yf/nPyI51NfXY+eOPnz2j1X4+At9bHDNgE3yNq4kSBnMdDMUpEFxhl0w9C/DR3//Dh9//iOWb3Bn++U889GKEcxqh1Ss+skSNTXzr4w8G1JytVcUVZ1RZJ+mDJUvpzGM2R9G3Xk1tdaObfN+D9RBneIu6s6jTaNBaO2fBgqcKl9aI+iCHCobO9Ueq0ujLl8UyFW+hYXhj0gOBH+fOHj6JsLcUoKP/rYcn3xpgFWW0TAMroZtcjefsnSU9cIxo5cHMB0y9sAyml3RPXJgFSPnroZ+UDW+MwrD2o02Wl1pWdOyDcZ+2peRFHG38ktDUcXC8xBUcA1NxxaKe6h5nTcZxUasAhfWoYtKxPH2dGrOuxgjwjRkpLfYTtO6ciuKq5rgEiKDgTf7/AuYbZm3+eSCOmk1trQv/v9sHaKZbxyVPv+y4rpCWUkjrK38kVXaDGlBHXyDUmBq5oWf1lniy682caL4z4/O+M44DCutEvgy61W2iVhlFYMVpqFYtdkFRmauiIiIQ3u7+pRjbaC0qh48Sq3h6srXjaY0A2K13y6P3B/nkHTeMkDd66qM/sw0J2/qI0WohsVhZ0NgXA5vG6/JorDXjdYUUOCXOoTVzbLoTFM4RWj2fgKSNCej1rYO5vLkw8KXEdEianhwI3eF/b+oynm8hi0L/nTw846FpXUAkrKqkFHSBFlRA2SFdUiQlSMkKguGhm7w9gjk7kF7uxbYU0vIK61FYHwOv3pQYRcTdoWi+Wtals0HCNsasD86ze9TurNXZAYiUwpQVj3PSsGLRGtbF3JLqpGQUYxoaRFSc8pALf2oh4LyKToDvZZbWAb7g6eCovp8laHye6EZFlo4ZqisbE6BUA+mXmNlf56B0Naxlf3ODUjPL+dd6/3ZhYDyOuizWvimgWplUFYlfT90H/2HKLicsdAemH9GWJhK4MNUQmpBLTKKGxEQJoOFlS+srT0RHhaHyoq52+sJCAj8ydDa1AVDAw/4sytGenET0vJqOClERSYIMhAQeF8hb9kGI0YMsanFjBgaEZ6QDzNTN8jlbYIYBATeZxgZeiIqqQjpJU2IZMRgZ+MlSEFA4H2HtYUvwuJyeeAxOrkQ1paadZoSEBD4k6GjowORYVK4ecdBWtiA5JwqmJq4C2IQEBD4y19MTSRIzatBOiMHF/dolJS8eZ2/gIDAnxweLhHcncgua0GstBRO9ovvMCUgIPAHh7ylCxaW/sguaWaqoR6SwBRUVYr8BQGB9x6JTDH4Bqfy1OiCqjbY2y9uhaSAgMCfBA62QTw1Ore8hROEvZ1EkIOAgMBf/mJh4ctToynekFfRCgcHEW8QEHjv0VjXDgfnCORXyjkxZDPlYGMjlIOAwHuP8OAUXqMhV0kMFHNwco0Q5CAg8L7DixFBQEjaK9VQUtuJyLg8xMUkv1WCqK6uRnl5OWjb1ibWdAgILDmCfOMgCUjmgcji6g6U1nXxraXF0rS9fx2VlZXw9vZGmlSGtDQp1q5Zg/Xr1yMgIAD5+fmCJAQElgrlpfWKbEimGMjKG7aivm0nImKyER+bsmSDsb29DUkpyQgKDsa+oYM4cGgY7m7ucPPwQoO8E9t29CI+IRkSiQ9KShbe51FAQEAD2NsHo7imE5WN21An70FzZy/q5TthZxuI+roGnQzE1tY2ZGcVo6ysHFVV1QgOjGAqQQ/StHyUltTAxsYBdg4u2D14CIeOTuDw0XEcPTmFPYP7ER4ZhdDQUDQ06Oa9CQgIMLS3dcDW2h95FS2obtmO2tYetGztQ3fvEMqq5LC38dX6AGxra0d4SCrMjDyhv9kZLk5hCApIQmhIGgL8EuHlEc3ekx8MtjjDyTEItQ0dGDk2gTFGDidPn8eZ85dApcc9vbxQWLi45qgCAgJzgGpEpmRWoIK5FFXN3WjdugddO/diZ/9BpKYVw0+ivdmLuro6lBTXwIcRQES4DPFxOThy7BROTp7HsYkzXB2MnjiNw6MnsWPnPqRJS2Bi5IGgwAQMHRrD2enLmDp3CVdv3Mb4qUlEMhWRlLS4JrQCAgKzIC+7DBL/JFS1dHNyaOrYBfm2PdjeN4Q9+0cRFZWJ8NDFlYcrKixDfk4ZaqvlsLH0w7HjpzF9+ToG9w/jHBvwk+cu4tSZCxhnyuA4IwlSCdzGp9C/bwSREekwN/ZEz85BXLh0DecvXcXN2/dwi1lGRiYSE0X5OgEBraO5uQVWbMCW1XWhomkbGtp3omP7ALbt2ofegcPo2zeM4OAURIYlznsANja2oIWdt6KiAmXFjdi7ZwLTF66jsrwRrsyNuMiI4frN27hx6w6uXLuJy1dv8PvOX7zK3YbTZ6Y5UZw4dYbZWW5lzPUx1ndD9449nBjo+Dv3HuDho0dcPRQVvedlwgUEdAGKAUTG5qJW3oOGtp1MOfRzcujZc4CphxH07T2M0OA0BAfGvXEAJsXnwtEmAE62gYxQUlBZ2IfRgadoqu2DhYknsjLK2eC+y+32nfvcaLDfuHWXD/ir12/h0hUiiivchVApCiKM+oYumBi4YYC9nzv37uPRoye4/+AhurZ2w8nJDZkZOcjNKURKcgYy0rXT70FA4L1Ga0u7Qj3UdqKSqYealu1o364giB3Mvdg9eBi9e4cRG5cLN8dgVFerb2FXV9MAb7dIVJU3Iy46C+tWWmHzGmeYbPaFwUZnpMtKMD1NLoGCHO7cvY977Op//+EjbvfuM2P7t+4olMEVpijIhTh7QRFrOMO2JSVNcHMOxdFj4ygrrYWtlRcM9Zzh6R6F+IQ8JCQXMitAcLiMBzZrahbfrUpA4L1GBHMdaOk25TtUt3TzfIeOHQPo3r0fuwYO8fjD4IGjKK1shaN9MKLCk1FX++vAowSm7MxSGOu5MQIJwYYfbRERJkNDQye2dvfhyNg4rjBVcJm5Eddu3OJK4TYjh7v3H+DBo8d49PgJHj/5GT8/fcrsGZ78/BR3GVGo1ATFKMhOMRVhx5TJ2lUW8HALR019B49LNDN3KD27EslpxWjp2I2tu4dQwlwRM2Mv5t5UC4IQEFgoGhua+ECS5tTwnIfqJgVBdPYMYhsjCFX8YfDgGLt9COlZFXB3jYSHcxj8fSIREpgAKlBbUFiHsopm7gKcYq4AxRHIReCBRHb7InMZrlxlBHFdEXMggrh/7yGPHTx+8hQPHjxCLymWHf14+uw5cxsecbfjyrVb2M7UjI93HJ/67NrWh5Onz6GpdQcCA5PgwAgrNiYX8XF5TDEEID6pAD39h5CWXQVLUwkjqUZBEAICC0VZSTWMjbyQUVjPU6nL2AAnguDTm2zA0vQmxR+IJAaYitjLjKY7Lc0lPGhZXdeBE2zAnjx1DsdPneXbcbZ/+swFTJ6dxhnmGhBRkAKguMKV6zf5jMPd+w+5kVq4fuM2YiIzkJyQy92O+w8f8/jCBXYcuSXt7T38fC2MFLw9Y5g7EY2Kqg4cGJ7AxNRljE9ewrae/Yy4IuDHSKNOvhNBEelsPxxyuVwQhIDAQpEhy4OJiTdSc2tQVNPBZzEoDtHS1cvdjO29+9Gz5yD6949g76ExLumLSpvQO3gYo8dP4fCRcQwfHef5CjQdSVOTJxlRnJq6wIOLNG159sIlXJi+ymMKE+On0drajTb5dnRv78M9phQaGMkcOHCEuRX3ubK4+SpYeRuXmepITy/F5vWOiI3Owdj4BW6jx85ghBltx09fwpFjU0xF5MLVJRwN8h54SOIQFvJ2F5QJCPzhkZNdBH09N4QxiZ5R3MQJgoKUlAPRvLUX23btx05GEL2DTEEcPIKhkePYf3gM+xhZHBo9wY1Snimz8ejx0zh6YpJPR44zJTExeZ5d4RWZjifHJxGaUoOoznPYOXIeddUtOH5yEteYeiBTxRvIpbh8TTHdeW76CsbY+Wpq2hEXm8dci4ts/xyOnTzPyIhtx89zgjg2cYG95gXkMJKzsfZHdmEDPLxjEReXLghCQGAxqKyohp21H2zsQ3mvTFIRFIuoadnB12AQUahcjV0Dh9E/NMrcjF8J4gAjjIMjJxQq4tgpThDHxqc4SZC7QUpiYOAATGPl0Ms/CmklIx7mKkyevcBdjumL117FKcgoWYoIZZK5JufYY03N3QgNlnJyIEIgYhhmpHCUben2UUYYZOPs8crqDh7ETM+thoNTKLIyCgRBCAgsFonxMpgaecHLLwmJmZWcJCjVmkiCciJat/YxktjL3I0hThIDnCSOYu/Bo1xNDB0+xoni0JGTXEkQURBJkJELEp9ZD39pM/KruzFy9CQngKmzF7lRnIKMchxOMbVB+Q5ELLRfVdWGqIgsnJiY5iQwxgiC3Iojx89yU+3TYycnL6GppYcTRFxiPlcSVVWiwraAwKLR0tLKBmISJwl7p3AkZZTz0nKldVtRya7gpCQa2yl56tfA5a7+Q5woBg4cwSAzriRGT3IjkhgZI5djkrsdRArHmItBsYnjRBwnmcKYOMNuM/eA3SYiofgFqQ8iF4pjJCXnIy+3DuNTl9njF3CcuRDkRpByICXBbYIRyuRF/hgFKnt2DcHJIQR+vol8S9mhyo8oICCwWGTIcuFkHwBLCz+4esUiPq0EeeUtfGajhl2dmzp285WdlECVyWR8aWULT6CiXAmaDiXCILIgl4NcECKNoeFjjDROcOKgRVekKA7NMBWpHGDHcBs+zqdRu3v24dSZy9x1III4yYhgYuoSIwxmp6YZWZBd4PedZs87c+E69gyMwM01AuYm3owkYgU5CAhoG9SSX5qaCTfnYJgZe8PRMYyXnEvLqkQBIwtaAh6XlA8n5uPTVGjnjkF09ezlKz537DnAyYLcEApqEmn071eoDJoiHRg6othnREKxDErhpv1+dv/eg2Ooa9oGd+cIRgA0A3JJMfjPXsYpZqQQaP8UUxRTZ69w8qD9SbadZI9Psvv2DY3B2zMWa1dZIS1VpFkLCOgEVHRFyiT+t/8xxOrl5ljxrSnWrLSG/hZXGBt6YuW3ZggITkFRlRx1rQr3g8iC1m907hjgSVbkimwl0ug7wGdCaE0H1ZTo3j3EV4fS1CmlcauCnxJJHCrK5Tg7fR2T564oiIEN/im2nTp/lRMBEQNt6TlnL1zDGXY/qQd6/Dy7b+ToaXh5xvD3W12lPh1cQEBgkWhjKsJwkwvWfm+JFd+YYu0KSxgbecLVIwahUVmwtQ+GkaEHwmOymaLYgfJGqh2xnasLSlKiIjON7bvQ3Mlckq49aOrq5QSiUhxEIJRjsY2RRV5hPdycwpkyuIgLl27wgX9uWmGK29dx4SJNeV7HmXM0y6HYP8NI5AK7Tfv0vPPs2OPj53giFa32JCWk/DgCAgLahIWxF7ZsdIE/cy0iEwuRXlCPjKJGZJW2IKesBcnZ1bzCNQUyS5TJVSU1ndxo9oOIQkUYRBaUmUnLxymvgkiDlEY1cycsTX2wo2cfrt64i4tXbnKCmL58c8btG5wE+O0Zj9GWSIK2l67eYvdR/sQdTExOw90tEsEBb15xKiAgsABUVtSC2vjHZ1bwNv4puTW8pT9v61/UgMySJmQVN3GCICuqbudEwWc9artQWN3G8yjK6okoFOqCtkQWRBSkMBzsQ1DISOfazXu4fPU2H+RXr93GZWaXaLCz+4gIaEuP02P0nCv0HOV9RAr0fHrO1et3cIXZ5JlLvM6EXN4uCEJAQBdIl+XD3NIPMjaApQV1nCBSGDkk51RDVlgHWX4dMhhxZDJFQYSRzQgjh5QFM2qsQwqjtLaTEwdtyUhVkMpwcYlAQmwuH9g0qMmuMfVw5bpy/4ZioNN9ikFPGZaUdn2XkQndx5534zZuMGK5zk1xP+3fvf8YRex9FRaIytYCAjpDfLQMFlYBXDEQQSRlVyEtv/bVPhFCEiMLIoe0/BpOFKQo+JZUBXucmuzklLdwkiAXxMkpHNFh6Uwd3MTtuw9x684D3Lx9nw9sspu3qGCMYp9u0/bWnfu4RffPeIw/zm7fvKW4rdp/8OhndHX0QibLEeQgIKBLxEamwczCl5MBuRhEDsk5CnIg5UAEkF5YrySIWkYMDVxt0HOzipmqYNuc8lamNGphbRPIFcMV5h7ce0ArNB/iNiMHslt3H/D9mXab3Xf33qPf7JPdY/fdfXWfYkEXlZm7e/8Rnjx9hhpGRDnZopq1gIDOkZaSA0NDT0QlFULKBjuPQ1D8gZEAqQhyOcjVINVAREHkQPcTWVAgMyqxAJvWOyEjvZQN7Ifs6v6ED2QiCG5ssN9j7gARgWL78NV9queQu6Awup+qTSlvs8fuM3vIFANtm5u2wdU5RBCDgMBSobSkAtYWPnB0i0RSViVkbNCnMUJQuRkUiyDSIDKggCURBD3P2TUKa2ha9HtzlJY04umzl2wgP8EjNphp+/ARDewneMAGO5EGGd9Xbul5M+3xq+PoMbZ9/DMvJHP9xi0kJ+aJmQoBgbeFxAQZrzJl5xjGFEEh4tPLOTnQcvAERgZUOyIsLhcOTmFYs9IKG9fZw8s/Gd4haXCwC+IFYRSl457h8c9PecWon9mWjArE0P6TJ4rHFfex56n2nyr2Z9qLl79gfHwKXoy0EuOlogiMgMDbRmpKOpwdgrF2lQ3PnjQx9sbmDU5Yt9qGZ1fqb3KBq1cMopKLEZVWijBGJHpbXDE1dR4Euto/YzZz+/TZMzx7qrqteuwF2754bfscz1+85OcZ2HMQehudsfYHcwT6haOpqUmQg4DA20RLSwsiQ1Ogv8UFpibefE2GLVMG7pI4BEZlIi69AgmZVYhlyiIhsxLRjCA2/uSAvOwKXLt2kw/sFy9f4uUbjJ7z6/N+4UagbVvrdk4M1E1L3tmLgIBEWBq6oapSFKEVEHirsDH1RkBUFiOACj6DESMrRzwjgsSsKk4IsWw/RlrGiKIcUakl8A2TwcTUh/fWHB4+xgf5QnD/3n1I04r4aswmeQ+Gho/z4jRUMLe0rAmGGxyQnSna/AsIvBW0t7XDWM+VEUAZwsl1SC1VkAHbJ9VApEBqISm7mt8m14IIhAKVPoEpcLANxIMHD5XDff44cfwUXBxD4OsTjz17hzF8dIIvGVctBx8em0BX9x6YG3kgLSlTEISAwFKjob6RuxREAJFMFYQlFSMoPg/xGcyFkJZykiDiiM+o4DkRRAo0i0HTn6QuLCx80dTQqRzybwa5Fa3N2/jCqgJ2Pqo9qSoaM/M22fGJs+jfNwxbSx8kJ8gEQQgILCVqquv46sxopgpU7gORAbkTZNL8Wp7/QGSQU0LZks08aYrSqrNKmxGbUgQLEy9cv3pDOfxnx/mzFxEZJoWNlR927NyLqbOXeJm58cnzvH4llbenati8KjYzKnxL+0PMzbBkr5GTJVwMAYElQ0lxGUzNJDzeQMQQwVwLii2QckjLr1NkVDJiUGVKUhwig+0XVrUht7SFL8qi6U5ZaqGSAn6PGzduobKimXflzsgo46pA1bqftlSolsriqwrX8tvTVzCz5d4gUxBGm5xRU1MnCEJAYClAV2MTRg7hKcVcMZBRXIFmJ4gUyI0gtUCuBCkG7lYUNfL1FaQe6P7Khi6YMvWRm12B/j1DGBk+hr0Dh1BT2cKVAnXdCvBLQP/gYVDzHBUJTF+6zsvbU7ctKnfPF2LR4qwbii0vf88UyfSla+x5t3gfDRszT0EOAgJLAVlaFl+1ScFHIgRSD2l5tYqUaUYGFIhMZfu08IrqPBAx0JLt3PIWVDRtQ1VzNyqbt6OmsQsBgcnwcI/iboOXRzTiYnNQ19CJvUOjTB0o2u/xVv988N/ifTCorR416aUOWjON0rOp2zf176QWffR8ap4THSFDQlyqIAgBAV0jNSkDVjaBiGHEQERAcQdyK14tyCpt5kRAt3PZ7Qb5Tr7f2Lmbt+ejxjp0e/feYV4VimpOjiirUY9Pncepc9OcGEgxkAqgpji8Y9aMlnuUcv34kaJpL5mqgS+lVT94SAu2GGGwY24xowY7lkyltLa0CoIQENAlUhLTYe8UxmcepPl1iMuoYO6EYlEWJ4jiRpTXd3HFQCqBemNQG756ZSk5KgBDNSbbt/fztnxUpJZ31DpODXMmeUBx6vwlHj+ghr2kAogQ7jGjwf+Y1lQ8fYrnz18oE6Re8tvPnz9n9ytSrx9Rx2/2XN7glxFJUX4NIkMTBDkICOgSNEVIi7Ao+EhTmZTDQGssyI0gtUCBR1rOTRWhiCCIHKhClKIV327eOKdj+wAvMrufN8s5wXtdnDytaLFH3bQo4EjKgVwKWpNBSoDUAbX5JwKgzMlfflFkTBLo9vMXRBAv+OPPGFGQkqDFXaQyzp69CBsTL0EOAgK6RHJCOtx94rlSoBWZNG1ZUtvJSYEKu6iKvhAhkIoorevk5eGotmRbdz9PWCJioKrUlMBEPS+OMOXApySZkYIgciBioODj7Tv3eAt/au/PFcMLphZmEIMKRBAqFfGM2ZMnTzkx3L/HFAcjikxpMSheovwYAgIC2kZSvBTeAcl8NSbVcKBAJBED1ZGsbNjKbxcykqCZC+pxQWXiitm+opHvDk4QVKr+4Og4jzeo2upRFyyahqSkpnPMpaB4A3XoJrfi/sNHXAnQoFetsVAHIocXjDy4e8FMsSycEQQjiVGmUFzs/AQ5CAjoCvHRKfAJSuEzEhSQpApQlM+QXyHnwUhSEaQeSC1QnKGgSs6NenJWN3dj34Ex9PQf5E1vqIs3kcKRE5OcGCgoSdvL16jA7A0+80AuBSkAGvCqFZmzQaUeXjAXgy/zVqoHcklusnN5OoeiRbTPExDQDaIjEuHln4Q0pgx4FmRZC89ryK9s5XEHVc1IIgYKSNa29KCxYxd3M6hvBd1PjW2omS7FF6iFHq2LoH1qwEsuBU1DkmKgGQqq/vSQKQdSAnOpBg4lOdBScF4TgpEDzWrw2Q12OzujFBmixqSAgG4QGRaPNWs3IyqlkBMDzVCoiKGycSuKGTHQbEUBcy9o6pL6VhAp0CwF3U/xBuqzSaqBYg5Hjis6dlPqM7kSlOx06aoiGHn3HtWNfMBnKCjIODMIqQ70OAUrVTUhFBWjnnD1QeTQ0zMAf+9wQQ4CArpAdEQSfvxRHxY2DkjMquQ5DJQiTVtKjSbCKKfYA1MQNGNBhFDO7qc4A8Ub9uwb4VOYisa7J5lbMcGb8RI50NTl+YtXeAbkJUYUNFNBMQNSATQb8SZymBmQJLeC1AYFM+8xo7jDOHNbXOwCBTkICOgCUWGJ8PRNhIWtE5zc/SDNr+cLqnjvCkYMiiY3rbwdHqkGcikoz6G2dQd3Oah79zBTDaQWhscU6oFiDeRWEDFMX7zGU6EpG5ICkhSMpJgBDfq5uEEVb3jlUjBTBSRVeRLXmLvi5hCMjo5OQRACAtpGVHgiAsNkSC+shYGROfxC45Fd1soDkZRGTQ1siBwoZZqMiIHiDap2eJTnQM13qRM3temneAMlPNGCKprG5G4FUxA3b1Ma9F1+5aeBriAH9eygcic4MTC1MDPHgUrX05YCkpRiHeQbh5pq0XRXQEDriI1KgSQwBTnlcsQmZ8HU0pbnNVD/ClINFGsggqhs2sYb69a27OCxCHI5qAM3xRwoK5K6cNNqS1IOJ0+fw+iJ05wYFEHJKzxtmtZQ0CAn5UAD/3VyoL2XSsVA5EGuBMUY6BhVbgQpBnJPiGioSU5acr7oiiUgoAvERafCXRIPaSH1pciCubU9JwcKSJJiqGrcxqc0KSOSFlpR3IFmLZo7e/ksBnXc7h0c5klQ+w6PoX9o9FXMgTIkJ89e5CRx+SplR7KrPRvcpBxoKpNIQAWaueBqgWIMFIBkj1OSlMqNoLUVFMwkxUAuyrVr5KY8RElxPVKTMwQ5CAhoG4nxMvgGpSA+swohMVJY2jpyl4KmNfnKS6YaKPGJkp6IMIqrO7iaoNRpynWgmENXzyB29h/iC6/27B/huQ6T5y7ygi1UyIVmKoggaFCTW0CzDqQKCJNTU7h16xYnCpqRIOLgU5bMlVARyS1qlcdIgdQHJ4frt/n5rt+8g6qKFoQHxwpyEBDQNih92sUrFsm5tQhmKsLU3BbZZS08U5JmLYgQiBxouTYRBKmJLKYkqI5D69Y9jBx6Id+2hyuIvn3D2M9UA01nkntBJHFi4iwPTtJybUqGUi28IoLYvWs36urqGQk8ULgQTCXQNCc9pnAjFDGG67duc3KgWQ+aDiW3gmo8UCyjva0HoQExghwEBLQNWnjl6ZuAtIIGuPtFw8zaQUEM2VU8M5JmLJKzq/lUZlVTt0I9MHdCVQWqrKGLByq37tyLnj0H0bt3GH3MBg8exf7hYzx9evLsJVy4eJ0Xb6ECL2fOnkdBYRHiExLRPzCAc+cucIVAhEDEQHkMRCBEAhSnIELgroSy/gPNgNB5qN7DDqZagnyjBDkICGgbRA72zhFcOXj4R8PCxokv3+b9MplrQSszac0FKQciCiIJikFQsJKv1mzaxt2LemY0c6EKUA4cGOPqoXfgAOQdjFQKihAcEgYnZxcYGRtj7dq1sLCwgJWVNbq39/C8BR5XYARB22vKug+cEJjaIJVARWIouKmqD3GBkcSuXfvg7RYqyEFAQNtITpDC1jEMcRlV8A6KY8rBkec6UH8KKi5LBKEqEVdWt5XHICi9moiBCtBS1mR5rRwhUUlo2z7IiGEY23YNoaSiDvZOLli9Zg2++eYbWFrbICVVhtS0dKRnZmNk9BhzNyaZCrjKYxJEAuRy0AwEqQZyISjGwBOoGDGQ6rjIyICeQ0HOKWZUW7J3zwE4iwVYAgLaR0oiUw5OYYiSlsFFEg4reze+AEtRFaqMKwhF0RfF0m0iCQpIEmHQNo8piOCoZB7ITM4sQlh0Itw8/fDVV19hDSOGsrIyGBgYwNjYFH4BQaiorIUsPQt9g/t41iQlStGA5+Rw847C9WCEoSIFuv/chSs8uEnTomeZ0f1HT0zh9JlpbNsxAHtLiSAHAQFtIzUpHXaOoYiWVXByMLZ0ZsRQg4iUYmXX7RpOFEQQRA7SglokZVW9qiuZV9kG/+AorF69GoFBwaiqqkZLqxxJycnYsGEjNm/ezLYbUFZSguLiImzZtAU7ewfZ42nYf3BE4SJcusa3FFugWQiKKRBp0HQokQMRApEFFZAhYhgZm1CUrWeEsZu5Mo7WQjkICGgdVCbOziEESTm1cPAIhpWDB1MR5UjMrOJl6qnoLM1aEFHwSlG5NbwgDBEFxSn8wpNgYmqB5tYOHge4e49qNSi6Zp8+PQlHRydODtPT0+jr64OpmSX2HTiKwaFhbjSTQfkQ5CaQURCSellQTwuqKEUuBMUgiAjoNhWSoe04O25sfIoRzX442/gLchAQ0Dao1ZyldQDiGBm4+4bDgpFDYEAyXK184WLhAy+XMN47k7pfUS8LKltP3a+oRH1USgH0DYzRwIjh5CRVfpp+tZaCUptfvgBu3rwFW1tb6OvrY/369ey1bLF9Ny3UOoFDoye5GqA0a1IC46fO83UZdJvup30iAVoKTi4F3U+Pn6LkKvZatH9o5DicBDkICGgX1GHbzswbzl4xiM+shqNHAEzMHWGv5w7ztXaw2OgEi3X2cLELRlhCPg9AhicWcQVBZmrjgui4ZAyNnOQrMo+dpIF9gbsGRBCUwUhJkKOjR7Bs2TL4+vpCKpUihh3Tt3cUew+N8VWdVByGCIIyLUk1UCxh6PBxrhAoT4LWbBAR0AKvU1PTfCn4Qfaax8fPYHTsFFztgyCXtwmCEBDQFpLiZTAw8lIoA6YI9Iws4OwWjOAQKcLi8hGZVITguFy4uUYhLCaHt8wjUghNLkJQTCZTDSaol+/Abjao+dTlyDjGjk/x2pHTlNegJIinT58jLCwcRkZGCPDzQ2JaFj+GyGDvwTH07x/lhWmpmS7FEw6y20Qwh0fH+T65FPQY1YwgQqDq1sdOKmpGUKq2q30wKsorBTkICGgD7e0dMFhvC0fXEMSxQe8eGI/N+saMJEo4CVBAkgiDpjQTmMtB/SyIGOj+qLQyuPlEwMnNG23dA7y2JC3Covb5VEuSEp8m2IBWKYiHj5+hs2sr9AxNEJ2Qjsa2Hr4Wg46j3AhSD5R+TVtyNYYOH+OkQS35iQD2s9t03iPHTr9SEkQWqtJ0ifG5iIsSjW4EBLSCstJy2Bg7ICEyAQ6OgTBnLoKdK7uqZ1XzACRtIxgZ0MwEkQR1wiKFQZ2xiBzMrJ0RGp2E2tadfLVmJxvoNMAHho7ygUxTjXTFPz99FTdv3cfwyBHYObqgsaOXP5/WZmzduY9b78AwJxcqbU9qgkrNHWDEQARBKoLcCbpNz+vfzwiBkQO9FicRRkgd3XtgZuCOTFkeOjo6BEkICCwGsWFx2D+wH48fP4arnQdWrFwHV0kkwhPyERyfBxfPSOZa5PAFWaoO3KQaaEvTmKYW9ohOykJJLaVP73g12CmFmmo7HGAD/ChzMejKT6nTE6fOwN7BGWV1nbwOJa3qJKOEqW6mHogc6FhyN4gYaJ8WcdHt3QOHGemMclVBZKBSKeSOFBTVo6W9B03yHjjYBsLFzh+pyemorKji6zYKC4oRHhID4y32WL3MUBCHgMCb4OfmjxPHTuDsmXNMQdjC4CcjxITHw8nWExYmjkiKSYabvTecPcLhE5SM0MRChCQWcNciVlYBI1MbRh4ZyK2Qo6i6gy/lpmpR7dsH+FW9n0l+GsyKmYgLOHZyEnaMHAqr5HwZuIJQFFWlaGUnLdwictnee0CxDHyvYhl4DyMCUhNkRBKUgUkEUlTaBHsrP7jYBsDWTAIP1wjIMsohTS9FgH8SXJ3D4OQQDEf7YPy0ygr6P9mhvrZRkIOAwJtgtMEa65ZvxoYf9PDj1+uwa/su/PLyJdqa5PBy9MbLFy9QkleKMP9wFGQXwcU9FOHJxQhLKkJ4SgmMzWzhG5qIjKJGnk5N2ZJEEI1MQXSwwU3l6geZgqBZDIpB9O89CEsbB04OpUxtUC3K6ubtaGAuBimI1q4+RhR96Nq1j6/NUG1VioLIghZ3FRY3wM0xhJGYP4qLykAzLu3t7SgpKoW/TxgjDC/YWEhgZ+0Pa0YaNM2ZGCdDW1u7IAYBgfmgubEF2Zl5SIpPhR5TDRMnxnl9hf6+AUQzGU6oraiDnJEFFXuMi0iCX0Q6dy3iMiphaecOZ68QpDAXg1ZwKsrZy/n6CxrwpCDoyk9Bw5Fjp1FV2wQrOxf2nDa+iEtFEKQiqOcmLf+msnNUtJaqW7d3D3AlQeSwjZFCbl4NrEwlcLTxRVFBqRjoAgJLAXtLJ9ia2KGFEUFVWTWkCTJODqX5peju6ua3q8tq4ROcrGzVXwFXSThfpJWQVcVXcVKaNa23UFWpphgEEQQN7sGDxxAYFArvwGjkMTeE0q6Lqjo4QdBCLmqOQ92zKBbBj2PEQCRRzc4THZMNC2NPeDgFoaS4TJCCgMBSI12aBVM9Kyz/fAWsDW2wvWs74sLjsat7FyeH9qZ2HnuITCvjbkVwfA426hkhJCEXSTnVXFHQLAet1qQCtLRak5Zxd+3cj5rGdhgYmiBWWoKMwka+mIuqTFGrPaosxRUEczHq2PNrGEFkMZXg6R7FZyBC/GNRXVUjSEFA4G2jvKwSAT4hWPf9Jnz72ffQX2eAmNBo+Hr4MTciHL6RUvhHpsHRMxjfLv8Bti7enDCodT/NZNBaDGrKS0HK8gYKPG6DpY09nJgLksTUBRGILL+Ol77PLaeOWh0oZm5GRn4tAoNTYWboATsLb6SmZKK1VS5IQUDgXQMF8CjgFxYSBRNDK6xe/hO++2Y1vv1mBb756gesWb0JtpauWP7tSrhIqB5EJTdyOVLYlT+jpJmphBpY2TrA0t6DuyOUTEX5E7T8mxZvxaYUwScgEWbGXrAwckdYUCyqhEoQEPhjQy6X8yt7eFAcvvjsWxhb2cMnNBH+0enwDUuGo7sf1q7bBCtr5hrE5SIgMhPuPglwcY+GhYUPjLa4wtbCE1Fh8agsrxaEICDwZwSt0Vj13SZ8/eUP+OGHNUxZrMAP366DuaEzrE2YKjB2h72VN+9rGR+TjNKSclD6tvJwAQGBPzuo47WnawBSkjLQ1NgsBr+AgICAgICAgICAgICAgICAgICAgIDA7/GXv/w/ufUvbNMpEB0AAAAASUVORK5CYII=;" vertex="1" parent="1">
          <mxGeometry x="628.9300000000001" y="1309.85" width="76.61" height="45.15" as="geometry" />
        </mxCell>
        <mxCell id="SolYquduVEcN4SEWnmSy-5" value="" style="shape=curlyBracket;whiteSpace=wrap;html=1;rounded=1;labelPosition=left;verticalLabelPosition=middle;align=right;verticalAlign=middle;rotation=-90;size=0.5;" vertex="1" parent="1">
          <mxGeometry x="651.79" y="1319" width="20" height="130" as="geometry" />
        </mxCell>
        <mxCell id="SolYquduVEcN4SEWnmSy-6" value="DB cluster" style="text;html=1;align=center;verticalAlign=middle;whiteSpace=wrap;rounded=0;" vertex="1" parent="1">
          <mxGeometry x="613.04" y="1401.5" width="97.5" height="25" as="geometry" />
        </mxCell>
        <mxCell id="SolYquduVEcN4SEWnmSy-39" value="" style="shape=image;verticalLabelPosition=bottom;labelBackgroundColor=default;verticalAlign=top;aspect=fixed;imageAspect=0;image=data:image/png,iVBORw0KGgoAAAANSUhEUgAAAgAAAAIACAYAAAD0eNT6AAAkAUlEQVR42uzBgQAAAACAoP2pF6kCAAAAAAAAAAAAAAAAAAAAAAAAAAAAAAAAAAAAAAAAAAAAAAAAAAAAAAAAAAAAAAAAAAAAAAAAAAAAAAAAAAAAAAAAAAAAAAAAAAAAAAAAAAAAAAAAAAAAAAAAAAAAAAAAAAAAAAAAAAAAAAAAAAAAAAAAAAAAAAAAAAAAAAAAAAAAAAAAAAAAAAAAAAAAAAAAAAAAAAAAAAAAAAAAAAAAAAAAAAAAAAAAAAAAAAAAAAAAAAAAAAAAAAAAAAAAAAAAAAAAAAAAAAAAAAAAAAAAAAAAAAAAAAAAAAAAAAAAAAAAAAAAAAAAAAAAAAAAAAAAAAAAAAAAAAAAAAAAAAAAAAAAAAAAAAAAAAAAAAAAAAAAAAAAAAAAAAAAAAAAAAAAAABm796j7ajqO4B/eYgPoAKWh6JgEKmIYAsVWfVBkSAUidUKFvABGklpLWCqyxR8NBTRiGsV65PQptJosJn92ye5RikxQNomSoVoJNezf/vcG0CMQlCIIUAeJLnXdfdZarICuY+ZOed3Zr6ftb5/kbW4s2fPnHNmfvu3iYiIiIiIiIiIiIiIiIiIiIiIiIiIiIiIiIiIiIiIiIiIiIiIiIiIiIiIiIiIiIiIiIiIqJu+dv9zMG/VgVigL4UfOGqnZHHSyH9L/4aIiIiMy5r7QMLL4Zqnw8X3welMSJgD0W/B6/chOgiJv4bo8DjzCEQVEv8PTh2cfgESpsPHtyJrvpJfFIiIiDph5vCeaAwcC9GL4OJn4bQPogMQ3QrR4S5kO0RbkDAfXq+EhLORNQ8CERER5bBg5QEQnQIXroHT70J0PUSHjWcIov1w8ctw4XxkgweDiIiIdiNb81xkrdfDhRkQXQLRp4x+yI8n2+F1RXotkelJGB7eA0QTkQ3vhax5GDI9Hq55enoV5cNfw+u09GrKhRm7RMIHIfH9cPE8NOJZcPpnyOKkdK0REXWVH3wxJP4tRG+F6CajH+JFZhCiV6Ohx4BoR0uX7g1pvSI99ZJ4OVy8HhIWQvQeOF0L0e0Fz8XHIRrh9L8h+sX2/7P1F6lAloioDOkm58InIHo3RIeMflB3InelLz99cX9QvfT1Hwqn58DpVfD6zfQhL7rFzNz0ug4Sb4OE69KrrL74IhARTUQqjkuPKnW50Q/jbmYDRGdD4gmg6pl7z77tR/Z6JZw2IPFnRufhaGlB9Ea4+C7WthDR7s1e8Sz4eC7ajxi3Gb2pWctiZHoqqHdlzf3gw+RU99GuZdlsdK4VV9tCRDQiPS50YUYP/9KxkOUQncKiQfswsjw1a50M0U9C9M6aftltpiccC/tfAiKqIdd8AyQsrOkNsKzcmVZGkC2LVjwvVdaLzoPXXxmdO93qjXEHRC9ioyyiqhse3gOiU/huv/QsScu/qGvS0rk01+NciG4wOk8MJXXf/Ff4cCSIqEJGHntKfDdEf2Lz5lPJbIWL13PVQAel7pPhDIjOg+hGo/PCerZCVCDxT0FEPc6HyZC40ujNpg55EC68F1SeBYMvgwvXsI6l6MTvwIdTQEQ9xjVPh+j/27yx1DBOv82iq4JfZzl9cxpX0e1mz3s1sphPBIh6wcivIa+Z0RtJ3bM+rcumfAV9Ei+FaNPoOa5qhiDh68iaR4CIjEmVzjqzJi16ezteM8xbdSBozFItRXvfiYfNntd6ZCO8Xpv6JxCRAe0lTmuM3jCYp8998PF1oNE/+CVeAadrjZ7HesbpL1LjMCLqEh9eCIkLzN4kmNGyFV4vA+3qlsFnw+uH4XWd0XPHtCPce4Co09q/+h8xelNgxpcbUytmSsV9adtc0fuMnitm16xP2xgTUQda94ouNnojYCaeJbWvC/Ct10D0TqPnhxk9kjYSI6LipS1JRX9p9OJn8iciax6NuhnZgc/HWWxLXYE4XYtGPAtEVOT70DiL651rkFTs1jwOdSE6hQ18Kpch+DgrdWYkonzr+tnJr3Z5CI2BY1Fl2eDBkLDQ6PgzxWQRFqw8AEQ0AY14Fquga5uHK7uhkNNzuKyvNhms7DwmKq8SWq/kO9Ha52E0wqtQFVlzP4jONjrWTHl5DKJngojG1NHPGb2Qmc5nDbLW4eh1WfwjiPYbHWOm/GyDC38HInoGDX0B9+pnnib9yO59PnpVe13/40bHlulknH46PeEkoh34gaMg2jJ74TJdTrgFS5fujV4y8ve2V68M2RxTpivxegNXCBD9VtY6mZucMGPIjegVI02NRO8wOo5M93MTsuG9QFRrjXAGRJ80epEy1uLCB2BdFidBQjA7hoyRhPn8EkD1JeFsbt/LjDOb0Gi9GlZJ87Vc4seMPXEuXwdQ/aQOaLrZ5kXJGE8zrRaxxse3QnSj0TFj7OZLIKoNrxdCdKvRi5Hphfj4b7BE9AKIPmV2vBjb8XotiCrPh7fzw58pJvGdsED0Eu5TweRPvBREleWap/OdP1NgHkk99btJ9B+4zI8pKE+hEd8Eosrx4RQ2Q2FKyE3oFgnTjY4J06vxui51jSSqjJGqbdH1Zi86ppczBB8mo9NcfB9/+TMlJaIv7g+intcXX8T9zpmScz/m3rMvOkXiu/nOnyk5N4Oop/XF/SH6Y6MXGFOldKqK2ulfsYiV6Ui8TgNRT8qG94Lot8xeXEzVsglZ84iyW1azayXTwWyGNI8DUc+R8FWjFxVT3dyEsiwYfBlEf2n0uJnq5oeYveJZIOoZXqcZvZiYamc7fDgRRbu59YcQHTB6zEzV4+PHQdQTstbJbPHLdC1Ob0eBUsthH35g9niZOmQLMj0eRKY1Vh/Cin+m20kNp4oiepPZ42TqEx+WYXh4DxCZtHTp3tz/nDGSpSiC048YPT6mjvHhPSAyyelMsxcOU7/4+Drk0Yhv4nI/xlgeQnbv80Fkim+9hjuhMcayCBOVNY9gxT9jMk4/DSIzsuZ+rJBmTMaHEycwn/eB6N1mj4mpe56ADy9EJY0UOTQGjkWmJzElRlqvQFEkfN3ohWI96yG6GBKuS8smfTwtnZfG6kNSPcWODZX6+g9F1nxl+jdO/wYuXg/RJRDdYPTYjCTMx3iJfs7msTDM7/IlVM6ClQdA4m1GB7x68WFqEXv7mz0+e9nS/tAO09OH+czhPYvotpg2WvLhQ3B6O99Z55znjXAGe/xPOEOQsBpOXXpMneZkfFdakfF0P0J8eAtEL2nXDoU58GEZuyyOOVuwQF+KyhgpbJC40uhgVzFbcm85mTUPguhDRo/P0E1Rl8PrtPQFt2zzVh2YdqnzYZnR8ehGnoIPb8RossGDIfqg0WOwmA1w2geJl6eCy764fzErieIJ8GFqerLodZ3RY+9+nH4BlZA194HT280OdBXj4z8jL6//afb4up+NEL2xq328G3oMRP+FrwlSlmAU3LdiTOlP946s9fr0YV2y1AI3PZUJX4HXXxkdk27lCTT0BehpI+/8Jc41OsBVzQC+dv9zkIeEs40eW7fzJFz8bGoda0V6KqBXwelao2PWifbAH8Xu+PAeo3+7hfwEXv8p1WZ1Ubpn+TCVu4vulE+ip7lwjdGBrWqG0ju5vK1RRX9q9Pi6lW1w8cvImofBqmzNcyH69xD9udExLDKb2vVE8QpkrcOxG6miWvRRo8fRrTwJr/8BH06BRU7/nK+50muAtekJek/yYarZga1s4lzkJeFTNo+ta/nf9N6yV7SXbX6mYn0bhtCuIfocnL45fdkZK4kLjB5TN/IAJF6R6lV6gY/nQsJqo2PZkaQx6DmiZ1bsBtQLeTQVOuUh4eXc6Od3eQw+TO3Z/tztTZsGjY7tWLKm/StVL0xLJyfChfONHlunMwiJ7+/JX5PtGrKrILrF6NiWncXoKRJPYGFSF+L1YuQleqvZ4+tknH43dYvrdSP1AaJLzI7zztmQCvW8Xpb6JRSw8oirWPTn8HpxWk7a63w4ERKC0XEuM9uRxUnoGSz660YR1IeQl+gUo8fX6XfLl/fsr/5nqrSWMN/gWG+F6PcgenUpVecSPm90jnWoWFVnYu49+6JKUp1L+IrRMS8vLnwCPWPkcV1aq6zTmJIjegkyPb6QhjOiTbMXQEcSV6ZlfVWUzq+Jjo6t1OVMwttK3fRE4gm1bZrk9Nvwgy9GlUn4IES3mT0HxWcViErjwgeMTvwOJcxJy5CqbObwnumdeifHNa3tjv+Vail8OBJJB5Yee/0fm/Os1KxPPwrqQvTMWr1qHlmmSVTOY7X4M7MTv9xsSVXRdTFzeM+SnwRshdcVcDoztYPN2Q6ZhX9jzh1pOWTdtHcpXW/0nBQbHz8OosK5MMPspC83j6QWp3XTfh0wv9jleeG6MS/PK7tiXPReo/OtjAzBx1mVKPKbKNd8Q032GLgLREUaKRKq6b7o96W9EuoqFQbqolzL80QvSPU+lki83Oh8KyOPwcW/BKXOpTVYdr6991sDky1eP2x0spda7Ge6o19bp7783TXu5XlWfWPwD2r0ZfYhZM0/BiWJC+81eq4KTHwniIp691+/ddJxJb9F76Cv/1CI9u88RqkR1PKdluf1AtGrbc65wjMAP3AUaFdebzB6zgpK/HcQ8XEpP/wL/iJ4QVoJ4sMpvdktLm03/mub867QrEqvXegZNxSq9mZCYTWIiigEq1mx1EBqk0zVJPFjRuddkYnpiQ2Nuk12pZcH8j5GufnwdrMTvIS16OmmQNVUj0LWB1IfBWJtk9NzQJSL6B1mJ3ix2Zg2xaHqcvoRo3OvwE2+mkeDxrvKpd/o+cyZ8CkQTVgjvAqiQzYndwkbJFF1LV26d8WbWG2FD5NB45fpqRW9z90KogmT8FWjE7vQpOOkahN9h825V0xq1aWyBEY3wcqbNSCaaMV3Taqlf4RbBp8NqrZq9/y/GZRPo/XqCj4FGEo9L3a/6Uf4KJz+wugBMOPfNnV2IVvUer3Q6DEWmc1ph0SqNmkeV8Gb+2+zBlnzIFB+Er9j9BznSPO1eEY+TLX5RzN5UkjzD9ElZo+vuPwjqPqq+yprO3w8DVTYXgFGz3PxtU2pkYfoRrN/ODPRPJp7w4+F/S+B6Hajx1dUflTrjVHqYqThi9d1RudgzoTPg4rlww9snuuJJn4Mu/ADR0H0YZt/MJMrXr+JvCRMN3t8he2MFt4Iqj4XzzM6B/PF6drU1ZCK5fUys+d8YvkidpRanIq2jP6xTM6kjS7yEl1u9viKiNdvgOpBdJHZeZj3OqfCpe55olvNnvfxxqnbubLb6/fN/rFM3gzl3r0uax5W8cf/W5A1jwBVX2P1IRXd+vV7qdCXyiF6q9HzPv74sOz3Ff+i3uwfyuSP1xXIS+KlZo+vDmv+2+1q35G6eLWL12YzE4wLy2zOwXxJxWpUHq8Xmz33488gEhevN/oHMoUlTOdSmN1mcypwtMrrtOoWrDEFZQmoXFnrcKPnfiJ5HInoE0b/wKpnS7qpjxbRByF67xjSD68rdorE2yB6EXIaaYhT7XkS5sAqF2bYHDOGv/5rSMJqs3NgnEltsCHxil0ekXm9AT7OGj16bbpBjRYJ0+F12mhJBSwunjdqfHgLfJg8WlKzg0xPGj3No9MKiN0li5Mwb9WBoyV1WKoaH08zO4kLSfNPYJEPkyvcqIYpLPE2UGdImGNzDow/XC1CYyP6GbOTOH+Ww6J2bU7T6JgxphLeBuoM0YtszoHxJ73SIBqV6N1mJ3FVl025cL7ZMWMs5QE2ruogH440Og/Gn4YeA6LdWrTieZVa/7pzNll8DJaWcomuMjpmjKV4vRLUWaL3m50PVXj1SYZkeqrNyVtQMwyLfDzX7JgxlrINff2HgvAb9u7uxaoqjOP4D6J3orqIXoiyFwslwrBSrAtNE6IijLAgIqw0ygixrKwwUwzToqAovIhAMWGvtWYyK+tCygrsYiS19nrWOEllZklkUGFqvoQHYiibmbPP2ufsZ+/9+8D3DzhrPYJnzt5rdVJlXpvng6M0JBvmqB3g6MJUaNL/7X+TzvVifPWPYOVFpfOQLSPjQTQoI11qBziuAyqvS3V+itL1Ytoy/j5Q57nwtNqZyBDvPaGhWflO7QDHtQGa9H/736h0vZiu9vO+/4HwbI6mSnqvBdGAVodTKvwe+rPQxshNSteK6esDUDGcn6V0JrJlZByIBmTTMWqHNzYjk9EK3jnOqnK8N7XG+pk6ZyJr6RgQDciEaToHN7pDjeuvNTG9NyhdK6axLn8ZqBhWHlI7F1lyvVeBaEDWL1E7vHH1QhtX0RvqWP4Z+YHX/hbIyjy1s5GlJB0Josq/7/rfnCTQxPlJateKKSwsBxXH+pd1zkXGVodzQFS7I4CdLIImVtarXSumL+MfBBXH+hVqZyNLyfcnovaOXLriZC6sfA4nPaXPysrGrYR5sLJT7fDGZMI0ZMeTFpmOkt6rQcUxsk7tbDTfPtRecvgYOFmldINaz/iFiLWs51hYOaj2M1bl/Vcja9WuE9PYPrzfdzyoOFa+VTobzWfkJ9SekxlqNygmI/MRq1uGqf18sXX3XQQNknRUhc9ZYO3pK1BxkvQ4WDmgdDayFFBrybZTYWWX0s2Jy4Q7ESuR0Wo/X2SNA44UqORfn1h7M7IWVJwkXKp2NrJkZB1qzcpStZuj4TdCk05U+/ni2gMN3NYLK3zNMmtfy0DFMf4OpXORMf8GaitJL4aVvTo3Jr5czgg3cqvazxfXDmhg/WtK14fpbh6oOEZeUDoX2XLyDGrL+rfVbkxsTnYjDzbco/YzxrUNBWvc4W5lj9L1YZpzfhZoUDywq6nuRi11heuUbkhefcYLLwbLexTNyHM614bpz88ERYh+APAPnXORMRcmoJas3FyZTTy6XY3f7vNg5FGlnzG2TSjSmp6T4GS30rVh+psO+h/88pipJD0PRANy/jG1wxvXZhTJyP1K14WVIefvBRXDhOfVzkWmwq+8S4IG52SuzuGNzX+NIlnZonNdWEmaDSqGlc1KZyJj4RMQDcqGp3QOb3Q7UZQuf73SNWFlyfiFoM6zfniFDu16BUQ1/Q/AbyiKlXeUrgkrT6+COs+FBUrnIXtOZoBoUE4eUTvAkTVOgey0JFxQkSNEWZEZWQ3qqMbv5Va2qZ2JzKVjQFTbh9WSdBSOwgNEWCkSUGe5MEHpLLTSn7xMiobm/F1KBzg+56cgm/grp63sULserEztb9zUSf/gT3dZcvIxiGp8FPCRnkAnJelIpevAyljX1hGgzrB+eKWuRXdhAYiGZGSy2iGOLnSjk5y/Uec6sJLGw4D68c6OLDk/CUTN3FWvdojL9iqgkfFK14GVMr8C1H7dMqxil8btx/LNJ4NoSEl6ltIhzqXGP+4OaTx04+RntWvBSlbYDmo/61fo3P8Wc/5TEDUlOXxMtV9bCw+gk0w6EVZ+0bkWrHQl6ShQ+9hweaV++28U5oCoaVZ+1DnIufQhOi3pOwPWz4STVbDyEZz0lLpq/Xm0XDlZBGrbe/8Vuva3vy65BERNs7JR7TDHtx/dX5wGao3zYyt0NGoZ6wO1h5XpSvec50dQBzlZpXSY+TR1nPhzDZz0KN3T+uTCNaB8rf7yzEr+VOfCYhBlYmWe2oHOp00gnhJZ1pwkoJyP/A3vqd3vmJwfC6JMXLhN7UDnlZFxoOat3HI632hQ04HGHROUDyuzle5zbFsb/7khyqRr6wilA81vUYPgwSg1yoSXQPESGV3Zh1qNPAmiFl8F/F3tYOfTIdj0ClBTD/5V+9XQUrYXzp8PijzzJGxXur+xHYDrOxdELbGyXulg55eRd0GDW9NzEqz0qt3DWheWg1rz5jcnwMoGnfuaQ0bWgqhlVpaqHe48M+lE0MCsf13t3rGDsOFKUCu3dL6ldE/zyfnbQdQyG6aqHe5862t8y6Wj2fCw0j1j/W1Gkh4HavqJ/xo8z7KDM0FxnD9b6XC3Ib8E9G8m3MLf/UuSkfmg5riwWO0+5pXxj4MomvVe7ZDn219/s3euMXZVZRh+VRQICAgoARQUNYByU2lBUIjaCAhUETDIpREvEQJSERRT0UBsKPFKQQhEdASh4l7fmjLF1CBgIzejXCqtZ33rdFpAGqG0QGmH2mGm05pZc0JKoWVmztnnfHvv90meP/Pr7LX2WrP32t8FPhwFsnEXw7VG54q+1gH4+gSQLSNhutH5a6V9KWWXkKZx8VqjN3kePoOeuAeqzkha1Cqjc0S31Cmwe/G7QDZz7K+/sDlvLXcmCGFBoHF5P254+K2oKhIPhdcXjM5Nczqjv6u1/hXz5m0F8grD41G69r6bdx1m974fhLSEbMmOEB0werPn5awUJVw1RnL9XzQ6J01bmVRGH3/N6m8NstrOcHqP2blqtV5vAiEtRfQuszd8fnZVahN1+lmIrjY6F61Q4PQKo7+Nx8A5kFrgiqrR+ckpDmTRPiCkpXj9ltEbPvdSq5V4CBhpgTpodh6adyD9M3C1Txr9fcwMaDU+nFS9OJZwHQhpOT7sXeH+77NKm087HOsgeo3RcW+dLl77Snlrp8vM/s48dHp1uu6qMLd3a4jOrOB+tZZlf0l+eH3Q6I2fv07vSd8Sy8RwtoPo/WbHvHWuHo6Mr3hVQ49s6bYoO1ncF6KPGp2DvP0pCMkN0fON3vjtS7HK6p9AGRjJ7HjO5ji3WB8vxcZ0x0+b/a35+lBpo8OHTzi8XgTR/xkd+7x9FrPn7wRCciPrfWcFswE2dRCi3y/skerwm7DorUbHNg97N33zbXwG+K/R35u3q+DCaSgT3Yv2L3VDn9Ho4tkgJHdE55hdBO31UUjtMBSF1Pgknlva/P7Xd/1mmzyJzjD6m9tkvLnwBYNufmw7SJhe2j7+o9Xrg5UIVCYG8OF4swuh/Q5B9AZk9T1hGR8nQ3SB0THM099tKT2sgkFimxhXQuLUQp5miZ4I0SdsjmtbHUJWnwhC2kGjhebjRhdDp1wL0WtMReCmeQpfqPDR6HJ06y7YEhLvNfrb2+2/IHpyIQpfjcRv/M3oODLtj1QAFy6xuRg6bj9Eb02bVKeO5FKcRpwK0UVGx6hNxjNZ4nrM/huiXzaW8poeZtMplg/3GR23TvkkbundAYS0lVn1XSG6xuiiMGJYDNHL4esT0gaW93z4cBZE5zBIM6Vs/nn09eH1SbPX0TmfS2+WPh7Z0W/Lty98D5xeDNElRsfJZnwLIbkjOtPowjBno/BMV6q2l9UOScV3mo3k93Fyo6ztA+zX/yqXw4fdMVq8XmT0Oqz4OFz4ceoR0YYGQymeZuQE6wHGaLxBYStCOkZW24tvm03FDDwEp93pQcrpNEg8By5MgYunvqLXr0DChY2I9a5UtMfrCqPXZMH1KUh1bPfx9pWph9C8qyFhLiR+N51steBTQcpdFz0G6SEjFRobMnrthgyLUwYEIR1FtMvmAqGV1MVfYjxI/IHZa7Ltusbx/J3pjVTChUgPrvEU+DApmdUnptOD7nhsqj8g+h1IuAqidzCKf1wOlqYYGSk4WXwfRF82ulBotVyArie2GW+764rVR6BF1ek0EGKFSjSSodZ9CVLfD83gw/eMXhulDePdhUjVJBWiZ+FuEO2zuWBoJXRhCppk+PSAGQHUsEtTtg8h5hD9kdFFQ8uu1+vRKnw4y+x10io7kFIyCbFIo/923ejioaU1zm9li9vhnPdKt7ymRo1TQYhpRI+xuXhoKfX6QgpCbTWZHgjRQbPXTStm+A0IKQQSbre5iGjJXAdXPw554fRqo9dNq6TTe1LRMEIKQU/cg+lUNHd9+HYb2swuNnv9tAouYdAfKR4uTDG6oGgpjDeiHbjaZ1iKlnbq81ZqV01IIREVs4uLFtl5be1UJ+E6o+NAy+saRvyTYjPcrEb0aaMLjBbTWqob30YatQEeMToetHwOQMLnQEjhyfRoRlPT1hifgg97oxNktQ9A9EWb40JL5PrU/IuQ0sAmK7R5lyOL+6KTuPh5xgPQfA0XgpBSMVy32umfbC44at4UDFU/GBaQcJXZcaLF1sdLQUgpuaV3B4guMLv4qFX74PQIGCHlY4s+YHSsaFHlP39SenzYG06XmV2E1Jovpn/+1vC974boUqNjRovlekg4D4RUAh8Oh+gao4uRmirxW58Iq3SHAyBxpdnxo0VwkAF/pHr4MAmi/UYXJbXwz9/XJ8A6PhwF0bVmx5Fadg2cngBCKomLp0J0ndHFSTvn0vR2XRR8nMz7mI7R51nkhxAXz4bokNFFStvvY+n7etGQcJ7R8aT27E3prIQQAC6cxkJBFBLvRrZkRxQVp5fZHFdqqqtfVtsZhJCN8PEUiL5sduHSvO0qRbtTFy4xOr60895QinuckFzw4XiIvmR08dJ8HEwtfcuExAtYLZBuZD+cfhOEkDdA4kHMr66IXlekVrtlROKZ/KxFG70rDgchZJRk9T0hcb7NBU1b5COpKFSZ8Xo6HwKqbJiLbt0FhJCxkYLBnPbYXNi0CYfg9GeY27s1qoDoiRBdZXQuaD72p4Y+Gza8CYSQ8ZEWkMSpfIsqiU6XwdWPQ9WQ8EGILjQ7L7SFhoCsdggIIS2tGrjc5oKno1Qqnf6U1baHxNuMzg1t3nUQ/TmypduCENJifNgdoncZXfx08z6bvoUTJFyYAtE+o3NFx2VYjEyPBiEk/08CrBdQEL1mmFXfFeRVpCpwXh82O290tA5AdAa6ntgGhJA2IfFQSAhGNwUq2lva9L5WkdXeBgnTITpgdA7plp2HrPYhEELaT6qo5cIlPA0wZR+cXsY3ojHQXT8Yog8ZnU/6Wp+Gi2cwwp8QC2R6IHz4h9HNoioOpjKnPQt3Axk72Ya3wOtFjA0w7RqIXp6COQkhdkgbqMRzIfqc0c2jrA7BqYPU9wNpnp64ByT8nmWETTkEr79NxckIIYaZPX8n+HglPwvk7hBE74DUPgLSepweAdF/Gp37qjgEr39A96L9QQgpEMOLVlT4JtVyB+D1Fm6KifwzXpx+EaI1o/dCWR2CxNsY4EdI0ekOB8BrxgeBZo0rIToTWW0vkHaSPm81agcssnlvlMa18Hp9qtpICCkRI2mDf2RJ4TH7CCR+lVH9Brhsw5vh4qmsH9Byn4WE6QxgJaTs+LB7SlPz+oLRzciCz6eI/kw/BmITHyY1GmWtM3oP2dfrg3DxjMo0pSKENOiJb4foNyD6d7MbVHvta5yQnIh587YCKQaz9b0QncE+GaPU6wqIzmSzHkIIElL7cGriIfEpsxtXPi6HxBvh9AQe8Rec4aJYPk5uBL72G73fOmV/Oi3x4aRUfZEQQl6/z0DtMEj4CUSXGN3MmnEAEu9F+gQSj0zBZaR83LrgHXDh65Awt8LpsP0QnQMfzkK2ZEcQQshYSMVtRM9vfGtdbXSj25Jr4MN96YGmOx6Lmx/bDqRaDP/z83p6ymf3usLofdq6432vN0Hil/hPnxDSMtJ3cV+fAAnnIW0yqsZSC1elcsher4cPX4PEg/gtn2yaRZCyYZxOg+hdJSg73Aenf4ELP0SmH+eJFiGkbaSa4GlDTTnaMyBxdiNF65lcNjynyyD6aDraFP1VOp3wYRJLlJLxP9SGj0LiBam4k2jNdFbBSObOHDi9GFI7jA+4hBCbDKcW+UX7IKtPhOgxcOE0SDwndS9M6jT4eGXS6RVo/D1txun7rZ4MHz+VopWz2l5MVSLtIH0mcnpEOkVyekXKDEkPtXFlDv/UX4bofxoPtXdCdBZEr2msiWlpPfj/s3eHRg1FURQAz9ACiiZw0AcOSwGgKACDogA6YAb+fRSAxUa/+2My6SA+JukiareR7ecs61Nqvc3b6SoAwIX99nV+tvdZ5mOWfs3o99T8TM3vLP2X0ZtU71LrIdXHVO8z5n+qv1L9kVpfMuZDxvYuY97odAEAAAAAAAAAAAAAAAAAAAAAAAAAAAAAAAAAAAAAAAAAAAAAAAAAAAAAAAAAAAAAAAAAAAAAAAAAAAAAAAAAAAAAAAAAAAAAAAAAAAAAAAAAAAAAAAAAAAAAAAAAAAAAAAAAAAAAAAAAAAAAAAAAAAAAAAAAAAAAAAAAAAAAAAAAAAAAAAAAAAAAAAAAAAAAAAAAAAAAAAAAAAAAAAAAAAAAAAAAAAAAAAAAAAAAAAAAAAAAAAAAAAAAAAAAAAAAAAAAAAAAAAAAAAAAAAAAAAAAAAAAAAAAAAAAAAAAAAAAAAAAAAAAAAAAAAAAAAAAAAAAAAAAAAAAAAAAAAAAAAAAAAAAAAAAAAAAAAAAAAAAAAAAAAAAAAAAAAAAAAAAAODcHhwSAAAAAAj6/9oTRgAAAAAAAAAAAAAAAAAAAAAAAAAAAAAAAAAAAAAAgEM3uOFe+X9REwAAAABJRU5ErkJggg==;clipPath=inset(30.33% 0% 30.67% 0%);" vertex="1" parent="1">
          <mxGeometry x="455.2299999999999" y="1446.86" width="45.05" height="17.57" as="geometry" />
        </mxCell>
        <mxCell id="SolYquduVEcN4SEWnmSy-40" value="Data preprocessing" style="text;html=1;align=center;verticalAlign=middle;whiteSpace=wrap;rounded=0;" vertex="1" parent="1">
          <mxGeometry x="431.35" y="1480.9299999999998" width="97.5" height="25" as="geometry" />
        </mxCell>
        <mxCell id="SolYquduVEcN4SEWnmSy-41" value="Ticino workers" style="swimlane;whiteSpace=wrap;html=1;" vertex="1" parent="1">
          <mxGeometry x="423.23" y="1157.4099999999999" width="113.74" height="124" as="geometry" />
        </mxCell>
        <mxCell id="SolYquduVEcN4SEWnmSy-42" value="" style="endArrow=none;dashed=1;html=1;dashPattern=1 3;strokeWidth=6;rounded=0;" edge="1" parent="SolYquduVEcN4SEWnmSy-41">
          <mxGeometry width="50" height="50" relative="1" as="geometry">
            <mxPoint x="26.87" y="74" as="sourcePoint" />
            <mxPoint x="86.87" y="74" as="targetPoint" />
          </mxGeometry>
        </mxCell>
        <mxCell id="SolYquduVEcN4SEWnmSy-43" value="Worker #N" style="rounded=0;whiteSpace=wrap;html=1;fillColor=#ffe6cc;strokeColor=#d79b00;" vertex="1" parent="SolYquduVEcN4SEWnmSy-41">
          <mxGeometry x="10.179999999999946" y="83" width="92.75" height="30" as="geometry" />
        </mxCell>
        <mxCell id="SolYquduVEcN4SEWnmSy-44" value="Worker #1" style="rounded=0;whiteSpace=wrap;html=1;fillColor=#ffe6cc;strokeColor=#d79b00;" vertex="1" parent="SolYquduVEcN4SEWnmSy-41">
          <mxGeometry x="10.179999999999946" y="34" width="93.38" height="30" as="geometry" />
        </mxCell>
        <mxCell id="SolYquduVEcN4SEWnmSy-45" value="Vaud workers" style="swimlane;whiteSpace=wrap;html=1;" vertex="1" parent="1">
          <mxGeometry x="423.23" y="1317.32" width="113.74" height="124" as="geometry" />
        </mxCell>
        <mxCell id="SolYquduVEcN4SEWnmSy-46" value="" style="endArrow=none;dashed=1;html=1;dashPattern=1 3;strokeWidth=6;rounded=0;" edge="1" parent="SolYquduVEcN4SEWnmSy-45">
          <mxGeometry width="50" height="50" relative="1" as="geometry">
            <mxPoint x="26.87" y="74" as="sourcePoint" />
            <mxPoint x="86.87" y="74" as="targetPoint" />
          </mxGeometry>
        </mxCell>
        <mxCell id="SolYquduVEcN4SEWnmSy-47" value="Worker #N" style="rounded=0;whiteSpace=wrap;html=1;fillColor=#ffe6cc;strokeColor=#d79b00;" vertex="1" parent="SolYquduVEcN4SEWnmSy-45">
          <mxGeometry x="10.179999999999946" y="83" width="92.75" height="30" as="geometry" />
        </mxCell>
        <mxCell id="SolYquduVEcN4SEWnmSy-48" value="Worker #1" style="rounded=0;whiteSpace=wrap;html=1;fillColor=#ffe6cc;strokeColor=#d79b00;" vertex="1" parent="SolYquduVEcN4SEWnmSy-45">
          <mxGeometry x="10.179999999999946" y="34" width="93.38" height="30" as="geometry" />
        </mxCell>
        <mxCell id="SolYquduVEcN4SEWnmSy-49" value="" style="endArrow=none;dashed=1;html=1;dashPattern=1 3;strokeWidth=6;rounded=0;" edge="1" parent="1">
          <mxGeometry width="50" height="50" relative="1" as="geometry">
            <mxPoint x="450.1" y="1298.9599999999998" as="sourcePoint" />
            <mxPoint x="510.1" y="1298.9599999999998" as="targetPoint" />
          </mxGeometry>
        </mxCell>
        <mxCell id="SolYquduVEcN4SEWnmSy-50" value="" style="shape=curlyBracket;whiteSpace=wrap;html=1;rounded=1;labelPosition=left;verticalLabelPosition=middle;align=right;verticalAlign=middle;rotation=-90;size=0.5;" vertex="1" parent="1">
          <mxGeometry x="471.76" y="1404.4299999999998" width="16.69" height="130" as="geometry" />
        </mxCell>
        <mxCell id="SolYquduVEcN4SEWnmSy-73" value="Agent client" style="shape=image;verticalLabelPosition=bottom;labelBackgroundColor=default;verticalAlign=top;aspect=fixed;imageAspect=0;image=data:image/png,iVBORw0KGgoAAAANSUhEUgAAAfQAAAH0CAMAAAD8CC+4AAAABGdBTUEAALGPC/xhBQAAAAFzUkdCAK7OHOkAAAAJcEhZcwAAFiUAABYlAUlSJPAAAAMAUExURUdwTAAAAAAAAAAAAAAAAAAAAAAAAAAAAAAAAAAAAAAAAAAAAAAAAAICAgAAAAAAAQAAAAMDAwQEBAUFBQAAAAAAAGN3d3NycQAAAHJxcAICAtDl7QAAABEREU9NTSRJSRocHMDT29Dn7iYqK8HU2gAAAAEBAbvM0gsNDQAAALXFyq++wnh6ep+qrqSxtAsLC42TlXZ1dKm3u5GZnHJycYCDhISIiXV2dYiOjwcHB3x/f5afopqlqAICAgAAABcXF8/l7FFaW5KiqC8zNnBvbmppaUpRVGJhYTc2NkZGRLnM0mdnZj8/P1RUUs3j6szh58zi6c7j6xIREABAQLnM06y9xMje5MPX3YKNlrrP1ABVVau9xLTHzQQEBAMDAwYGBgQFBRcXFxYWFgYGBggICBUVFRQUFAkJCQoKCgwMDBMTExISEg8PDwsLCw4ODg0NDRERERAQEAAAABgXF////w4ODgkJCQQEBAUFBRcXFxQUFBMTExYWFg0NDRYXFg8PDwcHBwQDAwMDAxISEhAQEAYGBhUWFQsLCwwMDBESEQgJCBEREQgICAoKChUVFRcXGCIjIwEBAXh3ddft9Nzz+RcYF3x8ehUVFf7+/mRjYgYEBBMTExQUFQoKCg8PDwoKCgsLCw0MDBISErTFyA4NDQwMDAwLC7TGyBscHBAREHt7eh4fH87j6dHm7RkZGX5/fi4vL2NjYh8hISUlJUBBQYKEhEVHR8LT2KSvsszg5peen4+TlK25vefn5/39/V1dXaq1uZWanICBgXl5eDw8PK+8wMTW3Mjb4bvL0EpNToiLi6KsrqWlpYyQkYSGhpGWl7K/w7nJzaeytb/Q1YaIiSgpKWZwc8bZ3ml0d5+oq73O09Xq8Z2mqE5TU1JXWLTCxrfGypmho8rd44uOjomNjpyjptnw91ZcXmJrbllgYl9oapKYmnx9fMLCwlxkZrm5uXh4d3V0c/Dw8Pj4+N3c3czY3Gxra9vy+OD4/8nJydPT06Kioq+vr6qqqra2thEREiCjSWUAAABddFJOUwANEhkBBQgCAwQyOiEGCg8uTUI4JBsN/hX+V/5fYZsHK138K8IWKcITHsPDw8PDNcP8w8PCw8PDw0fDw8NUIln7Ezcj6NUdqHePUrxjhuC50+1sBJVNnIIdqgN0etf0TCkAAEUUSURBVHja7JjPa1vHFsdty1biNJYMTUtAi2DHdu1V/wX9AC+y8A8SJ+kPCjNgLbIq9+4F5b39pEizaR5vUS9ssGSETeMEuk67NVQQqjaUEgRtupeWb+acmftL1z+uf8Qy73xDdHXvnTtzzvmcc+bKQ0MkEolEIpFIJBKJRCKRSCQSiUQikUgkEolEIpFIJBKJRCKRSCQSiUQikUgkEolEIpFIJBKJRCKRSCQSiUQikUgkEolEIpFIJBKJRCKRSCQSiUQikS5Ao6BrpAESMrkw3rDGdS17JF2qAjgA/nkTt/N/fn+cNGC6/7lFf47cDXJcYWxC6w5pIAQwxpDMeWI3xO+PKd53PiYNpO4o8mP3DfdzqXJAPpFWc6fHTSbR69xgvMIZGOMZDWfCYD9rtSNy1dIV8vTQULrwuLh27969KdKASMFYKz4uaDYauyp4wH5W5uPjE2k14dhQtjj1aHl5ZWk1n89P53K5adKlKqf+KRSrSyvLy4+mitmhMYU9PaE29zNRB+aqsWc+zow+nnq4Ml3r9Xq1bqdTJQ2IOp0uQJleeTj1eFSBSutiPwP1UUSuy3xkajnf61UbeVSONBgyPPKNaq+XX54awWLX2EfPwDytyrwwVnyY73Wm9dwqs7q1Wk3/J126AIXuvKoapzu9/MPiWEEVe/rU1E2dZwqFibUVjbze7nba9Z/2fz44+GNzQ/1T2thQhw042s8NX5ub9qi/2c+NzdB4c2fTTGjuB4boM2+dTX+8vemdbm4GTfAWQwOCK/qW4HA7VdijwFJhjwKmBif13Qj6HLbGn8ePxWbATP8rGqaPm8FQBmOqPv44OPh5/6d6u9Nt1zX2lbWJQiFz6lpX+znUeaGQvrfUa0zX27X2/otfXv/1vLm39fV3DmkA9N3XW3vN53+9/uXFvsJTn270lu6lFfWMqvVT7Ov6HU7V+XC2kF5b7amX9U714O1zvdC3X31F0R4gaRzfOs/fHlQ76hdVb3UtXcgOq1o/xducfm9XvT1byBSXFPNG9893u46z1Ww2W3t7e09JAyIFo6WgbDnO7rs/uw1FfamYKWQzmQn9Dp98QwfmI6XlXiPXqL3623Gara31crm8zkmDo/V1xWR9q9V0nL/3awpVb7k0oqinJxJv67q5pzPD2cXso3Z7Olfb/91ptcrPmJtcYpDlXoAuw3RWLrdazu/7tVy+3X6ksA2rbT1hqWOhqw09W1yq5eudV2+c5u7XR/gmw5dkwDBx1MBDwx/zKF6JW/3MQMI3/DM3ukTsejJmAbgq4tcPndnnxYlstXdizPnXbtN586pTz9eWilnY1hOWOvxCz2TnF+cfVNv5duO109p+shMw52jbZN9FV8gjYUjjdhSxEvMvxwXFjQ1MKLIyQic8mThhdkTuRNaIGgJX5fEZyI5bOpIgMaPMhZ0n2y3ndUPhqj5Q4LIZ+LWesNAzwyOL88WVbj7XfeH8d+/7HXZ45wojiA+aH/qg9SJQJ+a6X2wRV72T4BJ4yg5NQCZdJgN0vS4Uqur+52VcfcqQeaF5JNyO2h7XhiLXZGBwzFhzS4YyWfSVjHTlzvd7/3ZedHP57lJxfnFkOJOs1EdhR9eF/mWumq++fOO0uOcZrCi9IHixk6F0d2W40QvrqwiGV1sr+3JXEZCsLwRS+kMgum6gTOwiDINkGoddIpBKmCISy5AxG0Izox3J7Dp2QChDpL+gDCQPk5B88FWE2haYzwycIFIZyuBDmqDwklqNYJE01xdUHMBSwVvOm5cKWO5LU+oJoJsdfWR+YWGm08irQnf2yl5w0FrpQUNKNghKbrDyJdol4Z7tsBFfwWC4y1y/2JmpG5toZhUZbABeQQaLj2mbmM590wj0xMZgdAETjQV3SRhs3MEwmhQyFtsFmcD0ZjZ9pa1dTVpnEwuXrSmAQJlKibMxZp5kXvXbNLYPmBgHCkXa6mLMZpCQNiDlPUeVer7RmVlYmB9Jtqtr6KrQby+mdHfXO/rTHSb71rUhZBAcaQgZgGZfB55MeMzgwwRAm60Dxey2rcLBIAT+m40M9EPGwFEpGAvGz7Lw2o5OHQw+9gPIJ3xUhluwiLQhGcgDJkLdU/GUaCnEmPkoGEByPWYs2rj8NSVmCOSkccdLceYFBpxhpqwjmyj4CSz8SmPQj1SoBdt5Crt6d6WYWrytSj0Z9DFV6LOLs2urnXzn16bTeuaamaUpNmOebZPMNbWhjWdm64S4AVq9sTKbHSoEDNqwgqDDCD5IZroIE17X87qK2QJgbYbVjZUmIdwSbJAS7WC2/pnpg8KkkrKCMQAAT8NFkyNgG9rparSwwUioRlup4ACwFmYx/40Vsko9BQ6DMbb7MSxDs+Wo9aU2lsHexHDDklAokMsm3RjWvmkeYIPdC7SR0jR0/WHsY2id+6zlNH9VyFbXFDxV6gn6O3T37HxqMfVFvprv/ug4rTIkJtrNICyQjXo1WJ0JYyBGR+9vDFJQj9WOQUEjGJ04kOTI3AVicMaE10cZpjCkGNLUg/Wu6dWppYQLYiywFqH94KzaIrQc1sRo6gvSAIYmzky71LPYUApIVcwPhnNgAnvNRhvITJXCUwytkDCrbixgjzTPg8HSJJ6dicEoZC1hsEkF06PwUfwQGH5XepkBN7S3GDz3SctxfuwqaF8oePNZ6O9J3t2zt1Olmw8a7Xr3N+ebp2XtisGNLIC7NAluXYZc1GS0LxATBALhxegJybzeBiGTGHEY7GLuQHy93BLCui1tW4QraBC6L8wObi4iQ0xBgXPBNPiV2SUZ0oOHJPolmT81eGhDy/DVA+6CedjWtMMYemabiV0cKsLnhT8RmOkm2B/RUYGZI2FxAK27EzoJXR6/6xqX0vjg4ppY+7CWNq/89Bvnt0693Xhws5RS/f3km7p5d58t3Zr7rNqod945/9lexyw3QWNQq8yUmGcpxgaLiGEXN+zMlmwf99LHk4kmJoOdyxz9gRhtjIdkwr+Bqe7L5oMILWKmhTbkYkax0FJu6GFbTAIvWfZe3oA50ICwpTGbjxgc2EE8Z4UbscNuF/6UtiEIjISEozCBM3PBTmNeL8xQYUtE3eW7T5x3nXqj/dncrdJskvd3s6WnSrcmP6nWc9W3zs42j5gcjGY43iavWUzATyjZf8m11/1e5+ESoQxy7W1xyMSyfx0ZO9obI4LzhcdKe+L2WXuoRJ+Ltr/E3ndd/0z0+SVsf0Vz+PaO87aaq1c/UdBTSTb1a9euqx9s86nS3ORMJ9do/+Bsb3H2PiVjoR+eE3G943iJpIOkOPHYo7i7x/lxuGXHmcy3tp0f2o1cZ2ZyrpSaVz/aTvr3d29Ln7sxo1pF4x9nd4dfNNb3LnmOmXFKueceI7616/zTUFvyzI05b1NPAv2j0iRC1z/TObtKctn/qTj8UAfok6WPEkA3f5qZXShNfnpFoTOC/ulkaWH25H+e8aDfnfxQQ88R9KsFPaehfzh5NyF09fJuob9s1An61YJeb7y00E/8+m7/CEvQrzL0DzT0kQTQxy30Dwj6lYc+ngR66ubdGwT96kK/cfdmKgn060HoOYJ+1aDngtCvE3SCfgLoVYJ++aokhl59T9ApLS4OemVQoV9s27rkJSpJGJyc0VFm8NMYfDHQeYxPPOJwvzWcR5/gR7pyirBVePApfiiPI6c+SW5xb4bK0cC9pfhpezfvP1b880qMM+cFvR5X6aH48qBfPC5+FR65wjn32YeSG5OGR3IjskhoNX4Ms+NqB3yxycoPSRW0ise5aDO6At8r3pgKN34GU74SsYZXeFwOxKUmRKBin+Px1QTQ6+cNnfeHs4+HjZ4yqRJ3h3vR5pyHnOfc86RSCR4ChcYjrvrNBe9U+gHCA4HCsCh41Hjen9bc1FSAXoXzgDt4k1sDeCgbuGdIuAVWAgn0P/bOpjWOI43jnyOfIJDvtAtTULVQI7KzIxly6pOoa2YPSyt0XfYmdhxFmQlrxGKZLEYiwZBDMvFC8EW5BDbCYJuAbCfZquelXnp6RjNSjyV7u21pZrqrnrff/6mukeIJfoV1QczJWJApIbhZQig16q1C3ybJhnQ9jACM2RVFLDadFCFDUGkhcEyBD25EQasUnhQCpUDPk5ZJ8DADbw9VgZ6wFlQ8FgCGDVQKUhkP4hl8MhCjvApYyqnOWW6UuSAFCpE2I5uJ9EQQUSGiJtMlgm9OAqqKgYYFscfS4oLlS2tRkKBFa9DPqNOFCAUj7QuiCoEEGSICUcTOFaEBQTSC2lfQcljwGljElZFHobDgclHQUHyGFRU4pBdeRF1iDWPYBaGAmeQz2Oc8cFjyOms9OF2EbIogRo6S//VwwVpIZIWC5uW/CD1SMDP2HSKBPHGMCLe3WGTCTdN6FPg2QD9rCTqKEL6H5IgvQ++J5FocRDPi+pRcwNdBMyE7EFaoQS9eDr0qOBqaTfQTo4mrGAwO4X6KHS7m0kKHaZ2TVYFakZKImo99mlkquEYsEX7hE0rXblZGIagA6CgRYZxKkkfhsWbagn5E0JNap0fIOKlxWr9e0TSNK140/DP7IjEbO6AmFR7WEFURhFnMG6a7QRK1yELpNYZTpJeKdF6xIIn86NXjFmlevXopi6CSeLmoDQqSS6TYA+hHLUHfnit7TyzC1Vv5QxR6S6pVLDpRhKKsMGkN+zmSoq0Piihqi+KycSuJZ/nHUrQK3WzkozOKK48rxI0cxS132A70Hwh69zkzN8S4uBL0Hzro/0efOtRB76B30DvoHfQO+mLoRx30tw36UQe9g7429FMPfdJBf6ugn14b+tn3HfTLD3NLoE+G/zlz0N+/BvT3Efro4w7629HpH0+G378B6GZNwRuDY+Tm263ceI03MoErdGk1TQP0UWvQJwRd1gIrsaxG1tLC01Ly2IZ0E1Py0kLVvc/TlDJ3IcG5XLHwIYRyHUxyyVWTU6xTXWRR5k5loyTSp2Ues7+nXx/6p3XoEoOL/lyg7nkosXEFhNO1j4WXCwGsdDesTS/JWXQLnmUNnaFzJqmgm4MhSorfgPUyq2lW/DIvP7mRBLekGQZNrL+ASbNYYqWp5y/RXVmWmEIMpmxteU+hl94DdpAMpTXSUJ9I6rYSzh4cULeFkLn8LAuUTuQj+VGyJfclARxc9KNrLcDQY4cYcODXoRKFIcFg3jzGBxnDBt0akysrrBSStQxiYZ0nXzJk51waZgBmZayLTwWvmhyiZFHlS5M/X84J3j81IDu4WAboJof+aSvQLXjCuAx1mYcG3+EKSA+RuatKTqf7B77doVg4kbUpAXtpDFtiNGwrWT/hFK0skhykLYvwyhKF4dkh4hI7sCQoWCN3yCAmKpwUIQz/B2xSUkSOqAV1e9sURRkWHbAPIVBdwBvIIMgD1x20iSILZCUvMn4MLlBlXKwkah5OU2jgBjUXdgGyLeiPAXpP8gGtHRvShLKQc0hEif3hcLg/m+z38P/+wYXj7uLSkBkp0r+ujIakQsQJgpF8GkUijQzT6aURHCiUnW/tpSH8XDLyTBgoCyMYJVwxRnLDliJxg0WQiAxlxFAF58rBhdSFIVVGEVEWhpNFd4Jo+qgl145biyZRMmSMig7PewD98XWhn50CdFMr8LJDT4bDb371/2un0XR8ILRKI4+oSK8yrIDxQcp6fUni8THKrSSDIUR6YWKp4oqUDWImJknNRGsiRisSMeWeWKykgqCrcF8hNcrUQDLXhOUyr62R9ayCFZMkmJdMeeinZ21Bz2DklasfYjAdDs937j/990fD4Z3pZLyttFz1MLW6rDLBLDGVXzRNws2nh9zWCWKhtdyfWF67K3nM4lV/axO6XSNl46E/3dnZef7i0QO/zI8m+67d26jeGzhuyG07R7udvhYyD/23nT33Z+fZxdeHjvtkNDlQ63PvjrcLuuv04+MdaPfXvzjsg8lo3Ovrjss7Dt21+vGe5/7s5ZdfOe4Ho9G+6nft/o5Ddwdy37v/9OeB4z4eTba7dr/10E9OrwfdPezt7cRd3a57F6cGXbtvEvrpyY1DZ+57flf30C/z0+nB7/2O0DsOHbj7r2Pc1Q0n04kcdMv8LYV+9+T08arQw5i/NEAPy/yzl//1u7r+dLo/GNiNpG5vLxW7mQhtCv3x6cndNwZ9aacn3N2u7h8Tv6ubjcSWzmtgV2Jp10ffOMXatiSk1rOwKnt7lU5vEbq9PEt7GfS4q3v5yu/q/jid7Q92VSx/+mAbAFk8a9MIbGRnL8GoarE2u1hfF/UqXD7Hqqxm9e9Yksy34vFqif3WO93HqVRSCbtIigh9rwl6ssyf465uNhVb/SQvcuEe0+opcGohCpXBYDHYUJMYJFlQlsqslrWaCmtkqHs6wtrGZO1cHWjgvDpTflkBLY2xPnSbylHNyc5msqqnoUSL0AsVC9sQmAo1g2u78AsX9xb9eCl33tVNZ+P+FppIcg2M4IVKA/AtoBAvo1Q5PQu2qJ2QubVBLFw4Xr4sVBuGW4XykspG79yWWf/BOItf6EKlS4hVGK5SGS6FwfpHlxMZUxBb6PAUo037IL2okvZHq1CxNqELBZERXMVSpedQfJ+Gf+nS6E8+Gr56hj+aOV7e7hff+F2dns22PxyAQUWIFPWbArbeugUv/pJ3poCpSuWhkB7FCcNt7F9khLqBiagXLDomxNZIUz4VFfrSgkbInMJ1qIYEaqCSktBVi1RBpzJigqHctdlarjgDhUmjMywBNwfnkfdB29CxwyFYKLqF1BX1TAgVMt/uDx88evks/khuIXe/q5v537zPRv0PNfc0GlfWhqUZu4JcA1jsFkuUleLmQRtWojSUYhR4x4AqoRnirlDQgMaGSfiFUic/6CxBC5dQH0pFq0iKxApCQYlyfbBiitdMtAapotbZirUxJUtpY4AKtcilktQE7UF/fALQQ+SSOi3Woeno/cGBfO/1i+ce7yXLvNvVfe53dbPZwZ1dlDPjpeIDYxs5Spv4ziKwWVhcoXp00qYTssOiovh5tKhsMEQ07JxnGYhYZJ25irHIcNbmFzKD0ZsNoqYlhE6wluJwD90hawm6VEsQNxwH06n/IcxnTy/lTru6L/ybuMNp/04fV89Y83rJFhSp6cgatzF8u15aiQjmzjdrsP7cNoZga3Kdk2nzeami9vzzqh3o9xB6pdaErsTBeDpyIB/+eH7/GLlfsqt77+9u+Gy2f2drrj+uc9gmmdgl427ksPa66flDI/R7dz+4DvQjB/0nB12vHYzWjvtkNnYgv/ryArgvvr3DBbere+LfxB1O1Z/7t4bGhhhvxqyH/pODftQC9PEVoDP30WzbkXzwCrd1i5f5Y9zVfeb/Q5vZ4XiguuMq0Mc3DZ25T2d/wm3dUu749s7t6j5xg9VU9mUH8UY6/YPrQifu+zP/tmz882+8rVvS7jv3z3/853DY6/U7iDfS6Q76yXWhA3cXzcxv5x9+fX7/+bLbO7b7i9efDFVPdxSvBP3kVkD3byYc99Gh/+Xak29wW7d4mffnz4fD6W5H8e2GDtz7vemh39Z9/upi6e3dtfuFg77VUbwZ6N+e3HPQZUsrbdXvH8wO/+q3db/ydr6x26HTO+hXgn7v5NtWoIv2bq960N8/9Nu6KW3rmn4ps0noVdWGkZjPJtg1enpj0M+STtdJHHppOSrYs8/v4unob+nJod/WffHdU9jWLYFeLamH2mjlV6OyTEIa46/mQtTzd752otGmbejzLgJH3QBYswYqKI1OBaN/3xLTQ//vmZ/86+L+3uWdXuXSmZOdDnUL8qwWNmdTsSsCWKVnNU/TUc0cg8bxet6XP1Wx1apKw9ELQtErdrSveIUWdEgZMaB9idDP2oButC9rNA8cMWcGj5L3oVD9dFpMza/CeL17Z3t2OIa3cS/3FkHXOL3StHpgnv6RPccSVxSNjug1HlSRAAj+6nBKR5T+dMikvkpV4KvyDzo1nki8gsjSNU9HfVYYSZW88IM1vmJDnBlFFWSlE5npNCTUKlxuFbrEQDghzQmqmHcIFtRA1ScO8JeLX9GsgcYf2ehfHr1YBJ0qE8qB4ClbzScUuVJVpbmKAUn4FiLEAlcch4qZ8WWazbGC1EhmVRpKSDjxFYjF8CqqVy0cXFO04rBJAVW4zl2FUsF5bPd/7J3daiNHFsefY59hYC/yPrtgMVbGXTWjankMgb7tm94rsbBgSBC4PLuoIxBeaRNDBnvYWUi0YZKMccyALtaGvVgyMIGMw4KTtWvrnFPVXd0tq/XR/pixasatVnXVqf85v1OlltxqmxXEsw6bJK4I+m4C3QljSjl3wEsS4ZIORiecxR/9ns7iT4uXUBL0R/Vsp+xIWZgWijdXmdyt/vHHk5rX60WFhcblwgx0Z/rUiyPVSywg9N2KoMv5wjW2BJL9abBTw/fr5uqa8dA35kS4KORrL5XJCSqFzqqSxZhX6x+VfTKXm+nLcq3Qv6oUuia+2sl9Bj/xw5klxhkDXA300e5hRdBhjncGcOq2+mnJb9vMx7AbS4rzQD/cHd0O6EC81zriGvl/z8t+r25/4cKXFOeE/tXNQ0fi/aOecwXNZb9atdfHvnjW9GpsSfEdhc4EW+11B3it3Hdl18phPV0zVauJJcRZi7wN0CUQ77TgZH3n+6muin179vd/weVSLY8tT+NudqZ/Mhd0IeqaOFwHzf9xMfn69/Q66AZ+u62D0zyY7f3KVbwHurY3WyUjTieEfVIF9Fejw8PXCJ3NqIIJb73Tbz2gU7fT8hfyTfONh97RoL4W0kIxXXDK4xQE+frJ8t32bKyRMi5ssVyabCu4zAhAf314OHq1GPTh4UhDr7N8wANZFOKqkCudbt/TDP+Dp26bk4hvpt9Yh0n+ZEOv7K55GZDnMjkvdEYLxsWjGHKZnlRSO7IXuHU0VpAJtrQ2WZAMWPDdY04EsvnlmMsmjcyJZ8W0o+yUUjrOSVY201+PDoev7lUAPV3ewWGZjZQ7o5inJUr4aL2/ohF+/vTs7Wb5C7k+d/u0hfem6LMtPxNGircxHiTjBhQWadoG2IYAsQxAK1Mm4JM6ZpcvhEuZ5KURliY1MlyDNFXSembykka0u/mAGctBIK14adpprEEmLbQyST0wv7J5GOQzyw4lE+ijhaDfS6FjpECDDjHs2x+aBFq2kSkl0wU+Wd/5DE7dNsteyO33lTeOBuuNR8wuIhKGZMYb2NF2A4qOZCkb3TiwLCS1l4gqgARkkAsQQuiIrfCBBjELRuDkinETBkafYOiA1hlGnsHggT7GIM3gEIYhID0MiUubCZ6xjgcZtPKcJVJ3JvJgCIVaz4Mk17B7YHIaAi3TRJcm3U36MnCB1SuY6feS5R0LZRiDJQcHwWIfmWEEoa/dH/x0MfmF/LG9vZy539RRN2wIik0g0QtrErdJjWeVSMkMN9hDiLAU2m7AAR/McySGwTWJwyhJTXvAGFjjDBVIky36P0ZUki5krEUCgUCaJAlwtaGc0HuShJMeGxQawhiGdPKMOejObOc0lhJF4axP40xbmvLoERk3SXoV0JkrKhWbL1y/RTs/neLL6Y/33nwLX2NaGbRqDZ4z7kn3Sa4ikDJz0GMTi5emS2EA79K++SOBdA65Ai4dMpOn2ZB50/QMsn0z+0UDWt+VQJ+meA1z+5GSu87oczd4S/5Ra9AJG8oLLvf9por3ro0mKoH+JULv1NVM0Ft46++Jy/r+3sUf4e1cZ9CvP+FXF95bkDrXWSqCPsKZPgt0BtAn31Ls7dnTv+Hnbq0e3xBsWSoqNNNHwy8Xg34wGsJMF5VAt+du5/DF1PvdVsfbCJekKoXeab4ejg5uDXRzUrf35jO4iqLT765wvsT0PkM3xE9/+QJuNlHr93uML5f19xo6fe/8dO/iJ018rdvvrPLlsv5eQ7d/0+PsKdwWtNvvrovlJH+/odu/3nMOt4rr9bs9bznJbzv03YMhQPemg64y0O0k399787zXbH7Y6nZq1Uzy8jeQ0S2jcU16hAfQhwe7FUMXYtqZTpP87S9f/BP/MltnhYXC8T+aEeSUHxVEKtMS5eKwuqS10CZTQ43yukQyMB2NCs6LbOcSlaYZjqucDhGzUpzRUZ4ao9DsiiuDfjI8SKELIbJeRcUcFgT9Alf3058vfqOJrw8663XfVxmh2Y65XFIYBeG6H+XwK304IgpC5bBbucrahYfI2jIxR6ORG2M3CUQqKjLcRTH4YEgk/RQOIgRLDVtlIlJJZ6WgFyiKhHAjaUQ6sUjhCvufpKKPeoO7aRAB+sHwpCropERFQv+LjAtWHcRWRxg2uiHbMq/pe2ffwK9TBq3eqsJJDl5G0IbZ6UihEcpWKEE2hR5BwaAKUegt7IB1y9H4KoC8tmqZqQSXUjZAAu3ic5FOV3gQ6AssDspiNy2UAUH2I5EYUg6CSCBcUKoQGcRFgF4FdaAC+ts9yE0wrR8j9AM8NMxxOplEJ/CCcldZu8poViIyaaUw5EyJJBMrhg5uCXBIoZwIgoiRFMAHiRN03XINfuGy//OLv+Kf6OnUWBimwUYLui9DI9p5TIMo2ZCvwiSSMLOBuOFhJVCFmTwYOYhWZNIOQUYURKJCZkm0wGEo8Ri1j3Aig130ylgxjSMmhHHa9FaY+ZiRpBnFIhM8qjAzbDAYwhYR6VYoTilIHzIikL4yjtFAdpUS6UyyhpgJCunBYxCHyISqauiRFUEjiXRw4dQrnJm802x++zVcD3nUr0kRCtslQrDKOpP2Ttwz5qPcMZY0YumKkh519wmOsoxgz7EMj1G6nxnb7qkk/0SCTGQcVhFVwopnUoWpRBHL+eQWTDgV2UaUZVHOCbMeijRzTNYpldGhosIwlUH/EWf61EVnMffgHlKDQc8TYZg5JIqcp7E4w+Aimt7wjCUqVRKVqo0yj6We2SmmxoaskLwA/cfKoPszxod3jrr1LPEZy4LvXe5m8SuBfnhygNBnpuctRFwvFh/en6L84bIDjbsJPUToBzcFfbHC1jo7C5UBv9PQDxeDvn0j0Dfgy44LlZoI7y707cMPFoR+cgPQV5s7zxYqn/9O3MXXdXxNP1kQ+gcGenC90PlR8/ne270Fyv+aD3vhHZ3pJxXN9OuGvtN8+viS6yqnK2fNBx2+hD7nTD9OlvfYWo5jZz3xr0L7o53m16ePT/fnLXDLmrXiTI8zyqdS4vaoaAWe+LQa6MeVQJdhATOGw6f/pgoaxWEuWvpgPFMYdHmy0/z36eP9eaf5Jty95KE70/2Sof35MPhjUt+3nk9cHMPyULj5Fk+lzRehrAL66PgEoLMQTZJ7PvoY6y28Fdc/fuq8D7MJq8d65FvZGJo49sd66m9UAP0vPS5Ijg4ZDmHyMbxkNida0h1/fCL4xtfcAoIepb2LpHC5pMaxEUMKfTpGlTpGMc0VZwRHllWWJFcYUqV+JOgnx6PKoIObcQo09pExzeSQPopBH3wQnUx57Ga21gewFlux4CT4S47BAGFF0H0ziI1eHFJaUuom+UqpG5KeRCi5Bp2wQH7GaRuU6idu6fzHyGBQ8IHymcDQ7DAqtKOY7DiyPgBNyBDFDqVgR5SfYMWoo3qIkAm+9gicikmW3gfo2xVA30boMc1jctvEKiTIoa21kkNUBnUmYDHFElSZyKGtGMNmjiaN/GqgP+xxPQCJMeQE2bfj0KMjEVVjF0oD6h2bYNsK05FqUl/DdAhdKdLnlGhIx4QkXSso3W0rWjtpQ0OEYd62GZVo+Nki/JBVCj10RhBZMaEJR2mJbau46FHSBKJS0Uw3A2X5ivGaYlefeyx2hF7qZVxSF49vJUoCGDu4/XF5EGcq4oqh8/B6CsW9qpleNlixxn/nSsYJXhX04+uETsVC35yrQLZMBf39Kwj9eFHow5c3B32RT2fgffrdhf5yuCD07ZuB/s3+Ih/IbZ41P+rcWejb7yR03m0++/X81xdzl/PnzQer4RL6/NB/uHboYWN90V+t1n1+R6H/8K5C1yv8g4XKw/BOlqqgH18Z9Ek2H9U7C5UVfvcmuvaYK4B+XA10xacANSffsF1szkPeWNva0j9ra7iB/caaLnp/rUF7WKBm689624Aja42tBu5szCRnOq/a07adxpyblG3bqb1AiMmqqAj6Sw1d8PFyKb3Cgl5nh+fQ8gJmtwW/gnWEFyr4eEJ8RprtS5rkIsSdHUhnY6bdzrfheeN8ihmSdQaWd41s+NtKoLsx5GkEOP0kCjkU3IZmm1fWdgOTPKF4tJMnmUY8EwjupE2bose5HZFyik9Ciw14iiEZkDtO8VQFN8NmmHKzkyYs+e0g1nVtFJfEiyfxShm3rXn+f3bOXjdyWw3D/Tk3kRvIaVImN5MUkQgMxSSA2lSDtLmBHc8Q4Qg4TWoXLty4cuO4M+DsJsUil3GO+P2R1FDz46Ht1VrEri1R5PfzPi+F3UbJaVhwlYtlYhlKcME1SOckZhHof9zwSQ8pIMtFhJd/LMMtiRIeoES8PVkazLKMtkf3lIzykk4SiKS+wJOziDOFguGAhQ7IbYvhWLKAC7GFNBKtCh1fpM0KdInFdGJnQrFh/cVibCxZK/Ff9GARJ+GH/wPoN3+cA/0/CP33H7L17AqRnPIjxoF1ItVg03J0+zJXUy7G8tgaRutZDqpY7g23HLsbPLjYp9SITaPbH34vCL1ZvMxYLuZxxmgKQb97UejzOGu0AP2uEPR2FnSGPo/PGPpfN3c3M/RpQe+R/TVDn6GfCP1qhj496FdFoP84Bv2cf9VP9n8EzduAnpz0Zm//zWegcvMC9TWFK2z8VPtjGeg3HvqyjXNl6m2a3aL2m+PQY5oe6Q6n25Zm8vv7aS64OSReLkTbLkbabvbVmhGpOfJ0NPmWd+O04WcTxWuXHvpNQeht27aJFKJ+E/rFNQhdypGVhIee0k2TCEfLmogr7m4iPaIauICG0TdBYT/T4kbcTQmbGE/kz6SSPkfLBwha5zaG/qb5JrVLM7RDM0jOM61Yd0A2rj560kaXWFQIWRT6f6nrBWVgig1pLZdNgMlXskaeMyEJyk9kHuROskhe3okkQF2RveFJobWIkgffcR/krQZMhJuCNRvSlavEkyX8Q9+ETQTg/ti+TeKMRk5Pw9g4CM5Db+FckFsbqSCRORIOIheB/tvVzRVAX0RYUkjD+QHCNjsWmT2DpYsk2EgcibTIFZfuW4yUGiseyx+VyaK3i70lh1RRCztrFpEzOK5sWgxDtDlVRtvoof/TI/vtLOgf+gj/wOu9eWtj1GbPOxaDA3Xa7rLQn6O9dh6lB0H/cB70a4TuZj2nMAxCv/7w5XnQrwC6mQWdDvSr86B/ydDnk/4Goc8nfRLDzdDnk/406HfXV9enQp8N8rrQe2R3BaD/unCuKEz5J4JzxYxkjkhnntWkLnM1ZejmgFDmoIbOmIwWe7x0AgtnhpsGcZ08c84Mk+QSmbihoUVNDq2LHGxCWHOoL3PAKKY9wcxm8Wtp6MgtFtiwPM6LCY/9on7eOD+we2PwwsH7wqDuIqshPUEyR3gwtoteBHBpTFYyw38gO26UvUbIDnH7tX01WCtaB7enxMxQfiNL/JWLgxsfBH3FvdNvDB8i9BmdCzUbCuUiR4nW8Tyqa1xUpmjpCkG/R+g21NrXCK6mTKQcVQ4T0J4TvC1B9z3C4haUhtW4lQtnkR1pYERYsgv8QRMhHTYWbvKhsJLWRdZyvMWISlQWQmYyuIf1DyXAdrg31BxOUnSJ7B86I28etIKBshytosMQTgkld/wD34d+lTcQOj16g5A9uGJ6hVHD/X6Efl8GuqHBhWErVCO2z0tAXueiK37kiLVzFEL2UCy+aY2Jnxo2CEw6wxIG/Bze0SmIKI+NXA4qhI+ecRwm5OIlbrip5cVkElJLamudS9IlurCfsoV7zwTDcy46DXSyeG0h6Nd40kdlc2ZIzrkxtZ05YhxalKf1pKjuSQVmlrbn1OGOqsGlqfIZLUC/LgTdnD6cmcdZ4wkCqqLQ7cxgCqMM9BuCrmZBpwT95snQv5ihTxb6N//+1xfnQL+foU8L+v1EoL/GPxnsc222E4f+DUFvzoSudiSxqTTWvqyC9uhltlQx6kmljQgzUolqikC/vL5/H0NXUU786b/mheXZuBq89b/ssFa7F7PYItOhzchhR1eMiiO1DVqhYCOyw664ODvYnVgk019cZZRaJQ3ndLG7Bsx37KG/v7++LAZdECN6K96Fj7hZMoQl2WyWsKVu/WfhFHWfY2wlvJUVeAHKY0aLP2CyX2y322BLjqaskOSilMr4l/PKPhUmFUNSNj24yiaMgjm4e2tT21t8Ru5REpRqi02pMIQNKmHjMmuz0NsS0K8u7z30VmF9CnuVZuETfvwxP2QOX/AjayjcpmIJ/G67BU4WlmNTKsjOKtH3AQGxQkfBnMH9loOjCv7bghhNjAk5rMJtkBlqU2SHLWmtomYiPxNohTVDGuhHAS2kAhWqyJnif6ZDj/uSrZI3hcJURpqzSqwNoqCnDAlAR8RCOjkHisxOAfGu/baHfl8Ieqfw44wwDH60EZPRFxy5e1rCA+pVCkEqXGF7ZiihoTWo5xbaQgEU2kecAQ1vaQdKqHBGsW+oGL5AdS2iRnWpOslq0Tx9sC2G9ndbSgZ2tkr28ucqIR/zVPxZS4ZICST1VjFj1oOVgS9bWkXnBC2ssG36IOYWVojxYbWlYP61xihYau8Sgn5VAPq3bYdf31SUHir0aAJ1lCN8ujN0KBhUpBzwCh4KN7zGQi4T6UWotopoqGieA9nBpGhNr1kV5bKWjUB+NrSBjUIJAy35ERUQiknLij2/E2xYfVRECGS4wkGPkXNs6Adbg9d7MegRl4zc48OoI0d0lmSrySU6nFWUtcnpOqbcnaXWntxTbovNFI8Nbw+qatXxw5/0ywLQLz10rV5j2E8oyovkO7vU9udi0H9+JejzOHF0ZU767Qx9UtDhpN/O0N/Q0EWgX99eztCnBv3y9nqG/tZe74Wgmxj6axngbRqvey3o3yXQu+6YQo5ZpPOhutEbXUKu44NIdborD+hZzoX5DqF/fQb0r3votxH0LlDadLsEtZepE738jea7DnfLFG3SrNaOYMN1yYJNd8B6+gnvhSSkziDskL4+yeGpYSRHr1b0pEvq7TKN6FT+nIs1Qr8tBr2jsqBSDb+RoZ/wT/0CP682wEQjdKWl1Q30HzfXb9W4Lm6MJeF9+GxD6kEeeNrBdnAf3neDF8dm06GZ+lU6ZqMj9XhGQSYsRmM+BSbWQXj0+dBOOoDU7Md+qw+z2YUEIvkFHSXqUCrNJ2ODutCavgm2hqYjo6lN2K3TggpBf4ihb3w5pLpWWhPpjujhHGqGNNHDHf3WovBmg5ZBWSmiX4GRQY4O9NP0eoA1gFhDGr9V4xayXMcZNp0Uqzik37vR6ACK16EdQFZIqDUeP80qbqg33A8E6IcPv+EAWBtGVVRNp7kgjaXAdmzSuwsMAVVRMo2daG5IKW5MUZPeD5AHJFfoaNRS8x1BfygEnUfX6XCt01p1etdJiXyHb4UQplO8B6clOItPASgZ202rqBJZGapQnR5qmNRG2mdKlqX8W8kPzaaXahAM2Q+fd0R3N/DOBL3fo+KkH0We1WmZKkiEmSIJFO0vBP2WTvpIE08cAUuXjZvN052QvduzuDu92m5/lE5Hr5SdRd3+Qse63bO1G9sL0G/PhH4P0H8xtX6usddNnZ7HKaOeCPR5FIX+C0C/n6HP0GfoM/TD0B9m6BOC/u6n9w8loP/507sZ+nSg//lQ5qS/UzP0aUBXRaA/wkk/F3oxz6xnsEdAfywNPeFX18cjrmnxatwBIdzaR6nTaP4pQV8d5bL1esQudSZAna9+fcB4NddT78SpjzoLsKxO5tZhph53ehx+RZKUgv6A0GvJsxrvIK50RYBrVsBfrFYrob9GJnWi0Joe15FodZKkHki6DjeUhMPWmFGn0SQz1BIHq33qGrasMeuK15Nn+ycUqk7zwyS1JiWuIqvXiUh1tD3UX9dJjzXJWNejFquDSVaQGqE/nAn9UqBDTK+UVFzj6JPWNXfC5OnJCjoPe2C7MGIuweysZ2+WtR8yW0tU2sbxyCM1aYUL1lDRmvSpWX4dlwE5Yt4g39rnxZ5CVPQI90tdywWdVdGAc4Qtcg64XB1WrST5WmLRTD1YK4qJgtgdqoVFEfTLr86A/lUMPW22BnPxteeTLiEdVsliHasWK5UqGou79p7RO9kppN4pTKdoZHqdzaL57zq53em1HlapaUfNh4ycuJatSa/BEDtxVnQo6vyCpIxRmWo6PqWgPybQX2Xop+45ZWPE/elZn6mZo+N66I9nQ/+I0Kv60x26ngeNCqF//Pyhz2OGPkM/H/rjDH1q0B/PhH47Q58W9O9LQP/78eMMfVrQPz7+XQL69wn0N2iAqbRcaYR+WwK6rk5WpfqkeVXHbKrkpjq/pepZhKleHDqLEh5W1c6CdKo6VPUTCB4iUuWqGRRaZVNUR9SSWKLKF3iEDnlrVCdaqRT0jwjd91Zh4f5XJYmqqHlcQX/5kmSpIn1iPTBYldUpypEIB3uq/7Nb/rqV20oYf6EUKW6yQd6FogoCOvmzSdbAAiwpIBUfYB8gxS22cbPewq7spIkB242bBdIY9lb2O9x7RA6HQ0o60jmS10c5w2BtiRwOv/l+Qzk5q4rsWIWIDpBVCwI8V/h7ReusqigkiAnHZSSr5JhVhZ1QpQ0SHaPdQ/ZXVHg4DSuOOjNXPfTPs0D/8XUFRCt4qCoyE4ykpCGMdEMV6wm2Y6MkiatWf1SEOqaNh64qkipMrEJa7K3kiQjPtRMdmCrGkuW0yWNfVpkL2C1EZdoztDzUWCVXKdQey0QcIXT9OAv0T3ef7zz0vFhadOoUnVhVaY90+ta3kGxeJd2W3MMuEKuE3KrrIJJxla8GO9ta8MBV594s0aq74lXXzlVyq1ZV0mWJy/3uNtDXyD7NA30EstEBw2M1NdEMGsYmftajVlvueP3j80D/khbz2G6oeaCf3o2AzmOvoN+dfvp6DuiKDT0Y6F8H6JYNPTzofNMPDPrfDH1J0P+eA/rpGvqKoS8H+ilD3zMqI+deFPo/W0O3pIwv3yrWegX7gRNW7LOmpxFq5aH/Mw36+Wk3dDVEXrVqtaF+ZW1fGrXeZsk6jbK9ViqH28K8JeltutOS7rBVe9Yns6pb23C3d8Va29ueQ5nVUM+ozEwP/fR8NuhKea3KJsKVt9mZiE6imPUmS+0IZJT1QQrSrsNjXhUaRqn8ziiE2ZyqvADcFnBaJO4SWVthQutSQGcoUNjMqiBYRbebI1QQ6trBb8OCE4oKLLB2Q3v4U0CEC/cexEbzxWOhNjUB53EanPOSV3/MBv2nlbdFuR/+dxXfFLjgSlgjxj5wUC2Y1ywHfx0P5RkEep4gvtt4onvylP2G4EZIY0FUc92cNrDSUVDAUnl/rPc1sLEKcgXA/lPjBEUVLsxFxYKV16pgiyIFKMhUoX6XyIbqwARnScgJFVVV2F9VxGCIgE72V813GtQP3TPjTV9DJwIqil9BlVaBP0gKSws7wqulSxZahmRM3FUx1trk3KgC5sADG9rRBhZpmvRgoshmdVng33U09FGHCvpmk5kK5yplkw1VsjWmTd+pw95fuPCEw+qnGaB/RujDw46ayiZtV5xVrSYfOUYHjhHaXu3om8nJp4wq6QI7H/TzsdBn8ZfHpNFAXyP7vG/QeTB0HvsH/ZGhLw/6I0M/ROjfTYF+93jO0JcG/Xwe6JVhPxcxKg/9bgr07xj6ooaZFfphWMbQA/RHf9PncMSYZyRlJgM0z9cqZhs/zDToj5Oh3wTofcpMr+Um7xQ64eslSYzZpmaD2/qsChFmK1NNV+uYKM/4Z6K1t5E3cTbJRjMgw/SLNek6QL+ZA/pv4aYbQyGhcEOVGhPUGMRiDGkEY4J7PkOYCCaasBahmtwhY3I3jBflj06iM3VGEdGkO02SF6oAETAdpGEbJG2MYVk/0L4MtZsYjY1vMrFpZqqQOB0rcgszQX/00KHDDR5vkI9JFoNbfUPlL+hmksTEkugJWGUgkqdFUcFbFWdIKloL7iIhMb2Kq2RH8BrdSM+PLWJSzJ0mKJOfgdYYEy9Ka09atdNQ/W8N/XEi9NMIfZuhnjF66raRGdUOB6qBGNWbRU0rCndVv70cdB4vNAD66VToNwx9WdBvGDpDZ+gMfQT0M4a+pGEd9LOp0G8a6JbtXBD0G4Z+UEMB9G+nQv949IahLwf6x8nQzz10xXYuYkj1xkE/nwL92zX0s49Hvyv5b3XpXwj9bB7ob6xklkvQNSf0XW/6DLvk8i6j3LJ+OcozOQ7677NAP8ug91GQVJjMJ1ri5YjCaIawTcoNm2R3ardHys4DZPuw5gzp4mWSYYtGjbKjJJpD9vayj8p+YMq8Bpmd6aGfTYV+hdC9C9INA67gK5aCVWKMBLtlHBAZYEC+xG7qP0bBfzQE42T4GTZADGhKD6fvQUaQJOkvCboIM0lNwDlQh28gXKJ0uiGahsJj3ijdyDQAbcTrR2r0FXjoVzNBT5G1h6E8TV9A59Zo/Xbzsk+HGQgwAyHSjDik76TO5qaFmPjPbDzTbHbCdBU+C/RHvOmSx94PhP7I0Bn61tCvGPqyoF8xdIa+O3QeDJ3Hfo5ZoN/cXzH0Jd31n9fQr+5vZoD+M/9FZ+g89h36N5OgP3jomv1cEPSHSdC/YeiHB7256fcMfVnQ72e46ff8N30xQ88KnW/6QUG/Z+hLg34/EfrZ5f0DQ18W9If7yzOGztAZOkNn6Ay9Df3h3wZdP0PkcysZD/2XNfSH6dAvPx79soauddSpOxRrMqU7CuqIl5CyK1ZnG/P0rXSojy7pbi04q5NDdIzVvZSG6tyOaFKHHtMjurs4HaFfToZ++3D54egtQEdLNf4LStwSjNSRZs1Nah29hQUXDVshKLc3bCIF64RP0grwQxM3fWriMT2GLmmUQ5lgTVonh5OTIGuoHLJgAGlbHWqVSb3hBCKQXIe8fiwtqI13R5u3Rx8uH26nQ4ebTg0MFWqqRAd0Or55+0lPIGjSJVImS4QpWIMuBYclNolEx+OyTkzUEt0mDUUABZXYu9jZuKaTSakTUTo2sCb9oNNjiTIyJNadrQZB8V6RLkFVlLmfeNvc9NtZbjpcVyIxLTszO6tB6mRfvkj4t11pWaQp7w63iP2tzTLTRlLIzrNzXVL2yJLt2nIfIplsQ+YpbQOZd0ZaICkpfIrhpn8/BfrV7aWHTqR0w+s1YSPFkXEDTbBxUo4+WW5xYE+NcoxWuSFQbug7OXyag355ezUb9C1qlDvhGmv9LqGLGXJSyBzQvx+AzmPfWmYm6LcMfVnQbydDv2boy4N+zdAZ+pbQ7xn6IUK/ZehLg37L0A8R+j1DZ+gMnaEPQ7/+cPQrQ18K9F+PPlxPhf7A0A8Q+omHLtjPJQzhoZ88zAK9+4ySbX6BUT439MuT651verlTdNm1cWyqsjzwxnTQr08uv3op6M5v0eO7YyvIUjkJUk67HAG9nNLA9MCyN7Dc5uxy8DYMf971c0IXZaZLdFJdzwv/WKIsaptozY5hEg4vo/P9holhnALkiFxOX/4Sg0rYiRFlm8PA8WJsW4huK0Q8HD7vE6F/tYZ+AtCFv7Ul9T01pURtSFwQvY4yzJTCZxLeteiu6OofAUvwAJ+Jkp6aIBJdWZqzRehCkTgp4iF+dxNaxqgSZIuQu/m3Fi3goZkhPZN5EqW6/aHEMmTLRcZOTb9XpT9K+9NC65Xk/gkH/WQm6I1Uz91JEsEZ74cIFQSojZBQXAl1lm5NlLAebBSN6lK4lnWhJcDR8N64704NB2vcSRsBWg24xjT+CaSFReF/AGFgh23jaEOhHkApPNQSoPiegN9gjRBBic/oe8aJh94WQFloDBcgTUdlzgfQI4JpJfYImOobzZflEpVe1/zQBQzwj06UQuSrguxwL2U24QoXNE4nEZ4GWdVkH9zcMlLQaXKd5mmnz8Wg7jL0ckunaO0Aif4WlEmFuhWNCrP0RB/pytwZ4TvI6Yv7ofVgyf1Nnw/6xuonDj24ttv5Ws+hrn2kLkdUoAdLm8m89GbNAv3iJIHOY7+Hg35ywdAZOkNn6EPQbx30Hxj6UqD/4KDfMnSGztAZ+jD0C4a+LOgXk6EfM/TlQT9m6AydoTP0YegXDH1p0C8Y+kFCf8XQ+aZvBf2aoS8N+l9r6NevpkL/i6EfIvTXDH0p0P/L0Pmm7wD91fXTxXEDvWY/lzCKBvrxxRNDPyjor2eEXrChhwP95OmYoS8N+vFU6O8Y+vKgvzth6Ax9S+jvj/l/5BYH/f3km/7EN31Z0J9muOkMfTmj9tDfM/S9I/PsN31G6MUXL2dxrfbSgueC/jTipoeWqEdSL4q95VlMQlfsEF/XRW+enny9Pheigf40D/TeauouyTtataFl6tHGFqk1RTFi44aYglZab8u9Di2Osy5HeC9m/0oU5RzQL3LoyU0o8qYkHsN7XXu36rw0UnbfxS8IPre/yGz3DVe77e6cgmSFRU8+CiMSmyVHoOi6Qq6fO0C3p0g7FCnwIt7nYggsuFAkjuBPYmzjArZg0fF5f3p/MQ36nwAdjCuCQQXMFFSciBH+VwMjbGmINC/Q+NDzhXfH1RGLbvDVoauKkMEdV+DpddHRg26XI400atwOvVE0O2sKI/3I1r4yd0oNUsmlraNK91RHXE01UVIRmrCAnEXaCH4ptCr2ky+jSLvfpxBwh4qCfv4KjAHof178ZyL0d+5vejAgWO1rwGsCPQBEi+C0IwN+ga3QDQXgEWBrXUB7NLQpzdgqdRHuAOBzu0PvCGjAuoYHHwJqi9iu5MNS4F+n8EGCTQX0xP/bMXuetrkojlPS8pIXyKsCEe1GBFNk6VkyQJZEIQIWdqdLVagEhV6pEmO9spHBEl+ggztQqxVrB7P0AzC2nyCDs2R+zrkvjg2Uxk3aOur5SQRw7Gv7/u7/3Gsr63K8e8PGaN+ek9ueZznM2rzKDS5XjiFv7Om+0S+38O5Qk0HbkKVGNiEHumH4xhzfQzkQ5wHp5ojS/5PSsUWjLe/d64224dOsrOveqOTODXHvKg5ean1DQPRm21BRb6tp0BsevPdEZ6lzqm5U3/jHxuBUbWVKFSqvVPJ9ePFRO4omdNni7XrGtxrq1tUF8U1qEHojz/CVNFUgZROqB0TDIrU4euV9yTjLi/EnCg9XveV1He/EwXdtfWzSrWt2IKSrjpIXqD7k4BtgyCEr/xMbvE7QDdmD6luvGZVUsVX0qxxahjcwfKfxtaDrgfaUcyMo3suLMClO5btUfXBSdUCwdW94qMtW1yUO1IN3NSh/XI+4Q+6sfRvf+NcDJxK58Yaz7t25HjiP2oDSrbFJN9o/R2/fc6/ekf4L9H4ZP27XaN/TOT8jeBLj7vYHtoQ8wwOtGLdHx317GMGxoRt3GjB+0LIRHPUBBQfjkO6aQvrvxRjp62H31B/sz+FOZfzSWBy5Tx7wfFe66Y6a9KGkG3/M/z+Ibtw38h6S7vwR6f8yxu9vdPhTjEe6a/1h6ZT0kaoCSrfcSZNOREG6Q9InS7pD0kl6aOmXJP1flb5P0idL+uVo0jsOSZ8k6fsg3emMLv0zOzul7pwMTs/Y53FItz6zdyR9UqS/Y5/N0aTntruu271ip8+pOyeD56fsCp1th5Y+70lv4qj5xs5fnFN/TgIgin2D6mw2c0r6fBjpq+vldLzpOtrld8b2SfpkSN9n7Pul5rjNeLy8vhpG+pyUXknvapZ2+YWxVyR9MqS/YuzLJUjbTVek9DBz+iKXvqOZWrf/kr0l6ZMh/S172e+CtB0ufTGM9PmZhUVe3ncaXc2hV3KT9W7G0bqNHV7eFxdm5kNKz6dziW2z08P6fkRRn4SgH2F173XM7UQunV9fGl76FEhPLSwuFfLpSm6352hW74Ydk/RJkH7MbnqW5vR2c5V0vgDSUyB9KoT0GErfqZuajDpV+KjXdh70bk8z6zsoPRZK+uxcaubRWixZriQSTacDTwDX7PA5ZT3aGOfPD9k1PGN3nGYiUSknY2uPZlJzs8NJV6/k1svxXIJH3Vy+YSfvGHVslGHvTtjNssmDnsjFQz2xBVdy2WzTdbVet/+JHR+eU9ijO52fHx6zT30o7q7bzGZxHRdi8S6ki5Uc1PdqqQFR75n9j4y9eX16TkSS09dvGPvYN3sQ9EapCtXdW8cNJx1Xck9mFqdhUo8nqtWtOrde/HrAmH5ycnh8dHCwj7wYK2d/8/CzF7+Ns992KJdwcHR0fHhyosNS++syd17fqlYTcZjSpxdnngy7jvO9iMX6Xq3ucuuWdXH1gRER5cPVhWVx57vVqqjuYaZ0b1Jfim1C1LOZDFrX4JHf7X+/ur758PK9Tp0cFU7fv/xwc331ve+anZ6GzjOZLAR9Mxbm1YyUrqJeyVbBesNyIOwd03R7feBCYNv8U/7GX/Jv+f9FEBtRf1/cgzzUDrbobcMGZPv2rQZsO9CM/3v7IvD34DN4kbYtf7y2bPvu1V3cvaVbO9u+w2z/Uf7mbHlLg3btC2+TrW7xdgu+fX2b0UfPNUF5T3OsxlYmU81WVNBDSBf1HaMOs3oOrW9tF01HKxZ7rmNZltm9NIlI0O2aluU4bq9Y1ByzuA3OM9kczugY9BDVXa7fMeqwgMcCX9tYaTWKloVtA8vLRSIiSBeQdavYaK1s1Hhxzxcw6KkwQceXcvMi6ljgE1WwvrHX2q4vu5Bzy3E7RGTgtddyl+vbrb0NcA6Pa1DcY2sY9PnZ2eGdq1mdF3iwDou52kZpZetZs9Go15eJSFGvNxrNZ1srJVAOOa+keXEPOaPL9++wgMcCL6xD2GulUmllb2+r1Wo9az0jIgGoaLW29vZWQE4NYi6cY3HnS/cwQceoiwIP1jfBOl/N1Wq1p6XS09IKES3QCsjBdXsOnG+Cc1ncQwVdreW49WQ+Hedhz8CcgeZrT4moADYg4rDmyvCYx9P5pHCeClvcZYF/IqzDaq6cjucSWfSO5pESEQGECxAOxrOJXDxdhjWccP4kbHFXBV5kHdfwZa4dvGerVa6eiAogBLQkuHJ0viRyHr64qwKP1mEND2HfxLTHKyAe1KN8IhKADCBXiWPKNyHmsG7nzud+xbnf+vTSamE9iXEH8fEKkCMiQCWHLkBJGkOeXC+sQsxHcs6t4+O61B4rQNxBfBndE1GBC8lDyAtSOa7b537ZOZ/XwTqGHbSvrcbA+/p6MrkJ5IlosJlMgpRCLLa6Bsox5vhS5tedS+s87JB28L60ugrqYwUiMoAOkLIExnnKIeYjOudPblx7insH8YvT09Nra2tLRCQAFSAEtEDGF3jKUfns1Ig8ltrRO4gH89w9ERHQxwIKB+NS+eOp0eHawTvkHcXPCPlEVEAhKcw4rt/Goxyto3bhHSMPpIiIwHVwMdz47OMxOR94B/FSvfgk/jJSxpwQPlbjyrsQL5kj/jp+H4/Hb9xnPuie+NtwJVMEQRAEQRAEQRAEQRAEQRAEQRAEQRAEQRAEQRAEQRAEQRAEQRAEQRAEQRAEQRAEQRAEQRAEQRAEQfw7/A8/omgrb73sKQAAAABJRU5ErkJggg==;" vertex="1" parent="1">
          <mxGeometry x="10.230000000000004" y="1219" width="60" height="60" as="geometry" />
        </mxCell>
        <mxCell id="SolYquduVEcN4SEWnmSy-83" value="Internet" style="ellipse;shape=cloud;whiteSpace=wrap;html=1;" vertex="1" parent="1">
          <mxGeometry x="123.8" y="1265.1699999999998" width="108.99" height="72.66" as="geometry" />
        </mxCell>
        <mxCell id="SolYquduVEcN4SEWnmSy-84" value="Ticino gateway" style="rounded=0;whiteSpace=wrap;html=1;fillColor=#fff2cc;strokeColor=#d6b656;" vertex="1" parent="1">
          <mxGeometry x="266.35" y="1238.5" width="110" height="30" as="geometry" />
        </mxCell>
        <mxCell id="SolYquduVEcN4SEWnmSy-85" value="Vaud gateway" style="rounded=0;whiteSpace=wrap;html=1;fillColor=#fff2cc;strokeColor=#d6b656;" vertex="1" parent="1">
          <mxGeometry x="266.35" y="1330.92" width="110" height="30" as="geometry" />
        </mxCell>
        <mxCell id="SolYquduVEcN4SEWnmSy-86" value="" style="endArrow=none;dashed=1;html=1;dashPattern=1 3;strokeWidth=6;rounded=0;" edge="1" parent="1">
          <mxGeometry width="50" height="50" relative="1" as="geometry">
            <mxPoint x="291.05" y="1301.14" as="sourcePoint" />
            <mxPoint x="351.05" y="1301.14" as="targetPoint" />
          </mxGeometry>
        </mxCell>
        <mxCell id="SolYquduVEcN4SEWnmSy-87" value="&lt;div&gt;Regional&lt;/div&gt;&lt;div&gt;Api Gateways&lt;br&gt;&lt;/div&gt;" style="text;html=1;align=center;verticalAlign=middle;whiteSpace=wrap;rounded=0;" vertex="1" parent="1">
          <mxGeometry x="272.6" y="1411.57" width="97.5" height="25" as="geometry" />
        </mxCell>
        <mxCell id="SolYquduVEcN4SEWnmSy-88" value="" style="shape=image;verticalLabelPosition=bottom;labelBackgroundColor=default;verticalAlign=top;aspect=fixed;imageAspect=0;image=data:image/png,iVBORw0KGgoAAAANSUhEUgAAASwAAAEsCAYAAAB5fY51AAAcn0lEQVR4Xu2dX3IcRfLHswZpzduyJ8CcYEXED0l+QpwAOwLpFXECmxMgTrDmBIhXaSNsnwDtk2WxEYgTYJ8A7xuy7KlfZGvajMczU3+6ujWV+nSEY2NRdXfmJ7O/k1VdXeWEAwIQgEAlBFwldmImBCAAAUGwSAIIQKAaAghWNaHCUAhAAMEiByAAgWoIIFjVhApDIQABBIscgAAEqiGAYFUTKgyFAAQQLHIAAhCohgCCVU2oMBQCEECwyAEIQKAaAghWNaHCUAhAAMEiByAAgWoIIFjVhApDIQABBIscgAAEqiGAYFUTKgyFAAQQLHIAAhCohgCCVU2oMBQCEECwyAEIQKAaAghWNaHCUAhAAMEiByAAgWoIIFjVhApDIQABBIscgAAEqiGAYFUTKgyFAAQQLHIAAhCohgCCVU2oMBQCEECwyAEIQKAaAghWNaHCUAhAAMEiByAAgWoIIFjVhApDIQABBIscgAAEqiGAYFUTKgyFAAQQLHIAAhCohgCCVU2oMBQCEECwyAEIQKAaAghWNaHCUAhAAMEiByAAgWoIIFjVhApDIQABBIscgAAEqiGAYFUTKgyFAAQQLHIAAhCohgCCVU2oMBQCEECwyAEIQKAaAghWNaHCUAhAAMEiByAAgWoIIFjVhApDIQABBIscgAAEqiGAYFUTKgyFAAQQLHIAAhCohgCCVU2oMBQCEECwyAEIQKAaAghWNaHCUAhAAMEiByAAgWoIIFjVhApDIQABBIscgAAEqiGAYFUTKgyFAAQQLHIAAhCohgCCVU2oMBQCEECwyAEIQKAaAghWNaHCUAhAAMEiByAAgWoIIFjVhApDIQABBIscgAAEqiGAYFUTKgyFAAQQLHIAAhCohgCCVU2oMBQCEECwyAEIQKAaAghWNaHCUAhAAMEiByAAgWoIIFjVhApDIQABBIscgAAEqiGAYFUTKgyFAAQQLHIAAhCohgCCVU2oMBQCEECwyAEIQKAaAghWNaHCUAhAAMEiByAAgWoIIFjVhApDIQABBIscgAAEqiGAYFUTKgyFAAQQLHIAAhCohgCCVU2oMBQCEECwyAEIQKAaAghWNaHCUAhAAMEiByAAgWoIIFjVhApDIQABBIscgAAEqiGAYFUTKgyFAAQQLHIAAhCohgCCVU2oMBQCEECwyAEIQKAaAghWNaHCUAhAAMEiByAAgWoIIFjVhApDIQABBIscgAAEqiGAYFUTKgyFAAQQLHIAAhCohgCCVU2oMBQCEECwyAEIQKAaAghWNaHCUAhAAMEiByAAgWoIIFjVhApDIQABBIscgAAEqiGAYFUTKgyFAAQQLHIAAhCohgCCVU2oMBQCEECwyAEIQKAaAghWNaHCUAhAAMEiByCwmMCGiHwuIh9NmuwEYJ2IyBMROU+Aqtf+WkTuikh7/Zciotd6LCI/JVzLfFMEy3yIcTCRgIrG/Yl4tEKVcgkVm28mYhM6TwXxkYjcXtJQheueiOh1Sxzq079ERO+t/1Rc9d+3Be9Rws6510CwekPLhSsjoEL13VSV08X85yLySeACKlK/TlVvy5qroHzaxaCpClEFcp4QqyB+kVgdFjAp7RIIVhovWtskoEJ1UNg1FZhlXcPDSVcw9rZatek5uYeK1O8BgYwR2tz7FzkPwSqCkYtUTEArDh0/Kn1otaLduUXHH5HVVXu+jo11sfPBpCsY8lO7nzp2tpJHKcHS8vbjiYcvRESVmgMCq07g4WS8qg87lz1bOnak3cGUo2u3UCtIrSRDx/c9VJuhe0b/vatgtQN4+1N31L6wOq3JwAGBVSWg1YpWV30coYdex8t+Trzx/xIrstnLa7WnbzxDR8j20Pm9/r2LYKlYKXT9tZh3hEriXh3j4hAIEEjtksUA1d6FjjPFjIf5mAtOtflPxxcCN16wQiVm1z53YjxpDoFoAtoj+DG6tchvkx5DOwUg4dSFTfVa/0y40A8iouNQuceNFyztgy+qrhRq11+E3MBwHgRCBLRnEJoE2l5DJ25OD3mErh3795QuqXYH9VnrMjZ84wUrVNIiWLGpS7shCegLIn29H3P03UuIndrQdUqD+opgBSKOYMU8ErQZmkBKZaOTP7tUNTG+afWmwyvtW/bpc/QZ0m5gyqc+i+55owUr5i0HghWTrrQZmkBo7LW1R8etlg15lLZb76XVn/6viosKZUmxRLCosErnLNcbgEDsg9t1kHsAV5JuEeu3yWkNVFhJuULjFSIQO52hxLjRCrl9s8ewYspquoSrlK7Y0hIIvSxq21mbR3ijKywECwGolQCCtTxyJruECFatjyt2xwrWP2pYHyohnDe6wopxni5hQjbRdBACKR8dd/lsbRBnEm8S88zqJU1WWDHOI1iJGUXz3gnEvCxqjUCweg9H+g1ygxL6LEctQbDS48EZ/RJAsMJ8TVZYMeMACFY4OWgxLAEEK8wbwQozogUEBiGAYIUxmxMsXQdLJ9+FDiqsEKE5f9949OtHt15ffO7FbYj3G87N3TDgrzO9PPfOPRcnz/3Y/fbL3maJ786WWv7Z0dnGSMafj53cHk0+X/FePnJONrzISzf17dtY5Nw5dz6UbQHkCFY4J80JVmzQLQlWu1Kjfuul//Slg/pX5GhE6vLiay+yrw99gYueeHEn3rsnpQRs6/j0S+9lX5zsuPm7rsSZ7eVQnDx+trutKyEMfcTmrtqVO747tE+x94t5UabXGlKw2qXVdfmcqB/anKDEBv06BUtB6OJo7YekqevMz9vccjYxNAF0NnT2sf3o6W1/6b4T18t6S41d3su5Ezm8WL/10/m9T5P2tlMh/dvrV/dF/INOIjWHkFZiIu7hq7W//ZBqVzbwqzWwYpcmznk2OpjW5Gq7aavGSQXd8sfPujfi9IKE6qtugLFUuGaDojvQ6nIXsYubdQnQPAHQ9YG67HSrQqML7c9bmVEnu+oHrcseWj1fN9HU82M20cz6NVIhWH998d2o2wqSSexbgTjb3VKbg8fW0el97+SgtFDN3jjVrgWGt3HTpWNKVKhBPlMN9AHTXWaiuM658Lx9EdpmmrO51533fK3Cmu7qr66lv0hjlm6PNi1YsdsApQQzp22Xj05D0y2WVUWa6LpsbkrCq/jpjOjoQ8d/nIx/LNT1i75v21ArLi+jbxZ1FSdjaMsSKvmeMSeoXaN1f+/03p2cqiJ2IbwYU3Lb5K7uEMrZ3OuuomCF9oFQm5fuDjQtWLoK47Its3MDmXpeblcydp3uefuuxZ47z5foRd4asXLjn/uuWkLAtarx3n/7y96ddzbmvG77mmrLuW/OvtpK2Rcv9iVQCEuJv6d2I2MXE4zOsSVOXPcYVoxYteYv9HcacMzcqhJBjblGauD1mjHfN2q72W5cF7HS64V2+H3r79bxqT6IX8YAGKLN2PtvWtG6brF6WwE2Yjr6IuFlQcq4VN9YU78/jN0X8dsC2+Zdp2Bpr0XHDmOGWZY+U9PCEOtQ30HPrbBi7Z8WrK7JnrRX3ObR0xPnXMw4Qt+Mm+tfVVqj5sVBWuXnX4h3j/3Incyrhpoxuss/77qrN4o7Im7e8r8LfWztShCtVfixTcqFifM5OZubG0Pea9rGVLFaynFasNo3an/PJVLovNytslMDot1fHT+IVf157iUNum8ePz104vTFxuKH1cv/xPnHTtz5G/Hna2vyfNm4zv8dP935QNyGF78h3um8rZSto5q3iFeCFR67897/Z+zk4L+7d5Ztwf6eb58dPd0fOa2A44VL7Trb29bqNeaIra5jrpXbJqcKSs3ZXNv0vCHv1dqpBYGOh6Y8Y0uf/9mul15Yu0jt2tLzAGmb2Icidq5Su361jqnkDLrmBERB6hhC7pE8GKrTGMaX7tw5eedHwU9EyvsPHiZUFXPtnkyVeDCZ01Xkx0ftGzt/N1WoZg28Ei4XvR+gF//92e6dmE1J9Vb6cOg//eFd9ICUzl196aKCr2KQJOI3oMLKGWoJvnDLGStK6UblXD9XQFJ+QbRtaD5OO5lN22pSttMh2iTNsrMRrddyIF5u6+x0caPHiYPM0ffdPH564MTpNI/sw3v5zctov6uQtgZM3pKezIr2IgMv1m79o+A8rVXL3ZScjRXuRSiHvFcvYtX0BDIyedWC3rqQEhD9FV40+K0T9nQwNOcXMwNnv6dol3Hk3eNYgZi2RsXq1fqtnYKC0Vx+0o0N/WA0bROrrBDMVcvdlJytRbD0BzLFVi0MNC7XPtM9VxBDSdf1F0S7cjo5dPbQ7qv+MuR2SXPt7v28FIFojdFuoJfRTqnKatbJraPTh+LmxuHdpl6eP9vb1tfcJQ4EK0wxaVx25nLa3U/ZJTtJrHIFZdWCnlphqSDNzjfrEqRwCqxAi9Tu4fSUhz7Mbz77ubx4HlP5jf3o00LCuWq5a6nCShUr3fdRx5CTCoSb2CWcff6CA319PLBDXzNFIPRt4Nnend4/z4p5a9p0C527V2icD8EKJ17qj3fKhND27ipWGoukb1tvaoU1HbKcV9HhkK9oi1iBeCP+i65vBGMQxFZ9BcexEKxwYFIEK0esdIxYu43JYnXTBSt3gmo45CvaIkYgdKD9bG875XvKbG+3jk+jvl9FsIos+VK6+6nDKjo1KCVXdGGDlDGu93LrJncJS3yflf2wXseJm/9+dtd5r0m27Pj22e62viXt/UCwBp3MWVKwUmevay6lVG4Lc++mClZnpe/9ae7hBjFvC92a/yRzxYRki2MqvmYMK20C6TI76BKGoxQSlhyxKjZOfFMFK/fzn3C4V7hFaKb5kN1BxRQ7taHgG0sEK5yfywRL3+rp28DYT2102oJ2+99ZFSRswuIWN1WwUr+q78J4Zc4NVjRefni2tz1v8cNefNg8Ov015hvGgi8BEKxwJBcJVurs9eQ5VmHTbuZM9xs32N4mQqiiKVjJBHOv+ebxtdM12ILHs93tnB/WeddFsIK05441pYqVLkmu1VjU7PWwSX+1yEmEVQt6603soOKNFazQ8jYFK5lgDsZOsSg8J2zVcjc2Z0PjSkHeHVZrmF17PXSv7DlWoQvr32+iYJUIfgzb5DZadby5/ODjkYw3vHPLxwmutvVqZglfrq//FvO939bR6e/iFq8qW/hD44X+N9uEubEu7RNzlHxriWCFiU8/Hzmz17MmhIbNumqBYMWSKtyu3X9wLLLjvOzEjOUETfC6+oM81y2+nPcvxzI6nxazrePThQvd6beDZ3vbsYOpQVMWNUhd2bTwW0sEKxy5VrBSxWqQN+8IVjiARVtMNiG93+fWXrMGN2ule9Hv9hZO8ivc9ZrLTOeBifc/xq5p78X/dLZ7p9NEwxlDEKxwNuviALoq7qATQsNmUWHFMirSbjIHSpfe6P0bvSyDr3aQPvTeNcvq/LK3Gbv4YvB2m/9+9rXzPnn7uMLVldqJYAWjldxg0M/bqLCS45N+wmfHp/8acg/CdAuXntEIWLPlvLiXTZdzMna26Cw38rd1gUInvl0FNNmknt5YIljJkQjmRqfNhFPNQbBSiSW0n6yQ8HOR8amE+9betIeuYIsEwQonh86fSllaWyeF6kz2QQ4EqyfMiFUeWBWrV2sfPoh565lxBwQrDE0H3fXD5qWbpcxcZjDRQrDCAcxqsXV8qksAdxiv8i98M1DuXnrxVzvb6O443k/e5DU75KT8Emb5MeRJBb8ZXGQ2ghUOqApWu0R47GYzetVBxrIQrHAAk1sEP4GZc0WdVuBEDt84/zh1LSp98+jdm0bIJlt+XYmavxLMVdoLcT5M/+KNyH6q38mBYdA9Zk/MdlqD5pCOX6aIVrGPnBfFFsHKyPplpzRdwdcXv0e/ur/a4uvhq7UPH/bUDUra9KEwjsDl/Iuxl4N29+kB7k2FFYY8PXF05UQLwQoHMKlFSnXV1640swaHbNJxo7HI4eiqArl6w9fbDtX+hRc50fsNUFHNokCwwtk8+yXISokWghUOYFKLzePTP+KqK//iYu3Djb6qqmmjQx89L1szXeeP6bUmYva2myniPlq2y7SKsYhvpkE0Gw240fnog/H5UGttLQgaghXO5nmfrukgvI6jpoyZ9tI9RLDCAYxuEbmi59XwUrmNFYL2rdJHz0Fj+22AYIX5LvrWVme+65hWimh9WnrFBgQrHMDoFqFKpr3QEJ/BTBsdqvoKLt8SzeqaGiJYYfDLFgdIFS3daEInlhZbZgbBCgcwukWokmkv1NMs7rl2Tj6y/mOZEwjWXDo5z0Z0rkwa1rC8zKxP1ypaOUFZtV+pFuiQwZ+bmKFKpj1pqGVc9H6hddyHrvZSn+jC7Vctd4fM2ZL30sX5QpuZTIeuWKWFYBV8IpYt3zJ9myErmlA3FcFamAA5z0ZqNpUUkdC9S98rdRXSIqKVE5RV+5VamQorTrD8i2e7d/StyyBHaNE+BAvBmiGQssBlqmjpG2MdiM/aRFXtRLAKykaMYA0pEDErew5pT0HUuZdatR/b0lXPMi593StVtHQAXgfis0QLwcpN/TnnxQiWnjZUlzBm3XRd3O9sd1t3EboJB4IVjnJKhdVe7UBEdK232CNbtBCsWMQR7TaPTl/GfJA8hGCl7Eoz5JywCIx9NkGwwnRzBEuvqis2pKzwkCVafQuWln7NAnADHH2VvNGmx05rGEIgNo9OHznXbLUUPHpcfyp474EbIFhh4LmCNYho5QiWflu0dF7PFJNepucvYH79gnX89MCJiymNnzzb3Y4Sk3B+vd8iZcZ9e/aQW3zl+FToHAQrDLKLYOWIVtJaWjmCpUYt3H1lhscgO2lM7nntghWa8zTNpq/Jo9oVHL92v8Z9z/iXRTqW5f3oi1/2NovNSg4/G4O3QLDCyLsKlt4h9llsrYkWrVzBijVI3wR8kvtGIMz2nRaxNpUIyELToruFPQjEZEeeR8v2HlzGtNldx7kHZ19t6Q9NL4fOvF+/vGzWWCq50UWksQhWGFSJ5yNnhYco0coVLF2R8H7Y96ZFCQAxt1oJwUqpslQgxuLvlVhmRe87EvcotbJaAPbkjfjvS9il12/WCHvz6ksZ+7vT42rey/lo3d8bcAUHBCv8JJV6XnsRrVzBSp17Ufyr7TncV0Kw1K7YKuutD14OL9ZvfZuz1EyzW/Rrdz9mV55mVdOUZZWntv5KrYaarumb0ecqUuJkZ5GQqmid7W1rfgxxIFhhyqUES+9UXLRyBUsN0VmrKUtN6FwN7Wo026v3cKyMYE02oNCNS1P46Mjg4VhGhzHi8NnR2ecjGe/Hbsiq61ON1v3d8aU7T7arDdZkZ2n9v2+3/Zr8zXl/u+2KepGNlEqvh/0HF6UXghV+8EoKVitaOi76cfjWb1ssfFmXK1h65dR5F601Oq41PbCr4qdfgLf//bGI6O6zqcfKCJYa3mzJLuOTbHG4WpXzai/At4LhdeOJj1IFYXpl05Qua2oActuP/ejTgQb7EaxwkEoLlt4xdYUHPWfulKgugqVG/Br2P6uFCtaDxDNXSrDU9mZr9rE/7CBaiQjebz5vGebPjp7uj5z7sfPFC1xA7Tvb207ZFr3LXRGsML0+BCtHtLSoeW+ooItgqRGpU/LDuP5qkTrupZXZlxE36Csgc289qbRUtFJ2H4lwI6rJk4u1W/vzxsauKi2tkl1KqR5109hGbTd1wEH3lB/Zrs9GDIYhf2RjX5T1+XykVlrvxaBEUFQJ+3gYUyedxornIPunTWdrs4je5cWBuOg3qzHJvrDNZHD94NnutibpwuNqh58/HzpxKZ9UdLLt7clefrhYv3WQ86KhowExcwh19+PJ/o8d77b89NicTX0W5t019l59Px+dfjRKCFbOm4CYLEgFF7uomM4L62vgf6lfV5M6RWfD9yYQ+pnNaE0OUqqWIexqwejqEGMnB6WmTMQk0kybmKpmqAnPMV1UFU9djihrdYMp32OFYojnI2aWwdwYlBAsZaKipYPwMV2y2BxL7RLqdUPVXp/lbqxf0nyYfOkeiPN3y3TJmq2zDkdrcpgiVLMGT5ZT3vde9nvowj55I/7hNQpV626oW1JKIGLzIfTyqkR11doy5L1C/i8TLY2Bxum9wqKUYLXG6S+GdkO6dhFzf+FUOHWwXv9NTyl4MflvOs61Usdkzaod75tJlbfjBOztNvaPx3500scbtslkzx3x442rHaSXb+s1C1UrKSfu3I/cydlXW6vGXR8GzdPZnZCfTPJk6Ap8Xnetr5zVe63K86G9IhXR6Wf1N5Hmo/25MSgtWNPCpTdVAYsVLzVUKyRN7hIJ3uynN3F86ATsJIrTW8/PXuj12ofn1zDu89YMFbK1138ufKu3tibPu1R5ncCln6xdrXb1V829rt2udAvePUNzVn901Y6+VzkZ8l7LuLTTmtq9D5d+y9qXYM0zsDWs/dsqJEjXBON8CEBgQAJDCtaAbnErCEDAIgEEy2JU8QkCRgkgWEYDi1sQsEgAwbIYVXyCgFECCJbRwOIWBCwSQLAsRhWfIGCUAIJlNLC4BQGLBBAsi1HFJwgYJYBgGQ0sbkHAIgEEy2JU8QkCRgkgWEYDi1sQsEgAwbIYVXyCgFECCJbRwOIWBCwSQLAsRhWfIGCUAIJlNLC4BQGLBBAsi1HFJwgYJYBgGQ0sbkHAIgEEy2JU8QkCRgkgWEYDi1sQsEgAwbIYVXyCgFECCJbRwOIWBCwSQLAsRhWfIGCUAIJlNLC4BQGLBBAsi1HFJwgYJYBgGQ0sbkHAIgEEy2JU8QkCRgkgWEYDi1sQsEgAwbIYVXyCgFECCJbRwOIWBCwSQLAsRhWfIGCUAIJlNLC4BQGLBBAsi1HFJwgYJYBgGQ0sbkHAIgEEy2JU8QkCRgkgWEYDi1sQsEgAwbIYVXyCgFECCJbRwOIWBCwSQLAsRhWfIGCUAIJlNLC4BQGLBBAsi1HFJwgYJYBgGQ0sbkHAIgEEy2JU8QkCRgkgWEYDi1sQsEgAwbIYVXyCgFECCJbRwOIWBCwSQLAsRhWfIGCUAIJlNLC4BQGLBBAsi1HFJwgYJYBgGQ0sbkHAIgEEy2JU8QkCRgkgWEYDi1sQsEgAwbIYVXyCgFECCJbRwOIWBCwSQLAsRhWfIGCUAIJlNLC4BQGLBBAsi1HFJwgYJYBgGQ0sbkHAIgEEy2JU8QkCRgkgWEYDi1sQsEgAwbIYVXyCgFECCJbRwOIWBCwSQLAsRhWfIGCUAIJlNLC4BQGLBBAsi1HFJwgYJYBgGQ0sbkHAIgEEy2JU8QkCRgkgWEYDi1sQsEgAwbIYVXyCgFECCJbRwOIWBCwSQLAsRhWfIGCUAIJlNLC4BQGLBBAsi1HFJwgYJYBgGQ0sbkHAIgEEy2JU8QkCRgkgWEYDi1sQsEgAwbIYVXyCgFECCJbRwOIWBCwSQLAsRhWfIGCUAIJlNLC4BQGLBBAsi1HFJwgYJYBgGQ0sbkHAIgEEy2JU8QkCRgkgWEYDi1sQsEgAwbIYVXyCgFECCJbRwOIWBCwSQLAsRhWfIGCUAIJlNLC4BQGLBBAsi1HFJwgYJYBgGQ0sbkHAIgEEy2JU8QkCRgkgWEYDi1sQsEgAwbIYVXyCgFECCJbRwOIWBCwSQLAsRhWfIGCUAIJlNLC4BQGLBBAsi1HFJwgYJYBgGQ0sbkHAIgEEy2JU8QkCRgkgWEYDi1sQsEgAwbIYVXyCgFECCJbRwOIWBCwSQLAsRhWfIGCUAIJlNLC4BQGLBBAsi1HFJwgYJYBgGQ0sbkHAIgEEy2JU8QkCRgkgWEYDi1sQsEgAwbIYVXyCgFECCJbRwOIWBCwS+H+ygeWWPjYNJAAAAABJRU5ErkJggg==;clipPath=inset(33.33% 1% 33.33% 0%);" vertex="1" parent="1">
          <mxGeometry x="291.65000000000003" y="1368.49" width="59.4" height="20" as="geometry" />
        </mxCell>
        <mxCell id="SolYquduVEcN4SEWnmSy-89" value="" style="endArrow=classic;html=1;rounded=0;dashed=1;" edge="1" parent="1">
          <mxGeometry width="50" height="50" relative="1" as="geometry">
            <mxPoint x="171.23000000000002" y="1265" as="sourcePoint" />
            <mxPoint x="171.23000000000002" y="1231" as="targetPoint" />
          </mxGeometry>
        </mxCell>
        <mxCell id="SolYquduVEcN4SEWnmSy-90" value="" style="endArrow=classic;html=1;rounded=0;dashed=1;" edge="1" parent="1">
          <mxGeometry width="50" height="50" relative="1" as="geometry">
            <mxPoint x="191.23000000000002" y="1230" as="sourcePoint" />
            <mxPoint x="191.23000000000002" y="1270" as="targetPoint" />
          </mxGeometry>
        </mxCell>
        <mxCell id="SolYquduVEcN4SEWnmSy-91" value="DNS" style="shape=process;whiteSpace=wrap;html=1;backgroundOutline=1;fillColor=#f8cecc;strokeColor=#b85450;" vertex="1" parent="1">
          <mxGeometry x="126.90000000000002" y="1175" width="109.26" height="50" as="geometry" />
        </mxCell>
        <mxCell id="SolYquduVEcN4SEWnmSy-93" value="" style="endArrow=classic;html=1;rounded=0;" edge="1" parent="1">
          <mxGeometry width="50" height="50" relative="1" as="geometry">
            <mxPoint x="81.23" y="1361" as="sourcePoint" />
            <mxPoint x="132.23000000000002" y="1324" as="targetPoint" />
          </mxGeometry>
        </mxCell>
        <mxCell id="SolYquduVEcN4SEWnmSy-94" value="" style="endArrow=classic;html=1;rounded=0;exitX=1;exitY=0.5;exitDx=0;exitDy=0;" edge="1" parent="1" source="SolYquduVEcN4SEWnmSy-73">
          <mxGeometry width="50" height="50" relative="1" as="geometry">
            <mxPoint x="103.23" y="1252.5" as="sourcePoint" />
            <mxPoint x="130.23000000000002" y="1283" as="targetPoint" />
          </mxGeometry>
        </mxCell>
        <mxCell id="SolYquduVEcN4SEWnmSy-95" value="" style="endArrow=classic;html=1;rounded=0;entryX=0;entryY=0.5;entryDx=0;entryDy=0;" edge="1" parent="1" target="SolYquduVEcN4SEWnmSy-84">
          <mxGeometry width="50" height="50" relative="1" as="geometry">
            <mxPoint x="229.23000000000002" y="1283" as="sourcePoint" />
            <mxPoint x="284.23" y="1254" as="targetPoint" />
          </mxGeometry>
        </mxCell>
        <mxCell id="SolYquduVEcN4SEWnmSy-96" value="" style="endArrow=classic;html=1;rounded=0;entryX=0;entryY=0.5;entryDx=0;entryDy=0;" edge="1" parent="1" target="SolYquduVEcN4SEWnmSy-85">
          <mxGeometry width="50" height="50" relative="1" as="geometry">
            <mxPoint x="226.23000000000002" y="1324" as="sourcePoint" />
            <mxPoint x="266.3499999999999" y="1353.5" as="targetPoint" />
          </mxGeometry>
        </mxCell>
        <mxCell id="SolYquduVEcN4SEWnmSy-97" value="" style="shape=curlyBracket;whiteSpace=wrap;html=1;rounded=1;labelPosition=left;verticalLabelPosition=middle;align=right;verticalAlign=middle;rotation=90;size=0.5;" vertex="1" parent="1">
          <mxGeometry x="171.23000000000002" y="1081" width="20" height="130" as="geometry" />
        </mxCell>
        <mxCell id="SolYquduVEcN4SEWnmSy-98" value="&lt;div&gt;DNS server with&lt;/div&gt;&lt;div&gt;GeoIP routing&lt;br&gt;&lt;/div&gt;" style="text;html=1;align=center;verticalAlign=middle;whiteSpace=wrap;rounded=0;" vertex="1" parent="1">
          <mxGeometry x="132.48000000000002" y="1106" width="97.5" height="25" as="geometry" />
        </mxCell>
        <mxCell id="SolYquduVEcN4SEWnmSy-99" value="" style="shape=image;verticalLabelPosition=bottom;labelBackgroundColor=default;verticalAlign=top;aspect=fixed;imageAspect=0;image=data:image/png,iVBORw0KGgoAAAANSUhEUgAAAUAAAAD3CAYAAABsKI3TAAAAAXNSR0IArs4c6QAAAAlwSFlzAAAsSwAALEsBpT2WqQAAAVlpVFh0WE1MOmNvbS5hZG9iZS54bXAAAAAAADx4OnhtcG1ldGEgeG1sbnM6eD0iYWRvYmU6bnM6bWV0YS8iIHg6eG1wdGs9IlhNUCBDb3JlIDUuNC4wIj4KICAgPHJkZjpSREYgeG1sbnM6cmRmPSJodHRwOi8vd3d3LnczLm9yZy8xOTk5LzAyLzIyLXJkZi1zeW50YXgtbnMjIj4KICAgICAgPHJkZjpEZXNjcmlwdGlvbiByZGY6YWJvdXQ9IiIKICAgICAgICAgICAgeG1sbnM6dGlmZj0iaHR0cDovL25zLmFkb2JlLmNvbS90aWZmLzEuMC8iPgogICAgICAgICA8dGlmZjpPcmllbnRhdGlvbj4xPC90aWZmOk9yaWVudGF0aW9uPgogICAgICA8L3JkZjpEZXNjcmlwdGlvbj4KICAgPC9yZGY6UkRGPgo8L3g6eG1wbWV0YT4KTMInWQAAPSNJREFUeAHtnQucXVV979c+j3kkmTwJAhWkloDNyCMkBBEjwVd5WWlroHhbL2IyIyjg69723tbmYL2t+KEFTYFAAtLaijK1th9QKrU6qOWVCbkxdxAEEQWTCCRDJo+Z89z39/uvvU9O5pUzrzMnyW99Zs7ZZz/WXuu79/7v//qv//ov55REQAREQAREQAREQAREQAREQAREQAREQAREQAREQAREQAREQAREQAREQAREQAREQAREQAREQAREQAREQAREQAREQAREQAREQAREQAREQAREQAREQAREQAREQAREQAREQAREQAREQAREQAREQAREQAREQAREQAREQAREQAREQAREQAREQAREQAREQAREQAREQAREQAREQAREQAREQAREQAREQAREQAREQAREQAREQAREQAREQAREQAREQAREQAREQAREQAREQAREQAREQAREQAREQAREQAREQAREQAREQAREQAREQAREQAREQAREQAREQAREQAREQAREQAREQAREQAREQAREQAREQAREQAREQAREQAREQAREQAREQAREQAREQAREQAREQAREQAREQAREQAREQAREQAREQAREQAREQAREQAREQAREQAREQAREQAREQAREQAREQAREQAREQAREQAREQAREQAREQAREQAREQAREQAREQAREQAREQAREQAREQAREQAREQAREQAREQAREQAREQAREQAREQAREQAREQAREQAREQAREQAREQAREQAREQAREQAREQAREQAREQAREQAREQAREQAREQAREQAREQAREQAREQAREQAREQAREQAREQAREQAREQAREQAREQAREQAREQAREQAREQAREQAREQAREQAREQAREQAREQAREQAREQAREQAREQAREQAREQAREQAREQAREQAREQAREQAREQAREQAREQAREQAREQAREQAREQAREQAREQAREQAREQAREQAREQAREQAREQAREQAREQAREQAREQAREQAREQAREQAREQAQGEggGrtBvERCBw41AGLgwqpM98fYRrzncKjuq+kgAjgqXdhaBOiaQCRNu68ak62n2z3XryyXnlpdcJsB3RcpkEs6dl3DdRydcK9Zv7QvdcYuLg/arOESLIiACIlBHBKDVUZCtuC/pMt9PTVjBliOvFSHypJDEOQ7zdNhX8DC/fqrekUYg1vKG0tjauo4FjjfZf+hOckHwG1ieB0HWgu80/pHCIprDe13gduLHNucSP3Nh6WmXTP3ErV30AvfYnyAA2zamXM/ikusIivvXHz5LEoCHz7VUTQ5nAhR8O55LuzULsuVqXvV0i0vufSuE2nsg7JZh/W+7VOMMl2zwu4Q086H1a9+VJj8odwH/o8e/lHcu35fDzs9CMD6CAx5yQcMP3NrTX/YZ4fPabze67RcWDjdBKAFYvsJaEIE6JbCiu8F1tFJA+bRy4zKXCK+AsLrEpaYdD6HnXAGbC/1U8Cjx8B9Q4uH5ZjPWHvP4Wcd62xR9M0tIwiCRtHySyKsEZS+3GxoiBWHiq+7YMx+EfbBgJ6cgXHPRfiFsKw/djxjKoVsDlVwEDlcCtO+1rgjLnRPtG66AQvdRl0yf6xrQqi308R/SisIJdrswSELWVT7ToZd15T7giBR3Mfvegfs6x7zwD20z2ZB26WnIH7KusK8bu69DzuvcnUv2WSa0O2bO90LxEOZfCeAQroaKLgKHEYHYznfnErRNkdo3vA8CKAOBdIY1W3N7uZZaGNqxsW2Pwqss6Lg+4SAPXSJq7pblIhU//mP3knUORxojjjChyLax7UzhRoEIQdjs88rtfhH73OjuPOtW7m2dJa7DuY7LeO5DMkkAHpKXTYU+bAm0daWhZUWCb9MCFxa+BG3vAmuWFvoosShsINkoqNjUddw36RKplGPzFS1ZE25sDpeK1NZ68b8H/1hBARlipwCqXTgLO7dAuOELncjMqgiZWsxHeYZYicxCSMvAUcOEVtiIZjL279/1Y2y7zq0782HkCUE4oIluKw+NDwnAQ+M6qZRHAoFKQdLedT3E1U2ucWbK5XoLEER4VuOei0jwBYlG1zDDk8n29mH/LdAQN7igtAnK3DMQgL+CDGNv776yUKWLy/zOZleaM8sVc8chywUQbmdg/7Nw7OnQMuegRxg2QGiZJbZ/I0Hoe1IoHEvYJ20CM9+/BsLxU5b3IWoblAA8Eh4s1bH+CcTCr60Lmpn7J9c0+2KXhfIWhhRC0NosQYODNpZIpiEYnevr4cqHsP1fXJD6nrtj0bO211g/Vj72epdMLoMw/D1kcbFrnjvN5aA8FnPQMtmehhZorePQa53NcxOubyfsg6nL3bozul2l9jrWMtT4OAnAGgPX6URgEIFYcLR1nYptD0D4neD6X2OvL2xvQcqVomZoAHtcAwRf/y748YXrsPUut/as/3dAfsyrcRYEFWRh9uiS+fC1sul7Q7Tbaue6OwJ0rgSu+6mEO6YhcNldpbKGGGfW1nUChN0fQeh91DXNOi7SCL3gC6CJhuZfk3cN0xuxLQ9BfYVbd9Y3zC7I8w0cfRLnW2ffEoB1dkFUnCOMQKz5rdzwbpcIvmXNy/w+dnA0QPhhDG/oe1obZqApvIedEmtcrniju2fp9jIpCj2mnufhsDzGDom444X53LkY5zQ3GgetbhrE2bVY+6euaeZs198b2QQhjClXXZCFRtpovof5vZ9EB8nNNjqlsveaedZpkgCs0wujYh0BBGLh19Z1KToivglhAgtbnpofPJn5aIY52OgazM6X3fVdtEKvd3ec+ZSRoRtK9yuhu29FCYKSkmgCE+yNGRagM1F2dbn2yfkuV/qCSzZdaebAYhZCOkDTnKemkEYTuWl2AO00AwF6g6NAzXDjRJdtAquJrCQAJ5anchOB6gisuA/OzZfloGFdDO3pAe+WUmQT02tz6IZAj2sD/PyocUHwLVljGWfQ4+oWFmrXxIQwvPbBhrLz80c2XuKK4d3QBufDRhkJaysZO0hC1zQn6bI9n0F5P2fN4TofQicBaNdOHyJQQwKx8Gt//BznUo9Y/0KpAOEXNysh/BpbGlx29y+hGV7q1p6xCbIlcCueSh8wIqSGRS4HXKDz80f+62hXauiAsHs7bJXeLrjfLcehgyaBnuurIQTX1ruLjARgLW8inUsE4g4P9rgGqS0u3Tgboy2gSQUcwMv2JITfzEZ0TDzucskL3D2LXjMh0lpLrW+4y0Rt8Dlog9F45PauL7uGWVe67GtsArOHGP8cR4fmMMcjF/IXuHWLv+OufRbD5yrGMA+X/RSslwCcAug65RFKgEPb4k6KVV1drnHGYpfdAzsfbX5M6FCg8MvtgkvL4nfhd1iXGlQsxFnkto03o8wfh8BmZw1cZWhWg5tMsjEN9xk6YZ+KHuZf1quLDCS2kgiIwOQTgPbUOt8rHG1dX3TNcxajV7dC+Fmzl8Lvh2g6vrNuhR9BcaQKhbktL/4EOj7WoAME3tMcMcKEpnwx1w93HPjsBF+xVTa6BQzqLEkA1tkFUXEOUwKMq0f7WVvXe1yq6To4MbO5C6FhMiHv0tNh8+t9Gna/9xiBuIe4XnFQk42F4Lol10EIfh1CEB040GJ9aoJWmIWgf7tr7/oTW0UGdZbqTiLXGR8VRwTGT4DD2OiqwuFi2aNh95u2APH3spB9jebnx3G8pcJeVwhPc3ef9fzEN3tx/swN/llfvRq9yhPomlKOCoNztG3sgsvOmdBsKQQ55hguOnDXDhmEtbjQrTv7p44RpzvrJ4pMfUhkht/esRRvjwXg9uz4b7gx5YBzz8vhrYx5FCYqzA8v9qmvT7p5L2G+hXFedN5oDnM47PjF1Ly0OKrguAdQjwzdHcafOCb1mAdRpxpd83lvCKds7ot203zyrv+oP3HT5i7A8DHvQ2ejKSAiGMQgLH7Q3b3keUc3l0xF7L+xko5HhGzfhHu6A9dtNa4bb53VEFRdKRstsh33e8dC9j5TGx1b4n1tZQ5yrvjI5RB+m9FzDefpAsYvQ8MNYQ9sbEkjvuDf4ATvdfOXj/1cYythnR9Fh8l6S1TtY+/6sZaND3hlGvi7cttIyyzHWI8dKd+xbmPTzAbmjzUDagrRyIWxZjHe43h+X4bJf5nEzcSrfnQczrnXtUMgtXUV8R+6VV1Zd91z/L3OqmTXGXzGk1iv0T5TvKZ0sxlPYk8v06qNq9zHnkadNrC5X7L/Vfi+Zgvq+/jv2D7UhOskja/S462EeYtHM1a1dZ2P7KZBPS8iTtkUlAvyKijtdqnSc+62aJiRTQyz2o3a6TSu18otr3PJ3FKEGNrk1r/lJWhP8I6vUoOKb+J4TOVHNh8ND4kFrpiEYbmG4dfohmshlxIvufWLf1K+5OWmT3nNwRcoDOJe0Kt/PMcVCqe5RHE6RpVOrlaQSCAwaMiQUNvw/8sDxr2yHquXFye0WVhJIrbltXfdApeR62EXo8aF1g5GTyQbUwhBtQ3uLgvN3WUsTONzDTx25ebfdIk8/AwR4cWV3gD5NhtXEteSHIKXoPQxyOmjYLElzsJ8/TJgMSaNEAI0g/x5v7Zt+C5CeL0TWh/dY9jKxJjhGdQCH8ZQueV2vvgZKZ98ahamQNBEFY0BXPn9JqjI30Jo73fADoKNQxWJz8dQ65lX/OwM3D7UMUOti/PA8Tx/WNyFLJ/AuMw1cEW4n1v9jVFlEzYTpnATFFz7E293YeJfLbxQft8+LL8f8dMQWhwP3MGaw5X72FszeR1K8VaMuZyNfyuS5zFcfaJdjM1ALtVsG7gPWk/FPAa8u+dwGe5F6PVb3N1v2w1Nw9c13n2k71j4sW5bWz6PfK6Eu9g8cwIuHxeXdbhrGu94sO3cL2YT7WsBQIuMifcr/D8OgfcNCMX7y8KQmlMch4+HT0SK+VD7SzX+BE3DmXi5AyZbPShQQ0sSTcZVOO96x+fgnvNZvtGlWMOMXyyMGh0Gq5D/OehYabL7xRBUMCNmRtTK7aWNDk7W7u+B6y6UY3zRnmOGV288zZWCzT5coVUHJ4Mt0HwDs+9G0ITvQjOceN52qtF9xHfc6I6aiL1j58i2rqvdtHm3uX07CCkuT/w9EWeqPg+MPbcHknMs0Kczu/tf8bDDNoOHvZoLFgt1nrFtQ6ebdtR5rm9Hr2uaOxN2nydxgy22wlTuN7B0sfDjA9EwA46mLX+IuxUOBjAb8SFGYJDaJ3LBfwKKCwNo9vf8Gis+iPo8VJ1AjzRf/7L7vms+6i3Iw/vM1qoyLD+eQQgheKvR7Q4cc3tewPdN0EpusxWxtoYfE5Jie17bhj+Dr9zncD/xDU+NqIhhbkkMc9sMhmfYuUbTOogLV3lPrnryQrRgvgBl4s0W6Znh8kML+cznaqjESDMQSk2eR3bXNih+GMJ21l2281hZxGVis75p9kr0DkcdIgjr1TSrEb87UOfLUDheEKRx2B99BuP6nEL7W9TZEbr59nDjcaioCZoJFvKb8Gr3z9hrpUIRD0YRN2veNc+7FC4Lj7qPb5qNi5a3h72ikIMWGWaIiQLOuZno6eN1Trg8XqwhfjOyBlO8n/2o+DDBCE2T+zW2/MhNm/+HKEseb+qClctiw9WQR5l92I+HKQ/frpLd0Knm1+EB/o5r33h55NoByThSOs/fZw0zbjPht+/VPgwYoCSnQKDWM/nX2K5tEYb6flzfXl7jAq7tiYh593fg3eVWbTrDhpnxBVR+OEeq00G20Z7HzozlzC/AXB6sKqWufYUWdNS5L9hPCptqTSM+A95jKbsn+but6zbXOO3baG282e7bPO7fUonnIncKXDYbuMwwVlzmOvbOhjanSHZXDi+FY13j3PVwWfmW+/Ajc40FhdloEyPSMCXTN+FeYaAGaBNUN1FexhZkR8jVG95ogm9Fh78vuHaKEkFMbQrQXLS3M98IpoKVEGMsbW/pSm0nel8MKmx0S5V1x3gHrucx8Xflei7H2+L19hs753azKUwjWxra2z48IK1uX88/4/e77GEfSXuL8/J2ENiVcH3NBQLfAW6C3FGVQj7ee//3apQ2w5/h1yAoFrt9r7JJQqGJvJJJCEVMeoOCxnXmriw3U7wu/h2vq/w93Dqur0xxXvE6npMaRX4f7UON0IpzaFpBjUp8zbU//jM47nYN67rBhyiDl8fVG05xxcR/R52YK9RIvPBSTSk8tKkDtFqWNz5/vDxSHbhv5fb4d5wHNpcThVABSEtFLODiFPoL+GdTFK4buze59ic/4DJn3utdNahuj0M7mbORD3fRnTLrPGidrfYytOYFhoqlmlMQVD9DrL6vW9kqZ3wrF3aEBWsl4Ln5xIvNbt+vv4MX9TK0oHjP4v6ifREpMIWC6/yMb4kkKOGPI9X2zxzHMkIgYuhaKVdw/XjBNc25yIU9m9w1G9/pblv83LDXlecYKnUgOo13+3kGraAO1zjncj9eGNGrSyX6BTahNfQ+HHqzeyVyDB8qnxqtm3oBaFelXNsS3owYSL33buf2bsHVwsMfdZKUd5nEhcCdhIt3GWwnLXhQ2I0/zVwWmua803q31i1Gb10nb5qRBRk1iGBj5WOJQyBF5mwbsK6iLtQCArgStHV9AC4K73X7zFUC9YexPI0HJr+vDzfSfSjTM7iPh3q8KzKboEV2gCRQ15KbBVlwIZrkZ+DaMPMGV4Q21TijweWLa/D7HK89QfOl8K9MFpwTKwrh210DJtfJ78N2vNmSTWgC9m/C/z+hNqj7ZNYJ2lgYzAffVly6pTZCgSaFUpZ1a4Dw64cMaALnr+I6z8D41XW4DrBR2XwblbWpchnXv6cj4lB6L4Q86p+LRn3AUTiN5m++/x6bYzc2eVSZc9nkwON+tb0TL+ilEH7Uonn/IFS9aVslmCv4csHVg6xnfMFi8TX/LAWYSxhzB6eaEtCGUS68AMg+ZGcFbqv+nX14IZwAbe1R95FNZ7m1rS94FniJVZXw0mg3zTGPd8w9yP9yK5ufWwTnZDbB7+PjZtfJDpepTXUgACueF761kg24aMX1iHv26JSgWfnYn+GG+WfcPG9z+b1w4ITg4mQxQXg9mh13WQcHBdzBtIOKakX1GF5omf0n8v0K3CfR1MQhaDLQ6EcNqdC3EdE3LnXrT39pSpj4k/5v8+hPNnzeyhdAqNCInmp6C2Ytuwi2o2+7rRvZvBpQ82ejIifmmkZsTxmEZAoT7BSzn0Ez7ls1rdOHENfO9b4fxfg0BOEboYmhvCFce/Bk5vYi4nLznRCC2xDT7oHRPfgVtaDTcSZDVxcKpHfZQ2+vPggnzuPR10Ohw1YF0vIBvPzaIT/tPomExtaZX3PTZi/FCxpSjM1M3Kc+eCpaCrOgYfbuRPDS+zB/8P3wHECP77Sdrglmh0Jfi8vnTgL7d+McH4Cw+y3T7ll/rz02Q/j1obVxFNg86FY8ciauUR/u/cEvtyELiZU9i32dsr2deGk+g3v4FGjAlHx4kdsL9GzHXur1wc9Hle9w5xvH+joQgFSookTVmc3eYnGOrWFHyRY4ES+Pd5jE707kfeKJKbf+N3/tPr35Ate77yfQUo7HjRK63D64dDa0uu1dS7DXE462iw40b0ZKFdWKdhte++tegeuQyaE5eTpewovszUxBkWjADdO3w/UXf8f9w5Id5nDaCUft5SOdeBK2bW0JzN50x5Ib4bt2NIzZn4Q7B5s64NKEmHX9l+Cs33bHLWb7auiXQ8ALSwT8wsPKplicanadIWwywSs47e3QpNa5rYkvuHTTJ6CNRSWBtl3Kp/Buu9d97MlT3N+duXVMMe26F8bX+k2obKs1u83uFvgQ8tnddD952k5aNnvEMEb43noJm6t5vIiugZD7AwhSCBUETDWwKDtHlNDskuulVv5Zt26J2RsG5EhD3Db8/xBN/c+6k4OP4Z3119ZjnN9HIcUmdDMEaD/MMCj/q7fi91XD2q2xcVDqwAvO94D34355CNroKZiXifcFn284Rs+kS8y5OO7nQ780B+U4aSvqQAAOfAGCUwL2DabtmwquE2MOO+1XLT58B8RNp+/FsJ61EHr/BwKQ3lMYq4nglH15+FRBAHJQO6ZDnbDEeRkspU7FedhMpLZYQBMzBfvj7e4fzt5hbhKZVv+kdvq9a/ppTUI0gwL3RQi/dtzU8N9D705YhPbkTrOysPlrWgql3AiJW/Es4Fhf71peZ5bvhfPQ6WAuJ590Kzd0Qwiux3XmK4tNND6gM/CA/h1+o6lmF5rlHLlO2KGcYttWECxBXpzDIwocipcDzG3I6ru2LztK6PdaTfIaWN7RpSYMPx9pUjwS5abwQ5O3hCktwyLcrc7+pmXJXuitCKjKF1MmKn/G3kIYUfRg0q05P4tn6xbYPh/Cixbh+KefiHyjsgaw1b2KFsj0D7mVG/8RPqDfG4VGHLodz7GiKFfwH2CLkPpWcSuWfYRuGb7/cf+KqVniRa+/xGanpRW1L1tPsxe+Ltzs7RUwEtutjyIlwqOsQNSIJjQ9G+UWwi/OLgnfCjBMoygJlINp7yt8O09dinv3epo5F8XPrZOKQoGeFoGbjYHx1ESQVvuvaj6DZCRUanid2dtKfzv2ztLuuh5uH6XsdWgKssS89mmb9yKR+j238vF3mOP2td+O6lZNpbBPebhXiBaDXU/Y2Owugs0UnTCBe8Ry8h0l1WXa2emf1WTTp2D3a7FoK7T5UZXmxEnmIhVcZMKP9bLOJ5hVzHuBdll26ODfXlJQMNZclLVgBp94pNnC7BeCcyH8tsE+iLpCoJqc5DFIifAG+76Dc4XYBvs54gdbCExh2OXy2degneKZYTkABA4FSIv4YeWzVoP9qvlHfQrAmmOoOGGsjYWl6fttVuXtkyOEOE6VqTzEzH56c0DZm7SGQqJc3SEWWtEE92NYB2xE/8KhlDrPL7jWjoIJQoabz+1GjyVsZzB44BEvmn9cIvVRq9K8J+AClan+WemI7KAhmr/+YYfPHex/7Dgv5nbC1PaU5XvcYn/dD8aN9wXLS/cUOpBn4anAAKo0QfAlxLmBw9Kny8FHWa9qnLrpPH3zW/sgLKe5u9HcTwaXe3cdClTLG64raI0k0m+Dlvh2CFoI0G7fy3ywMnPcONOdS7ZB5P0UbjH4gTyRm1cswhOtPtxnBdZNUZqyE++v78Ai4JpSeWZq7Yw0LdqVJvsf56PdYvsrUYGCi6PmCr3lI5tV+AKL5Y7bXd2NaztX8TFkgIP4FDGMKvKpxS6dOEl0VSpON3hNxca6Xaz0vSuEfwq7Vxbz4lLbK8Kuia/w3egJPRHCD5rL6oE36nDVAgsICjp9OzzkJgDRgcB1dMJ24S/c2tO32sHdHfFFHi4vv/6yDi90gvQlaFLPhZDCi9iaCvAQgJkk29sFQcNgAzAbnYTgBCzvKBJHgHB87u2LfwhBeoc12/kSYOJ3mlUp/aH9ZpO6msQyUAtlCh1Hwfil8rPkjkLfzett+2g0YTtg4j6qvagTd8ZBOQ28Vrh/OA+qpeXRRqrik/2PE3IIWwfeiO2bLnKJxAddnvZiXL4Ary+G+CkkN1ix3MMDC+1XT+hnLFOqMxFN6KmPpMzoikH7GsNQcZifbwpDx83DP3AGmpohbVVInfZ50I9Mxl+4xKy52PcoR5dDGMJ4G/kXavALu5ep1bU+VZ0wmfNGv1/CXWj5eGWARcHbEZvCxC38YUJ3rJMQzWv2N1qY/FsIVBYWEovPHBJNMQFsdhx2R82y2uAcjS97+cIhlMignKzzrBErSl4AxvuVd6jdQh0IwIGV5QWNbICx3WPgLpPyGzfkh7vnooftk3jbfdNuVvOpgpG6CYbsMPx3d9eZuHmxXybjb4xJKYcyrS0BPOTefYfX+N+iUUlwK0FvJYf+BeFSXx6+jNkKOUiKe4CDIgRgMN1sc3YcDrXbOvyV5XBDJ0aKVHEfseltzVmeG4ENvB8dNUr6+qHDrO9ll0p/2/I80WyYByngMJs5Pp0vgnVn/BR5/wCDEbAjbYFssqJfJAwWuLknoTcXqVqNLTbtBO5FPFN2qH3AuOPla+Jov3LB/m01XjK9tMbnHHC6ShlM73yMOAjCOyGIeoEp6U7uGrD/JPykOAs2MuPj0KSYZYZqPxoE681vK4/B3Z+2M1/Z2ejuseFb9lMfhxGBUnoz7r/dsFdB82OPKh7aIPRPJzsPqhGAsYdAIpxpdi/mAxXNH2sv9x1GrBuxHX2ny0EAnsf9EE7qqddBvB0X2RQhDNH7lEJrPZf7sbv9tB4TXmzBjCt1+nO50o9Q9vNQeZY9hX6WEnz5MAJoL70gvP2ymvN0d/u9guQr/kVQVgMhACnPS97drZq8JmmfOhCAYLw/0fAPsddwQmR/27/lgCXAg3Sc8ERVn+OA/auaxjfeAPjCjZAMP4iFv7AexNF67094QZXhhBKIbbqz3cuu170C7QRdwjCzsWeVzVivwfl+XN561aQEfOnM84NBdplwoN1KFpYL9m2s6rANI3/EHgfFLJvU0CjLzwtNM1iV+Jll0N3BZ5kuLONPYeI56903wW1CC6G7qG1aqZ37qdnAD/4Qxk33EryfS2bLjugBhGnDCQ6JRHrWf03BZx0IwEG1htkV4xL97TJo46SuoIGWKj97q0z4YZk9ngxd3jz/M3DqfAeclC90GUSHoRsFe+aUDn0C3cu9kPrFM3k3540YFhc/p1gd4tpn2Fyttnm53PMIEbcsymY/IHvwvZAasuNr/57lpZ5mn0sJvb6BS5kQNWka7RGGe/0SJeo4U2d0fKK0xwtaa3aTgecTBm+0PWg35SMSczrYaRMptqH555+w/fsPIrR/U22W6lEAUgOERzvfGJ77YBTkNty2wXuPaQ3ftAW8vTmCIYQGuO/lHMJ2nYuhR7S3LDPhF8e4G9MJdFDdEKC3AbWxN5ySdr35Jv/+w29rpiFSTQYPfNWp0+8ZwD9v0C2K+zbEsDum2D7m9x7+c07U65rA3MFhioFDIASZcSQ7ggA+MEjxfvZjjB/LcVwn/kPYLq2T2ToeeSo8A3geAncMtiJh/Q0ZNpcH1dA2D/5IW3ltLpID7KjVHj84xwlaUwcCkBzLibYBaoC/BGxvAyxvqukCL8xMjFfF5NWQxEVEDQnpGY9B583z3oZRIp/DWNE/h7bAwrNNMuUXsqZ0DreTxc3M19zR0Pnne9s/KmkvYfeqPfCs82j0lZLrQ7RrHkSpx2Op//CnF1iReYzZjpji5nkysRM66B4cPxs5IUMIEhtOWPotO96GIY6Y0yg2wu6Z4K1NGyBSPETVISgGO0oyXL8aGzLcOnzqeT4iVpzhYErHcx09J0TCxRIM/kxHdCeIZ+xB4DWTmoZB9n1tEDDfmaJmJi8aZvDCOOTc7rfhzXcLDMBvRscImrt4+2Z7ufk6+Djdid65X5ajc/gK6PNQJpDAUMdUMyIBUevCg04tKAy8gcoefAqeg6TuV/w+paA3cvilJIkakbi1SrQpItGhvMNE4kHyfNg/ILed9Wu8eOFUnJ4NwYdj4FpjQTMSp5pDcSbYOf57cXn8MC7bX3aU2Z4IFjNsHNXY3VY0y72dEz5/ZgOM60pbPxH3GIsp/ODFqbNE4PZ6cG55+YLUsoz+Iq1ZkMUQof/Eic+G8HsKY3SpLcMiCCfUplkwkrtLa1konWuyCECTirWnIHgftH6eiOF/0tbjGgZP+DN34lmJ/OJGKkrs2xcmd+J22esffB7H2wr/OJsdznlIYp/BkfIrOxRbc3Sz9SxbexQCulRA72zz0TAZXWBZvAAb4ViTdexBs7t6M1xdgmVR2DPk5x8Hny0l4ShSbOcM3fG+SR0dS12YHjZh6WW/Zuo6QepAAA4sAoAnYusqbzom2g1q/E//q2u6Z0DL24dmx6e8ym6RMqgJ4g9jJ5nMPsSyKR2SBJazg4MPPqIUl8IPQOtnNRAHMc35OuASE/zQ12u5/zrYZybjJUZpFwQgms9JyiRGZ8Yt4iPgvAGCj+HoQxf7DB4sz3JTEr6ozMcEMb8taCuPvo4f5qFQrZOyHVDxsaPPVDRofggTNhOZmw8gT4JF/PulXPllYRsO8sGpVC3Bh7BSkNLMVUCUJZd4yTaX9ztIfpOweaD0mYRTHCzLWOuO9wPp2OQc9875C86bqHb/fPO+stDbKBLpxzE06lcI/cRCUgvk1wm+xCyT0iFJoHJ8bzH4PDR7H+iVIyzsWiOSydpFL5jAcjcMvFGHqzLuB7wQbYKj4AVzpjZbGtbZfePe4LZfeqwd3LrCi5XhcorX37cib4vp4gMI1MDAAuhUMH8YxtdD1KCWsxF9+eO2z/ROxiCsLt84f44FZnCEj2xYjkjfK83MQx/cOFFYmznA7fL2v3jDCN8sQzweOXS/HdXdulOiib1edWHWC8A4fuAI2U3WpjoQgJNVtQnMN9jBGxCDQyvuK4ugO4HnUFa1JUA3JsZhpCtTe9e1GAK3AmG+0MuKyMp8+BktuVS41Qq1Y2kaQrBaAbh/cD+nnuRoElr+ODcMbXbJhrmukF9o+W4dGDXc1g7+oABieW9FWLQEZnBrpAUmRNAG62AJrLkaJG9GwIJ3muC97Kl43uPBeVWuoRcDo8GwlXPNE8ejlF+zERp00K50WKEwowAMwl/7w/F7daVKV5lptOwng3ewlVPYn+xtiigvXgO+GY+Xw11vpZZMO2H1bO2Aifugfl5/KbYBRhbUKSvgMQ+SDwbGt7we3ydg3gRfFO+i4y/elBXuMDhxHA+wlteZWh/jAcZTUK7c8GH0UH4pavryeucw9JFh8r/p1p/9PRv/uuai6MJXyfyVzuhNGWAYkz3bfPC5LocONQSQzZ2D5f8oR06uJlvawzuxY7FwEwKhrkQcVMZjxIsZEjaEaplEPMBi7t8R3/D9bn3rv1mWw8UD5NA/jr+l1ufQW/2RDW92hYCTKr0OQ+tY1wY7Pv7wZYcADJ63VYzeQkE2UoqnQmBMxFTDbN/kxXH0MKd5wWE6BCaLM4kgr1OU6kAADlRC0YIohb5cxyxK4c0XuOVTQIdDlda08gZBCj6Bt24aTQNeKDi4ssxRnD7zBawyqCWzUvKKNPu54niANbvOECLmwgFtnkb/rTO/gKbuJ3zkF9gB2axMphsQbmqPa2CkZKYV/BidmWN+1BPMWHj9uyg4GLoK+UOTM7Nd8E7k+VmbE8S0qyrMKCy3j7L8EhzyMc3mjFsgCFku5gvhl/dBUZOYi7qt60tY/5eYlQ4uPANSxurihRcZ/KrlOuTwV+hMaURnH+/vA4Uf+68DasQ0+wR+GJyNBV4SG6oGnMB+Bm7eSX57WHoPYgxCp8TcI5F6Ge3xw6EOrPW6OhCA/lp4KLQ14EWZTPrucfbEMnXa59R8tHfdgAvY5oNk4lbgBD6MEhMkH7ACeV/AwTdDRbWigo/uIZqa2k7eWS3ABRHg+vKhKk/wjlW1vM6cEyRder/byjlBWuI5QVhvPqBpa7IWCldYOPyxaifsCfbuH0+jst0uNR2zwsFW50JEFcLAjSB8q82Sd/tZz7gbCAQ8qku4q9D8XBd8ETa/d2C+6d/FJEY0zUDCQAiWCpRS0O5mXoeX9R9BEH4dgvd+PFPdEEA9mPHNzwkSlBa4MPkeMLgCgvSNNv7e5uxA/QcWhZoeZyTM7+V4+B9bMcudMsMUeoX5ChZ8SLDg3X78sgl52hK9IlEq/pcdHffAD5PVZK+uAwFYoQFasERo4GG4Ej5PZ+PlNg0XdrAomUwqYQk3ZILnnIMb9RIER2hFbyDfghR+MDjPhC/grv/EZNo/sGIMdwErqhUVlzf6QVLlQdU+EwfJcso3L4hKUNrp7fYmARH0wt5tf4mH9E3gWsNZ4Yr7Z4XL9XLmPw5Zy+Ih56xwcIDZ24bAomOfEIm1zawO3YqFPnRUe9d3oVVCAJoA4Fy8nBqyEVMd/D72/Gu83XnRq7vHTQuE1sZheY2vXOb6g0cg1M7EJPMUgpwVjqNESrg/i2giz0V9roZQvBqaHWaia+ox/0bOT51snm6dPIx5mNsdvbyHEH6sCyUiQyQW+n7qXt8bBUJYMfiF7/f1nz5aDOIIzjgf5+GESHzlpcAZ8QunpSFMH4N54ecmzL1GXnl0TZfrQAACzf4EQzF8mxqmX2XQI3dA2zyc+IiPHrid67ku/o7PMXD/eHu8Pt6Px3KyHLtBYPRjpOAUIkPy5gqS3u3Awo4PZb/AzR5uGJAjKtNz7IB18cmib4vCG1ck+i7FYeMH7DtVP61517K/HlZM1G24oVhxaPQUQizl+/ig44HHQUVMSZlqWoQHYhEe2v21YX7xz3jZzrF/lwOuKfet3B7/jvOoOMx6IjkvsAk+s2Pw2Bw6QJrMBpjf9wEIv3u9Q7GFf688ehTLuP5zuijYICgS9+OBvx6VopaG+mMekDwjHrkr0bFyo801PYqc/dzUFIKYz+Oa7vMg/B5y0446B/MtcwZDNGEpyMCY84NkGYkGZ2JEo0TyGC6aKw7ZF/uxzXo2YI+LQQ9TELry5N3Ddu6DasXQUO+AoLuTpQiujAQtO2xQfwh6RobOIdwcE12QOrHvFKapF4BhyLcWEEQqMlX83B7aInjxpjKhUCibHxOUxXSJmNiZ91fi92wOBbsRhpkrlaMGtnZBaPIeozDEN3sBG3bwoRic4nGhHOxu1TYWvv4By1APyWxh0Itt+B/qwTqhXKwbH6TY6D2wqHSFoK0pg+Ze24a/d9PmfwgPK92LmtAs48TkZlwaeNik/DY9HgIIBcY/BTDmzoWDe1/Pk5BLH3Z3Lvq/vqzL2RweSoRWX6zYteOZXQ+7k1sw8VIzJ0dnvmmrc0PLyW7bRYCa+fqoJx9n7D7ef7e1whYTnuvaN97hGmaugusehStuUtx/vN/sfkKRQ/ghFumLyGWs5WzPJvzsCqJMdhHJZeD9yWMwfzO09UTiX3i4dZ7YwjAfnDExQKh9r9mjZ50jp+g/CyfIBLzM+6CtJp3vpIltpcNkVYvVAytci3NG54iaRgHCD3nv+8qy8C3GN8YU/mPsb4BXXwrzFDfNpoH4RVzD89wdi++3hyT2caok1rrC32RU64NglzWp6ATLibE5tpnuBkzxfvGxO6JZ4YLg12Yw5t420bXdp5HrgTcqxYfU/LvVHhY/iQ3rkkJzkfNcpFC30O0u2/Fg1BqcHvbCPLfnGsw09hg0lmZoJKwjhTudKyf/OlMDSaAtxwnZG2biH6HkC/0/R3CLj+G6LHbrIPw4mRCFy3iFHwEwMjN7YS1iUHBvFBIedeYtgpc8fQLDxP/krn5S+Uzl/W+rR/zg/UchyLLesaTNZfe8Fy2Wp2CiSaPpmYTAIl9y5wsGQs6WGdmIy34d3WhSmKS9aXYa37zZ/HXCDlHitKcccvdUNCrKuS9dOHKPuH9B4vDwfyBfmI1KkJ6maRZs7hLn7ne3I/o2GXSsGHi++Lw1+x4d9Iks1ryTqOWxifllBBn4HoREAs1e9DfZP947eCbK/7BBlJcr13OZ24baXu26OL94//ibyhj8XgrZLWhm/C83PXcKboIf2E1nD8kQMCj42FNnqbTa7dvR49LTW/CQYfrIxJ/batOGBtxoMYudZ94Lo/YDuOmSJjT7e++yc/LAqb5ZWDd74FCWYvEvUCcIeKvbHswaVlG3zOCbmj507C2n68mxu5dBA/wbvEzg0walo3z9Yu4jXdPKa1W5f7y+8jvezm/88xkM4dxXzP4M99xX0Sz9A9TkFNhybyVeq1tHNDm9rZiIj4WeRaHvy9CEelFf3Bu89jCpFKANNkw/07U/8SE7E11zRpsoBMmVLQ7aLe9cDHv1a3+MwKWdJnj4TDW2pNDExz8Evv1j2dZNRwsFwrjQv9n1v3YNNMd/QHkoDyAcqf1SfmKZz11oDVp0iEOgs0UzXIpbRaueOANVvAr5ck9mQA5QIqD4hwh2zNS2kSyGz8t2mvwPq+Xkn2aYM/DC8cFiaus6H5/TALgIwTO15fLNBNj8EMqbPXVxMuFVRQzAuF4rt7zOJXNL4aKwya1/y0uw+aC+QwgI5h8fw2Wy4Jtz3dJH+HPE42yHGn7E5aSDK3288gilzRnF4vUjFcVchtA8Yrr6h3NcofE02IngzxZplyMdO55tiQTMEBaIdBuy+WV5hALz5DXluNyRHuzxnJtCg4K1vesW1zDretiQaUeB5oahZslGaKHZrZA1C1EmjLLAy3NsUZ0D1AOCsOLebOv6LdTpHDRATkfxT0DjdhYo47kih+AlbOuGfHvc3XH2Zqveqq5bMRLmGpvDmM7g9NdJNsL9JbvdzWw4yXGubGptwwotbMvcgH/c3+1d/wkt9B0wZVHTpEKACeFncDL0h/HCWW7nq+Z+sR0n92NqBQ3rVicgRsRsN/FC3rjVv7E4JrNygpqBv4c64SAWuKl4xsl6OIcqQzXrlkNoWNMu2rmaupXzRZ349h/KhFDeZ5IXYk32ziV8QKu/pmMpViz0OaF5qulZaEbTIFv40mew3ZxrxvC7/t6vQHv7oGlz96FZOJ7rzfmZW1dgfo8BrYyRyr5qw1UQfndBS2UMQ9oOKeii3upXP44X8Re9bbRCwA7Mj9GT6M7UtqEdJoa16GjCi44xtYCXhNOYBCm/7wLMW/wdm4HOO2EPzKXmv6deALLK1Iw43MgtwI9naw5h2BNykDYngx7rDUlBcerrk27eS7AHjXDzHFAACIhrH2xw298AX7JRCt0D8pnkH9Scdoy2bhVlotD0I20qVk7iIjuaOKUj3ZZGIxwmokj7m4Z/AfvnDTAf0C7WCK2UOlnRmqT9u69z6zA/MQVYB8f+juJlO1QZeU52TG3fRPFT9CYUPO4Z3F8Uvls3Tjets/3xJegAetTs3WERQovDnOCq0zAd4eD2bnE9zy+yyeFHar1wSk0KtPZN8C8sbkZTvxnfjKEJ7Q+TS3EQQW73A7BVvtdmlKtUDIYqew3X1YcArGGFdSoRqDmBeLQHBUX26C2w7y6APQxCsGwfg/0bprJi9jIIpQ4Tgia0InPBuAsMoZeBqM1AF+P3rkcbbUJ0L7Aew7nnWtBfP1KDJgpvjw+z57u1Z3WafXQ4jZ0vQr7cKSC3XrwR9sYz0PSN6gYtlD3OIZrTYXEhtL+fTlGMz2EJTl0nyLBF0gYROMwIsAVBjcw3+z5mfQIWGt86B/gMwu4NpS+Rvs+t2vjfoHHl8I8ONdgPJyTh/NR6M/C74zjgmzH3NTsqXPFR9P5C+GWpcUJbQ4LDDJyrGa7qxgrhR1PB4GQdMFHLZtsl9+I4CL+9kfDj7tD+muYga/dnJvzIoNJ0MjjHmq+RBlhz5DrhkUmAWhgEELWltq4vQjBcB+8CupREQg5aEoec0SUs1/dZNIdXGycTggtHZ9MbBJjnRoSYTNTL3b7xcmhlX4FNkj6JURlMFGQRCKIRHSHfhyb6Dn/+io7Kynxj2ybXtWPscePsa9HrC0FKnz9L/WiCY+BA7w9g3zzPr2Lze5xN+yjzifqSAJwokspHBA5GoFJorOrqwjjcxfDfwyiJCiFIB+amWRic1/swbM/XmNM98+WxFpgB/qD0I2VzdkhhQmGH3lgLtgo/a6bY5sae9+K0m+CfepWF5mJ0c98jzb1g92uB3a/3eddYXOTWvKV32OZqbNPkUW0bbobw+zh6t6kl0pkaMgWaX7IxjXPAX7Txze62U18csRnNfKYoSQBOEXid9gglEAuPlY9hwq0U7IGNDBUFLQxjea27FE5BbBKb28geOgjd6pL5v3Vrz3nhAGIUiAyoOjCmIEegxAIvPqCtCy4wpVXwhfwTdEgcBaGLc7D5zWYv+0gQEqthRjOar1tdvvgW9+WlwwgsCNdrn2soO723bbgbwu9DLvsahJ85O6M5z7DX6Eih72Uhj15fzO0T9xDH5amjbwnAOroYKsoRQsB6emHna3/8HLjJPWIdrwdqY5BKjJuVSKFJitB55jv4Dciq+1wadrvblm4/KKlrH5vp+hsWuaDEoAtXYFTGfItEYzEE2dNrnRPohUaPb+NsjnH/uUuVzkPeLw45NI+dHZw9z49AOQpl6XDNs5dHzV7kZ57mFN7o2pmZgCZ5NXp91w6Zl+1UHx8SgPVxHVSKI41ALATbui6GtvSAybtSsdKGRiJUz+CGhRBSjRCEHD6X37MDOuIWrH8KTeQXoMjtgCxDNJswhb1nowF6PLa9CYeeBhvf8TaiKAff52Ketj52dMQdn2yyBq55bhJuOT9yyb7fdbcv6xkssKj1wS0r9ttbteFCOK/fDV+/Y9BMr7AfWodOCNtm0mV7PgPh97l6c3lBfQclCcBBSLRCBGpEIB4l0tZ1KZQ9REjB41gyQRV1jLAcfERNuEA4QshxdAY7SsxdL2rJckgbd+O6WBFj+P1CPwUoFnCcjTvkz6iJzQ4QDkXM7/0ihJWfTyRunnPER4Y5dmLkUtTL++HuuRCSN+L8K+1chWxlby+bwBxTHEBbzaDT4wY/wIECvL46PQigMhGbkgiIwFQRiIXgyg3vhmb1LWhsiJeH+H2+d9ikH5bxbYuUYBQ2lHxcQW2O3/znJ22GFDrczm2+qWsbeRy2JRCPKj0dXR69L6An+Bq37qwHbTPtdFvgsH8ym7kMBRYJLq7P9l6DQxGFeuY8LMdl4HA+HIoRIwk4MdLml9/7SQx1u9k6bKyjhuWo7+TB1XcZVToROLwJxJpXW9epqOgD0KROgG2NvcMMaxV3VAzFwMRdeUMsBssrogXulUZUF8501//abgiuNa6v4a/cVzC+9483T3fJncXyHCnxseykSSQ/AAH3UbiznAChTO2UTXQEkIWaibkRkQ/H+KLneE8ewvQKCNNvWLOXkYPod3gIJAnAQ+AiqYhHAIFYE2SPrXP/BCF4MbQtCB1EJCq7yYyFAwSRCazSS2hJ3wMvvVuH7US56snjXLqwDEPjLoVwuxiRq1tcDoLPHKVjbZIiA4KPgrB5bgL2w260sC93687orldXl5GoSQCOREfbRKCWBGIhyHOu6roegu8mNDtTPoI1m7w08GFttYmaH8NppBHmKr93FXpw19uhH3x8nmtKTkd2R0MonowsETEmPAvbTkcTHLY+NGc5d0kpj6Z42X7I9i61upI102mWzPevQf6fsp7heDywneDQ+age5qFTJ5VUBA5dAnFzmDWwsbqFL8FB+QJzryvYlAJ+rK6371VTTwhBBEcNiwisG6DHGCHnbLRGOBPrWyywLbxtrJ+FHSfFHIWc73BhL4kP2ACbIGyK1gGDQLj9u34MOYjgDUsftgJUCm5bceh8SAAeOtdKJT1SCDAsGsfsxgEI2je8D7bADDQvBBrFI8tmKSO2+E4QSC+upII2bOLERrAook+kRPmGfelmaMtmy8NKOx75lLVMdppgJ8QuTCNaNHuYc7tfxH43loPIMqIPp7/rmKigDcOWf9I2SABOGlplLALjJOBHe+zvUGjfcAXE1UcxsdC50ArRH4wIy4ws7QIKK3ZMpNAkHfqZjpvD5c3Wi1y5LyUg88I/tb0GCD4oi5wPpLAPdr5wHWTjOghlSl+E1fq+jwJjPw7dj0oAh24tVHIROJwJDGxirnx8GbS5KyDLLsGcLMebX2DB/P6o2VGbw7+5seD5NtthTIfPO9U/fHE7v5mgQQZQD+lfyLBcHM2W270T2x/C+q+6Y898EL26FLKunoKZWnnG+SEBOE6AOlwEakKAzeIdzyGkFqIux+mqp1tccu9bIajeAxm2DN+/DVeXGdaJwX3oIG0tXH7Hwo4b0JfCli5bzkwMxZXvgwRFNOLAPYJ9IfhyP3Brz33ZtvODnRzbLywMGmdc3uHQXJAAPDSvm0p9pBKI7YNDRbbmPC02DA5D4UJ3EgTcb+D3PAg0tJfjMFUMTur2QtBBw3PbIAx/BoXxaZdM/cStXfQC1lUkaI+cvmCoAAsVe2lRBERABGpMAMKJUZhpJ6Q9bqLScuTFzg3m7UebTFTOdZmPNMC6vCwqlAiMgUCsHfY0++e69WXYApcjEvSAURkm3M5LuO6jE64V55mquVLGUMWJPkQCcKKJKj8RqDsC0BZjE6A98fYRr6m70qpAIiACIiACIiACIiACIiACIiACIiACIiACIiACIiACIiACIiACIiACIiACIiACIiACIiACIiACIiACIiACIiACIiACIiACIiACIiACIiACIiACIiACIiACIiACIiACIiACIiACIiACIiACIiACIiACIiACIiACIiACIiACIiACIiACIiACIiACIiACIiACIiACIiACIiACIiACIiACIiACIiACIiACIiACIiACIiACIiACIiACIiACIiACIiACIiACIiACIiACIiACIiACIiACIiACIiACIiACIiACIiACIiACIiACIiACIiACIiACIiACIiACIiACIiACIiACIiACIiACIiACIiACIiACIiACIiACIiACIiACIiACIiACIiACIiACIiACIiACIiACIiACIiACIiACIiACIiACIiACIiACIiACIiACIiACIiACIiACIiACIiACIiACIiACIiACIiACIiACIiACIiACIiACIiACIiACIiACIiACIiACIiACIiACIiACIiACIiACIiACIiACIiACIiACIiACIiACIiACIiACIiACIiACIiACIiACIiACIiACIiACIiACIiACIiACIiACIiACIiACIiACIiACIiACIiACIiACIiACIiACIiACIiACIiACIiACIiACIiACIiACIiACIiACIiACIiACIiACIiACIiACIiACIiACIiACIiACIiACIiACIiACIiACIiACIiACIiACIiACIiACIiACIiACIiACIiACIiACIiACIiACIiACIiACIiACIiACIiACIiACIiACIiACIiACIiACIiACIiACIiACIiACU0vg/wO+Gn6hs3xo3QAAAABJRU5ErkJggg==;clipPath=inset(34.48% 10% 34.05% 9.33%);" vertex="1" parent="1">
          <mxGeometry x="151.23000000000002" y="1152" width="62.99" height="19" as="geometry" />
        </mxCell>
        <mxCell id="SolYquduVEcN4SEWnmSy-100" value="" style="endArrow=classic;html=1;rounded=0;dashed=1;" edge="1" parent="1">
          <mxGeometry width="50" height="50" relative="1" as="geometry">
            <mxPoint x="170.8" y="1376.5" as="sourcePoint" />
            <mxPoint x="170.8" y="1342.5" as="targetPoint" />
          </mxGeometry>
        </mxCell>
        <mxCell id="SolYquduVEcN4SEWnmSy-101" value="" style="endArrow=classic;html=1;rounded=0;dashed=1;" edge="1" parent="1">
          <mxGeometry width="50" height="50" relative="1" as="geometry">
            <mxPoint x="190.8" y="1341.5" as="sourcePoint" />
            <mxPoint x="190.8" y="1381.5" as="targetPoint" />
          </mxGeometry>
        </mxCell>
        <mxCell id="SolYquduVEcN4SEWnmSy-102" value="IAM" style="shape=process;whiteSpace=wrap;html=1;backgroundOutline=1;fillColor=#d5e8d4;strokeColor=#82b366;" vertex="1" parent="1">
          <mxGeometry x="126.90000000000002" y="1386.57" width="109.26" height="50" as="geometry" />
        </mxCell>
        <mxCell id="SolYquduVEcN4SEWnmSy-103" value="" style="shape=curlyBracket;whiteSpace=wrap;html=1;rounded=1;labelPosition=left;verticalLabelPosition=middle;align=right;verticalAlign=middle;rotation=90;size=0.5;flipH=1;" vertex="1" parent="1">
          <mxGeometry x="172.73000000000002" y="1403.5700000000002" width="20" height="130" as="geometry" />
        </mxCell>
        <mxCell id="SolYquduVEcN4SEWnmSy-104" value="Identity and Access Management" style="text;html=1;align=center;verticalAlign=middle;whiteSpace=wrap;rounded=0;" vertex="1" parent="1">
          <mxGeometry x="127.26" y="1484.1799999999998" width="110.94" height="25" as="geometry" />
        </mxCell>
        <mxCell id="SolYquduVEcN4SEWnmSy-105" value="" style="shape=image;verticalLabelPosition=bottom;labelBackgroundColor=default;verticalAlign=top;aspect=fixed;imageAspect=0;image=https://www.keycloak.org/resources/images/logo.svg;" vertex="1" parent="1">
          <mxGeometry x="138.18" y="1442.49" width="89.1" height="18.43" as="geometry" />
        </mxCell>
        <mxCell id="SolYquduVEcN4SEWnmSy-111" value="Web clients" style="shape=image;verticalLabelPosition=bottom;labelBackgroundColor=default;verticalAlign=top;aspect=fixed;imageAspect=0;image=data:image/png,iVBORw0KGgoAAAANSUhEUgAABJ0AAAOGCAYAAABGBuGRAAAAGXRFWHRTb2Z0d2FyZQBBZG9iZSBJbWFnZVJlYWR5ccllPAAAWsBJREFUeNrs3WmQHGl6H/Yn6+q70bgxB+bCXHvN3uJyTVqWwjK9H2gzlrTCNEU7LIkM0f4ghRxyyA7rCFvh8CHbFBU015aloKw1d02RlL2UKHFXkk3xWIp7m7szs4M5cAwGN7rRd9fpzOoGRc0OgG7gRWVV1++HfaKxPY2q6iczKzP/9eabWa/XCwAAAABIqaIFAAAAAKQmdAIAAAAgOaETAAAAAMkJnQAAAABITugEAAAAQHJCJwAAAACSEzoBAAAAkJzQCQAAAIDkhE4AAAAAJCd0AgAAACA5oRMAAAAAyQmdAAAAAEhO6AQAAABAckInAAAAAJITOgEAAACQnNAJAAAAgOSETgAAAAAkJ3QCAAAAIDmhEwAAAADJCZ0AAAAASE7oBAAAAEByQicAAAAAkhM6AQAAAJCc0AkAAACA5IROAAAAACQndAIAAAAgOaETAAAAAMkJnQAAAABITugEAAAAQHJCJwAAAACSEzoBAAAAkJzQCQAAAIDkhE4AAAAAJCd0AgAAACA5oRMAAAAAyQmdAAAAAEhO6AQAAABAckInAAAAAJITOgEAAACQnNAJAAAAgOSETgAAAAAkJ3QCAAAAIDmhEwAAAADJCZ0AAAAASK52p/948GM/dL+P/6G8PprXC3k9n9djxcPmVdd6AACAgWrldSOvN/N6Oa9v5PU7eX3tfh948bd/QXeB71B7AI/5VF4/kNcPx3bQNKvNAAAAQ+FwXs/k9Yd2/v9qbAdQn83rl/J6Q4uAVFKGTifz+rN5/UheR7UWAABg6BWDBD6yU38ur0/n9dfyOq81wP1KNafTf5TXF/P6MyFwAgAAGEXH8/pPds7tfkI7gPt1v6HTI3n9vbx+eufvAAAAjLbi3O5/zusX83pYO4B7dT+h0wfy+kJsz98EAADA/vLJvD6f1we1ArgX9xo6fW9e/zCvd2khAADAvvWenXO/j2sFsFf3Ejq9kNdn8jqhfQAAAPteMdfT343tAApg1/YaOh3K6/8I8zcBAACMk2Jup8/unBMC7MpeQqcsticMf6+2AQAAjJ3iXPCvawOwW3sJnX4kr39XywAAAMbWv5fXj2oDsBu7DZ0O5/WXtQsAAGDs/Zc754gAd7Tb0OlP5XVKuwAAAMbeE3n9hDYAd7Ob0KlIsH9cqwAAANjxY3kd0QbgTnYTOv1beT2mVQAAAOwozhE/oQ3AnewmdPp3tAkAAIC3+WEtAO7kbqHTybw+ok0AAAC8zUfzekQbgNu5W+j0Ql5HtQkAAIC3Keb//ag2ALdzt9Dpg1oEAADAO8jyeq82ALdzt9DpeS0CAADgNp7WAuB27hY6uWsdAAAAt1PM6VTVBuCd3C10OqxFAAAA3MbBvOraALyTu4VOEmsAAABupxHbczsBfIe7hU49LQIAAABgrypaAAAAAEBqQicAAAAAkhM6AQAAAJCc0AkAAACA5IROAAAAACQndAIAAAAgOaETAAAAAMkJnQAAAABITugEAAAAQHJCJwAAAACSq43aC261O9HtdqPX61l6AADAWMiyLCqVLOq1mmYAI2Nk3rGKiKnb6cYf/b7vje/98Huj3elYegAAwHicuFWr8cVvvBR/53P/JCYnGhoCjMZ718i80l4vOt1u/OGPfSD+2Pf/YUsOAAAYK3Oz0/G//eKvxsREIzLtAEbAyM3ptNVsWWoAAMDYKc6FMmkTMEJMJA4AAABAckInAAAAAJITOgEAAACQnNAJAAAAgOSETgAAAAAkJ3QCAAAAIDmhEwAAAADJCZ0AAAAASE7oBAAAAEByQicAAAAAkhM6AQAAAJCc0AkAAACA5IROAAAAACQndAIAAAAgOaETAAAAAMkJnQAAAABITugEAAAAQHJCJwAAAACSEzoBAAAAkJzQCQAAAIDkhE4AAAAAJCd0AgAAACA5oRMAAAAAyQmdAAAAAEhO6AQAAABAckInAAAAAJITOgEAAACQnNAJAAAAgOSETgAAAAAkJ3QCAAAAIDmhEwAAAADJCZ0AAAAASE7oBAAAAEByQicAAAAAkhM6AQAAAJCc0AkAAACA5IROAAAAACQndAIAAAAgOaETAAAAAMkJnQAAAABITugEAAAAQHJCJwAAAACSEzoBAAAAkJzQCQAAAIDkhE4AAAAAJCd0AgAAACA5oRMAAAAAyQmdAAAAAEhO6AQAAABAckInAAAAAJITOgEAAACQXE0LRlOz3Y6tZis2trZis9mMdqcTvfz71SyLRr0WUxMTMdloxERelfx7AAAAAIMkdBohRbh0ZXEpri8vx/LaeqxvbUW3273tzzfq9ZibmowDs7Nx7ODBODg3K4ACAAAABkLoNAJW1tfj/JWrcfH6jdhqNqPb60WlUukHSNXK7a+QbLfbcX15Ja7dXI6zly7HgZmZOHn8aDx85HD+b11ZCQAAADw4Qqch1my14rW3LsabV67GVv73ImDqh027/PdZEUrtjGwqLr27sbLSr7OXrsSzJx+JowsLmgwAAAA8EEKnIXV1aSlePHOufxldrVrJq3pfj1dET7dGRS2trMaXXn4lHjt+LJ577GTU7/OxAQAAAN5O6DSE3rh4Kb597nx0ut2o19IHQtVqJXq9Xpx561Isr67H+59+MmampjQeAAAASMbEPkOmCJtePHO2Hwrdab6m+1VcelerVePGynJ8+dunY3V9Q/MBAACAZIROQ+T0mxf6VczblA3oLnPFZXsrGxvxlVdOx9rmpoUAAAAAJCF0GhLFZOGvnH+zP7opG/Bz1/LnXF1fj6+ffi2a7baFAQAAANw3odMQKCYLf+nsuf7opkGNcHq7arUaiysr/cv7AAAAAO6X0Klk3V4vXj57LpqtdlRKCpxuKYKn85evxuXFJQsGAAAAuC9Cp5JduHI1rt682b+jXNmKyKuYwPz0+e075wEAAADcK6FTiVqdTrx+8VJkQ/SaivBraXUt3rx61QICAAAA7llNC8pz5cZirKyv9+8gN0yKeaWKy+xOHj3av5NeSleXbsZms1n6pYTsH738TzEB/7GFhf4logAAAAwHoVNpJ8oRF65ei2GMXqpZ1g/Drt1cjmMHF5I+9msX3oqrS0vCAdJtS71eNOr1+N4X5qxXAAAAQ0ToVJK1jY24ubaWfCRRElkWnU4nLi8uJg+dilFUlZ2CFIoA1/oEAAAwfMzpVJJi3qStVqsfwgzlilEp5nZajXanY2EBAAAAeyZ0KsnSyupQv74iDFvb2OzPvwQAAACwVy6vK8nqxvrQjnIqFK+s2+3F2uZmzE5NWWDAA1PMH7e0shJZxWWSd9LL35MPzs/F4fn5O/7c8tpaXFm6Ga46vXs/52am4/jBg3f8ueIDmEuLN7av5dXTO/ZzanIiHjly5I4/t9VsxVvXr+fHGF39vGNDo3+jmceOH7vj8WIn72Nxx+FWq+099K7Htlk8nvfT/I8AgyV0KkFxgLDZbA116LR9vNOL9c1NCwx4oK4sLsbpNy/070LInfcdzz76yF1Dpxsrq/HimbPmOttFP08eO3bX0GllYz1eOnMuer0Q5N2ln0cOHLhr6FSMoH753Plot9tDfxxU6jFYvsJNNhrx6LGj/Ru83E4xDcKr5y/0PySseA+9wzHt9o1yivVT6AQwWEKnEhQHCP1P+EZAs9W2wIAHqjhRKj7RFzrdWf9GDLvoURE2Ff0UOt29n7tZ57Kdfgqd0vazaKjQ6faK0Km2y3CkCFH627z30Nv3M+KO4R0AD/BYXwsGr7gzXK+/+xuB1zoi4RgAAAAwXIROZeh/0uLTFgAAAGD/cnldCaojdNlDzXXvwAD0doo790g/9VM/vSfe7mf11DoHMIyETiVo3LrufsgniChe2USjboEBA3m/Mf7z7j3Sz/L6GXqafP3UzzQ91c/06ygA6QidytjpZVlMTTRidWNj6HfPM5OTFhjwQJ08ejSOzM+bVPguiomFi1vS382xgwvxByafd4K1i35O5Pviuzk4Oxcfff65/igJPb1zP+u1ux9WTufr8IeefXr7czdtu30/Y3vi67uNjC96/v6nn4pOp+s99C79zHb6BcBgeectyYGZmbiyuDTUO+darZofHAqdgAdrZmqyX6RR3Ga9KNJo1Gtx+MC8RqQ68KxW4/C8fqZShFIH5+Y0AoDh3VdpQTkW5maH+hOpbrcb89PTMeHEBQAAALgHRjqVpBjpND0xERtbW9vzOw2ZYpj8wfm5/tDupI+789hFQap11foEAAAwfIROJSkufShGO61vbg3lSXy9Wo3jBxeSP3Y1q/Tv3ld1VzwSrq/WJwAAgOEjdCrRyWNH4+K160P3urr5SfyRhQNxYHY2+WO/79QT0e5Pdmn5k0hve3L+ibo7LQIAAAwToVOJiok0jywsxNXFxaEZqVGMGikmpXzixPEHclcZk9sCAADAeDCReImK0RlPPXSiP6fTsMxJU0wgfnRhoR+GAQAAANwroVPJisvYHj12NDrdbumvpT+XU60Wz558NFz9BgAAANwPodMQeO7kyTgwOxOdTqfU11GMcnr2sUdjfmbaQgEAAADui9BpCDTqtXjfU0/lX+v9SbzL0O504uTxY/HEiRMWCAAAAHDfhE5DYmF2Jt536sn+JN6DDp6KwOnEocPx7icetyAAAACAJIROQ+TEoUPxgadPRb1aHcgcT0W01W534qEj+fM+cypqQ3IHPQAAAGD01bRguJw4fCgajXr87mtvxMr6elSr1QcyqXcxf1Mvf+SnHnkonn/8ZFQy+SMAAACQjqRhCB2am4vvevfzcfLo0f4d5VKOeioer7icbmpysj+6qbikTuAEAAAApGak05CabDTi/c+ciuOHDsbrb12MxdXV/veLOZ+ybO9jn4qRTcVcUfVaLR4/fiyeevjhmJxoaDQAAADwQAidhlxxud3Rgwtx+cZiXLh6NRZXVqPZbveDp370dOvr2xRzkfeKP/lfip+dnZqKYwcPxsljR/p/BwAAAHiQhE4joFqpxMNHDvermOepCJ5uLK/0/97qdKKTVxEuFRODF4OgisvliknBi9FSC3MzcXh+PhZmZ/ujnAAAAAAGQQoxYuamp/v12PFj/eFMm81WNNutaBfzPvW2L7+r1bYDJ3ejAwAAAMoidBplWdafl8ncTAAAAMCwcdsyAAAAAJITOgEAAACQnNAJAAAAgOSETgAAAAAkJ3QCAAAAIDmhEwAAAADJCZ0AAAAASE7oBAAAAEByQicAAAAAkhM6AQAAAJCc0AkAAACA5IROAAAAACQndAIAAAAgOaETAAAAAMkJnQAAAABITugEAAAAQHJCJwAAAACSEzoBAAAAkJzQCQAAAIDkhE4AAAAAJCd0AgAAACA5oRMAAAAAyQmdAAAAAEhO6AQAAABAckInAAAAAJITOgEAAACQnNAJAAAAgOSETgAAAAAkJ3QCAAAAIDmhEwAAAADJCZ0AAAAASE7oBAAAAEByQicAAAAAkhM6AQAAAJCc0AkAAACA5IROAAAAACQndAIAAAAgOaETAAAAAMnVtKAMvfx/vf4XoERZtl2D2/LzTd+GD+Vv+llkA33Gnf0+UPLG7/N2gEETOpXh+sXo/uyfj1hfjqhU9QPKsLkW2Sd+PLKPf3JgT/n164vx33zjpWhUHfRCGYrcp8iZ/8x7no0PHzk0sOdtvvar0Tz9yxHVCQsBytn682PuWsx8z1+IbGJeOwAGSOhUhuZm9F76YsTK9fwA1CKAUqzfjOyjnxjoU97YasZvXL4Wk9XqgEdZAIVurxeVLIt//5nmYJ939WK0Ln45stqUhQBl6HXzY+5G/qVl/wswYBKPMhQfs07kB57NaaETlKXTyre/+kCfsppv+9O1akwInaAUt0KnajbgLbBSi6w22S+gBDuhU9j7AgycazwAAAAASE7oBAAAAEByQicAAAAAkhM6AQAAAJCc0AkAAACA5IROAAAAACQndAIAAAAgOaETAAAAAMkJnQAAAABITugEAAAAQHJCJwAAAACSEzoBAAAAkJzQCQAAAIDkhE4AAAAAJCd0AgAAACA5oRMAAAAAyQmdAAAAAEhO6AQAAABAckInAAAAAJITOgEAAACQnNAJAAAAgOSETgAAAAAkJ3QCAAAAIDmhEwAAAADJCZ0AAAAASE7oBAAAAEByQicAAAAAkhM6AQAAAJCc0AkAAACA5IROAAAAACQndAIAAAAgOaETAAAAAMkJnQAAAABITugEAAAAQHJCJwAAAACSEzoBAAAAkJzQCQAAAIDkhE4AAAAAJCd0AgAAACA5oRMAAAAAyQmdAAAAAEhO6AQAAABAckInAAAAAJITOgEAAACQnNAJAAAAgOSETgAAAAAkJ3QCAAAAIDmhEwAAAADJCZ0AAAAASE7oBAAAAEByQicAAAAAkhM6AQAAAJCc0AkAAACA5IROAAAAACQndAIAAAAgOaETAAAAAMkJnQAAAABITugEAAAAQHJCJwAAAACSEzoBAAAAkJzQCQAAAIDkhE4AAAAAJCd0AgAAACA5oRMAAAAAyQmdAAAAAEhO6AQAAABAckInAAAAAJITOgEAAACQnNAJAAAAgOSETgAAAAAkJ3QCAAAAIDmhEwAAAADJCZ0AAAAASE7oBAAAAEByQicAAAAAkhM6AQAAAJCc0AkAAACA5IROAAAAACQndAIAAAAgOaETAAAAAMkJnQAAAABITugEAAAAQHJCJwAAAACSEzoBAAAAkJzQCQAAAIDkhE4AAAAAJCd0AgAAACA5oRMAAAAAyQmdAAAAAEhO6AQAAABAckInAAAAAJITOgEAAACQnNAJAAAAgOSETgAAAAAkJ3QCAAAAIDmhEwAAAADJCZ0AAAAASE7oBAAAAEByQicAAAAAkhM6AQAAAJCc0AkAAACA5IROAAAAACQndAIAAAAgOaETAAAAAMkJnQAAAABITugEAAAAQHJCJwAAAACSEzoBAAAAkJzQCQAAAIDkhE4AAAAAJCd0AgAAACA5oRMAAAAAyQmdAAAAAEhO6AQAAABAcjUtKEG3G7F2M2J1KV8CFgGUotgGW5sDfcpWvu0vNVsxWe1GZgnA4He/vV5Usqy/LQ5Sr7MVva3l/AW0LQQoQy/f5quN/GtPLwAGTOJRhoPHo/Knfio/A92KyJx6Qinarcie/tBAn/J9hxbiU//KR6Jqu4eyzjzzyuKFfFscpMbjfyiqc4/kT+2wC0rb9rNKZBOzWgEwYI5+yjA1G9nH/m19gDFzYmoyfvCJRzUCxkz14Kl+AQCMG3M6AQAAAJCc0AkAAACA5IROAAAAACQndAIAAAAgOaETAAAAAMkJnQAAAABITugEAAAAQHJCJwAAAACSEzoBAAAAkJzQCQAAAIDkhE4AAAAAJCd0AgAAACA5oRMAAAAAyQmdAAAAAEhO6AQAAABAckInAAAAAJITOgEAAACQnNAJAAAAgOSETgAAAAAkJ3QCAAAAIDmhEwAAAADJCZ0AAAAASE7oBAAAAEByQicAAAAAkhM6AQAAAJCc0AkAAACA5IROAAAAACQndAIAAAAguZoWAAAAcD8OfuyHNIF9b/G3f0ET9shIJwAAAACSEzoBAAAAkJzQCQAAAIDkhE4AAAAAJGci8RL0er1ottsaQdr1Kq9qlkW9ZrMeVt1uN1qdjkaQfJ9Sq1b7xXBq59t9O9/+M60g9YF8vt1XKz5DHieTjXr/fX/YDnHy2rB0gHfcV2nB4G00m/GVl78dzXYnMkegJNLp9uLogQPxgWdOacaQurG8El979bX8BMGGTzqtdjdOPXwinn70Ec0YUucvX41XL1yIalU4QDpF7vCeJ5+IE4cOjuzvcPn6Uly9cTNW1taj2WpHxwczd5afOHzt5deG8QPG+by+P6+mhcR+e6stDrViO1S9kddbea1qy94InUo5SOjFVquVVzvfdzj5JI1OMYrGCLqh1s23/c1m06fSJNVqd/ojaRhexfLpb/tGo5H4eLLY94+Sq4s34yvfejW+8FtfjW98+/W4dG0xlpZXY21js/9e1h2x36cMxTHE9OTEsL2sJ/P6nKXDft6V53UzrysHP/ZDZ/Kv/2Snfrc4DdOeiMXf/oXb/jehU0mKsKmSl9CJZAef1qeRUNnZ9iHlOmXbH419vm2fpPv9Yt0akdf64mvn4m//X/84/sE/++dx+uxb/cAsf+fqj/4rQpSskvW/1owG3DfLHPaZIjc5vFPvyusTO5vkr+X16bw+m9eaNt2+eQAAAEmdu3glfurT/3f83D/4f+PK9aWYaNSGcZTOyBA4wdBtkv/aTv3Hef33eX1GW76T0AkAAEjq//xHvxZ/6a9/Ok6fuxAzkxMxNzOlKcB+9cG8fi6vT+b1Z/M6ryX/gtAJAABIopgQ/L/4qb/dH+FUDAOYn5nWFGBc/FBe35XXj+X1q9qxzYXTAADAfVtcXo0f/fP/XfyPP/tL0ajXYnKioSnAuDmZ1y/m9aNasc1IJwAA4L4Ud6D78b/01+Lv/ePfjDmjm4DxNpPX34ztu96N/TxPRjoBAAD3rNvrxZ/7q38zfukLvxmz0+ZuAsjVYzt4+oPj3gihEwAAcM9+5rN/P/7G3/2VmJ2ejCxzjzWAHUUK/7fyenScmyB0AgAA7snXX34t/sqnPhMT9UZUKk4tAN7mqbz+23FugD0DAACwZ51ON/7Kz3wmri0uR71e1RCAd/bDeX3/uP7yQicAAGDPPv9bX41f+fUvxcz0pGYA3F5x3fFfyGtiHH95oRMAALAn3W4vfuYzvxytdifM4gRwVx/N6xPj+IsLnQAAgD352suvxq9/9VsxPdnQDIDd+RPj+EvXLPdydLrd/nXwWcVnQyRap/L1qZuvVwyvXq/XX06Qdtvv9G9XzvDq9rf9ToS7epFyn9Lt9fcrZfmVX/udWFlbj7mZaQsDYHe+J69Teb02Tr+00KkEjXo93vXYY9HJDxQcfpLs4DNfn6YmzakwzObzA/MXTj3pdtIkVQQaC7MzGjHEjh1ciEbtlG2f5BbmZst53+n24vO/9bWo1ZxKAOzlbTuv7w6hEw9avVqNk8ePaQSMmamJiXjioRMaAeN2hDk7IxhkX3n1/Ftx7uKVqFbN1AGwR38wr0+P0y9sTwEAAOza6TMXYvHmStQqVc0A2JsPjtsvLHQCAAB27c3L12JlfTMq5iYF2Kvisof5cfqFhU4AAMCuXbmxZF58gHszldfxcfqFhU4AAMCura5tRCVzGgFwDxp5zY7TL2xvAQAA7Fq709UEAHZF6AQAAABAckInAAAAAJITOgEAAACQnNAJAAAAgOSETgAAAAAkJ3QCAAAAIDmhEwAAAADJCZ0AAAAASE7oBAAAAEByQicAAAAAkhM6AQAAAJCc0AkAAACA5IROAAAAACQndAIAAAAgOaETAACw+xOILNMEAHalpgWD1+l248bycnS7vQj7bChFL9/+5mamY2ZycmDPudVqxeLKajhWh7I2/OjvdxdmZ2OiXh/Y065tbMbKxnq+7dv4GW1Z8Sdfjdc2N63PAOyK0KkEG1tb8ZVXTkez2bLDhpK02p144dST8fSjjwzsOZdWVuO3v/ViVCsGmUIZesVnPflu9yPvei4eOnRoYM974eq1ePHMmahWqxYCI604bq3WqnFlacm+DIBdETqVtMOu5weevVpP6ATlbYlRGfABc3/br9UcqENJboVOg740qHiv6W/7Qif2wTFstVpxeR0AuyZ0AgAARl4xhUW73dEIoB+SN+rijmFgKQAAACNtY3Mr/sjHPxR/4pPf17+EHhhflWoWV2/cjL/805+Oja2m0ZklEzoBAAAjbavVjmcefyR+4F//uGYAcW1pOf6rT30mereurac0QqeSFCt/Ny8zu0A5iu2vvxMq4XkrJTwvsD2nU6n7fNs+++QYdhjX5OKcst0xwgnYVox+ZDgInUpQ3Kb5XY8/Ht1u10TiUJLiBPDg3OxAn3NuZjref+opQ3yhrJPl4sQ0r/npmYE+77FDCzHRqNv22QeKm3BkcXhurn8cCwB3I3Qqo+nVajxy9IhGwJiZajTisePHNALGzIGZmX7BfjE7Pd3/8AYA7sbVXQAAwK71BE4A7JLQCQAAAIDkhE4AAAAAJCd0AgAAACA5oRMAAAAAyQmdAAAAAEhO6AQAAABAckInAAAAAJITOgEAAACQnNAJAAAAgOSETgAAAAAkJ3QCAAAAIDmhEwAAAADJCZ0AAIBdy7JMEwDYlZoWDF6704lrN29Gt9vTDChJt9eLhdmZmJ2aGthzbjabcWN5uThctwCgRIfm52Ky0RjY862sb+S1Zttn5BVhU61aibWNjagIngDYBaFTCTZbrfjGq69Fs9X2SRGUpNnuxAtPPRlPPzq40Onm6lp86eVXoloxyBTK0OsVJ80RH3n+2Thx6NDAnvfitevx0tmzUa1WLQRGWnHcWq1W4urNm1GxLwNgF4ROZeywi8bnB57FSCehE5R38lmpDHb72/6EuCp0ghK3+2K3O+h9b3Fy3t/2hU6M+jHsTuhklBMAuz4O0gIAAAAAUjPSCQAAYIwUc8z2er3+SEwjsIEHSegEAACwj201W3Ft+WbcWF6J9c3NfuhUTPVRhE71Wi1mJifjyIH5/o0Wiv8PkIp3lJIUnywUBZS4Ddr2Ycy2+5Ke17bPPtt/MjrWt7bi7KXL8da167HVbPbv3tufkSvL+l9vvT8V/+/spUsxMzkVjx47Go8dPyp8ApLwTlKCiXo93vvUk9HtdsPtk6G8g+YDszMDfc75men40DNPb89kDJTmwMxgt/0ThxZieqLh5iGMvGIVLkbGHJqfj07/OJZhdv7K1Th9/s1+8FRcQlcsu7tdSLe2udm/2+Zb167F848/FkcXDmgkcF+ETmU0vVod6K2ageEw2WjEw0ePaASMmbnp6X7BfjE7NWXE0xArls1LZ8/FGxcv/d5ds3eruLNvJaqxvL4eX/72K/Huxx+Lx08c11Tgnpk1DgAA2DWB03B78czZeO3CW9sjm+5xkvBiZFSxnL/5xpk4c+mypgL3TOgEAACwD5y5dCnOXLzcH910vxf0VrKsXy+fPRdXF5c0F7i39xItAAAAGG3L6xtx+vyF/iVyqeaQKx6nmIf2pXPno9luazKwZ0InAACAEVdcUtdstZLftKC4RG95ba1/FzyAvTKROAAAwAgrJv6+srgY1T1MGr4XlawSF65e608q3qjt7RTycv66Lt9Y7M8TxWB1e7146PChOHLAXQgpj9AJAABghF26fiPa7faDC50qWaxubMTi8nIc3+NduBeXV/qjsOo1p56D1ul2Y6oxIXSiVLZ8AACAEVXcZW5pdfWBP0+W/7l2c++hU3F5XjGxee0BBWLcYZntTAYPZTLGEQAAYEQV8zitb25F9qAvX8sibq6taTiwJ0InAACAEdXsdLYnEH/Az1M8fqvd6V+yBbBbQicAAIARVVxeV0wYHQO4jKp4LqETsBdCJwAAgBFVzLVUzN0TRfD0oJ/LHEHAHgmdAAAARlStWol6tRoPOnIqHr9arZgQHNgToRMAAMCImqjXY7LR6F/69qDNTE5qOLAnNS0AAAB2K3N51VCpVCoxNzMdN1ZWHujzFPNGHZ6f2/O/uzUPVMVcUANX9H0QYSTcidCpBO1OJy4vLkU3fxOwy4ZyFAdOB2dn+wdpg7Kx1YyrN5eiYsuHUhSH3cXWd/jAfExNTAzseZfX1mJpdc08KIy+fB0uLuVa3Vi3Pg+Z44cOxvnLVx/c+2d+3DRZr+fvnwf2/G+LUVgL+TGXy/LKOd6daNQ1glIJnUqw2WrFt15/PbZabZ8UQUmKW/6+79STAw2dihPPr73yalQrrmyGMty6udNHnn92oKHTpRtL8dKZM1F1wsWIK45bizl9rt1c7o+uYXgcmT8QC3Mzsbiy+kCOM4oRMw8fOXJPl9c9dvxYPHrsqIVUEgExZRM6lbHDjugfeNa6PaETlHjyOeidcNb/hLgqdIISt/tisx/0vrdya9sXOjHqx7A7oZOT2OFTqWTx1MMPxVdfebU/Kinl+1zxeI16LZ586MS9rzfWGRjf9yctAAAAGG0nDh2KR44c7k/lkVIxyqkItOYHODoc2D+ETgAAAPvAu594PA7NzycLnlr54zx69GicevhhzQXuidAJAABgH6jXavHh556Jg3Nz9xU8FZfUtfuB05F471NPmBIEuGfmdCpJ8Ubu9pVQ8jZo24cx2+7Le97iDkIV2z72nwxAcbe4jzz3bLx09mxcuHa9/729zCdZhE3Fzz/9yMPx7MlHTRoP3BehUwkm6vV471NP5QegXc2Asg6a883vwOxg5yYo5kL40LPPbN9NACjNgZmZgT7ficMHY3pqIgwUYNRlsT2R+JH5+eh2HccO9flGox4feObpOLqwEK9fvBTLq6v9OykUb0NvH7VUhIi3PhQrJok/unAgnnr44f5XgPsldCqj6dVqnDh0UCNgzBSfPD585LBGwJiZm57qF+wXM1NT/dF7DL9Hjh6J4/l5x7WbN+Pi9RuxsrYezXY7Op1uFGPWbt1Zt/hQ/MDsTDx0+HAcnp9zOR2QjNAJAADYNZeJj9gJX/8D70P9Ku5Et765Fa12u78ci3CpCJymJycETcCDeQ/SAgAAgP2vmKvJyEtgkMwKBwAAAEByQicAAAAAkhM6AQAAAJCc0AkAAACA5IROAAAAACQndAIAAAAgOaETAAAAAMkJnQAAAABITugEAAAAQHJCJwAAAACSEzoBAAAAkJzQCQAA2LUsyzQBgF2pacHgtTuduLy4GN1ut9htawiUoNvrxsG5uZifnh7Yc25sNePq0pKDdSjZkQPzMTUxMbDnW15bj6XVlXzb91kfo63YfVWr1VhZX7cvA2BXhE4l2Gy14ltvnIlms22HDSVpttvxvlNPDjR0Wl5bi6+ffjWqlaoFACXo9bZPmj/8/DMDDZ0u3ViMl8+cyU/WHXYx2rJKlq/HlbixvJzvy4SoANydo58ydth5FTvqYqctdIKS3vx61agMePsrtvfiE2IH6lCOW6HToPe9lVvbftW2z4gfwxbrcsXxKwB7OA7SAgAAAABSEzoBAAAAkJzQCQAAAIDkzOlUkl6vF928XBEP5Si2v2I7LON5sxKeF9iZ06nMfb5tnxFXbD+VYv+pFQDsktCpBJONRrz/6VP9A1CgrJPPXswN8M51hQOzM/HR5581ASuUbGFmdqDP9/CRwzE3M2XbZ+Tdmkj86IEvRqfb1RAA7kroVIL+znphQSNgzEzU63Hi0CGNgDEzMzXZL9gvpicnSxktPCyKD46brdZQnmPUa//y6V2z3Y7uEAaExTHR7w/ii9dYvNah62k172n1bT3Nl/2wDR4oetnIl/3v72mn041WZ/h6WqtW+8X4EDoBAAC71hvz0frLa+vxtdOn+0HJsIxgbHe68ciRw/GeJ5/4l77/rTfOxLWbN/uB1NCsP3l917vfFbOT/yKMX1pdiy9/+5WoVYfndRaj+R47fiyeO3ny977X7XXj/3vt9VhcXR2anhYB2EStHh95/tmYmpj4ve9fvH49Xj53PiqV4Rll225347nHHo3HTxz3RjpGhE4AAAC71NsZ6VSMJBme0KkTrXcYKVR8b6vZGrrQ6e3BZRGcbDWb0RmiETBF6FSEJG/XbA1XT7fnDPzOnrbz11/0tDJEy75YT9suzR07QicAAIA9KMKmWzVMr2fYX+e9/A7lvp4RWPY7r+l23x+6nnr7GDtCJwAAgD3olXQX3Du9nnf8/jC+Vj19AOviaPeU/U3oBAAAsAf9S6t6MTSjSHr5n3d6LZWdOw4O2+V1t+vpML3Owij0NOv18tfyzqPcitc4TJfXFaGTO7mOH6ETAADALs1PT8d3vefdQ/WaigEkjdp3zof0nicej9bJkzFs5/kzv2/C68LC7Ex8z/vfN1SBRNHTibfdDbCSVeKFU0/15yUapp4WF61Nvq2nDx0+FAfn5mKYrmcrQqfJet2byJgROgEAAOxStVqJuampkXitxd3MRuGV1qrVfpg3CqYnJ0biddZrtX5B2SpaAAAAAEBqQicAAAAAkhM6AQAAAJCc0AkAAACA5IROAAAAACQndAIAAAAgOaETAAAAAMnVtGDwWu1OXLx+PTq9XmTaQQl6+bo3MzUZxxYWNGOA1re24vKNxcgyWz7l6Ha7ceTAgZifmdaMAVpaXYsbKytRse1TomMHF2J6YkIjABgooVMJmu1WvHzuXDRbbSeflKKTn3g+cviw0GnAVtbW43dffyOqFYNMKUer3Y73n3pK6DRgVxaX4uWzZ6NarWoGA9fLqzjanGo8I3QCYOCETiUpTjqLEjpRlorgY+CK7f3Wtg9l6NrvlPN+a9unRLdCJ9s+AKUcB2kBAAAAAKkJnQAAAABITugEAAAAQHLmdCpJt9eLbrcXmdiPMta/fN0r7mDHYPV2ep9lek9Z237Xtl/Gtt/f53fzfb6dPuXse7KdrwAwaEKnEkw2GvHh557tn3xCOQegvZis1zViwA7OzcZ3v/ddO4f/UMK23+vG7LQ71w3aI8eOxML8bL7l2/Ypj7tWAlAGoVMJirvXHJqb0wgYM41aLY4cOKARMGaK29S7VT0AMI6ETgAAwHgqLjluN/Vh1BRzlNT2Pmq/ky/vdn+qAy0cJdV8gVUttJEldAIAAMZS7/yL0f3JPxlRNxpxZDQ3I3vifVH5039jz//0518/H//rt1+L6VpVH0fEZrsbf+zpx+M/fPZJzRhRQicAAGA8NTcjLnw7ojGpF6NiayNiZv6e/umNrWa8cnMl5upOg0fFersT17e2NGKE2doAAIDxVFyyU2tsF6Oh04mo3tsNcYpLtBqVStTdTXRkNCo9l9aNOFsbAAAAAMkJnQAAAABITugEAAAAQHJCJwAAAACSEzoBAAAAkJzQCQAAAIDkhE4AAAAAJCd0AgAAACA5oRMAAAAAyQmdAAAAAEhO6AQAAABAckInAAAAAJITOgEAAACQnNAJAAAAgOSETgAAAAAkJ3QCAAAAILmaFgAAAMAYy7L8f1n+dcheV7cX1Wp1z/+sVqsOc7fb47RqCZ0AAABgXFQqkVWy7a9ZFr1uL3pbW9Ftd/K/d4fqpfby17S2shrLK2vRjd6u/k2W/7mxtBK9Xm8Yu1/EeofyWojBRXzFQt3Ma6uMX1joBAAAAPtZMYipWuuHTZ31jWgtrUTzrSvRvHI9Ovnfu5tb0Wu1I4YsdOr2evG3JhrxucmJ/t939atmWTTz32VrqxnVytDNKDSV18/mtR6Dm+6os/N8i3m9ldc38/piXi/ndeNBP7nQCQAAAPaj4rK5eq0fKG2dvxgbr7wRm29ciNbV6/1RRNEpxg/18h+r7Iy7yYbuV7jU68WbewzDiuBpolEfxiVSBE1PDMlrOZPXP83rl/P6lbyaD+JJhE4AAACwz/TDpk4nNl56PVa+8s3YOncxuhubkVWreVX6X6P4+5D/HrUQXDwgT+T1x3fqG3l9Kq/P5rWUevkBAAAA+0GlEpVqNTbPvhXLv/Hl2HjtXP+yueLyuspEQ394J+/P62fy+tN5/dd5/Z1UDyx0AgAAgH2gGN3U3WzG4v/zO7H6pW9EJ/97Jf9eVKuaw248n9f/ntcP5PWf5vXa/T5gRU8BAABgtGWNerSuL8W1n/+HsfzPfqc/Z1OlmNcoyzSHvfpkXl/I69+83wcSOgEAAMAIKwKnrXNvxdXP/P3+5XRZcRldxek+9+XJvD6X14/dz4O4vA4AAABGVD9weuN8XPvFz0dnZX17dBOkUaxM/0teU3n91L08gOgTAAAARlARODXfvPR7gVMxpxOkXs3y+sm4xxFPQicAAAAYtSSgWo3OzZW4/rl/Gp2VNYETD3R1i+2RTv/GXv+h0AkAAABGSSWLXrcbi//oN6J18WpkdZfU8cBN5vWpvB7d06qqbwAAADA6slotVr/yrVj/1un+JXYwIMXk4v9TbI982hWhEwAAAIyIrFaN1pUbsfwbX4mo5qf0WaYpDNIP5vXJ3f6w0AkAAABGRJZlsfrPv9Gfz6mY1wkGvQrm9Rdj+452dyV0AgAAgFE426/VonnpWqx983SEicMpzwt5/chuflDoBAAAAKOgksXq11+KzvpGZBWn85TqJ2IXo52spQAAADDsKpX+JXUbr5zpz+sEJftQXh+/62qrTwAAADDcKrVqbJ19K9qLN41yYlj80bv9gItAAQAAYJhlWfQ6ndg8cyGi083P5Pf/qXw7/32brXb0er3RWUz5n1qtGo3xmW/rX81rLq+V2/2A0AkAAACGWRbR3WrF1vmLYxE4NdvtOHxgLj7+wXfHwtzsSARPxV0Fm61WfPmbp+PVc2/FRKM+Dmvm03k9n9eXbvcDQicAAAAYYkWg0bq5Ep2Vtcgq2b7+XVvtdhw9eCB+/n/4z+MPvPDcyL3+i1dvxH/wn/3V+PWvfjMmG439vmoWmdJ74g6hkwtBAQAAYJhVKtG+vhi9dnvf/6rNZjv+yHd/cCQDp8JDRw/FH//B74tupztSlwbeh/fdcdW19QIAAMDwyvp3rluNXrvbn99pv9tstkb79W81ozc+q+epO/1Hl9cBAADAMMuy6Kxt9CcTz2rVff2rTk7U4/O/9ZX4pS/8Znzf93w4atXqaIwYKiZ7z1/nK2fejJ/+uV+Oer6csjEICHMn7vQfhU4AAAAw5LrF6J8xuFyrWq3G+sZW/Mm/+JPx7lOPxfTkRHRHYSLxKG4s2I1XzlyIxeXVaNTr47Jqzt/pPwqdAAAAYJgVoUtR4zFypj+6qQhwvvriq9ujnEbk187yP7VaNRr1sYpa7rh0hE4AAADAUKlkWUw06hox6stRCwAAAABITegEAAAAQHJCJwAAAACSEzoBAAAAkJzQCQAAAIDkhE4AAAAAJCd0AgAAACA5oRMAAAAAyQmdAAAAAEhO6AQAAABAckInAAAAAJITOgEAAACQnNAJAAAAgOSETgAAAAAkJ3QCAAAAIDmhEwAAAADJCZ0AAAAASE7oBAAAAEByQicAAAAAkhu50KlalZMB8P+zd+dBsl13fcBP793T81atz3rasCXZklfZsizZ2MblQGz4I3FYkj8oqEoISVGVAKkkhKpUJRQhgZDFQFGJFygCxDIOWCYmxpLLBIxDBTCONxkhyXrP1m5Jb5mtZ6b7ds7pmZGfpffmzXKnp2/fz0f8kJ7fdE/P73bf5TvnnAvAvl1AVJ2PA7A19SK92Eqsrz97Jjz21DOhPxjYegAAMMaz8WqlEs7OL4RqtaIdAFxUYUKnSjzANer18O5fvzu89398LGTZ0NYDAIAxn5PPLy6FmXZLM2CCDQaZgRrsWPrFQspf8lCokU5pqNPZ+cVw6uy8dwEAAOyDeq1qih1MsOFwGA4fnA2HD3RDNsw0hG2pVqphaXklPH3qTD7HjKI1IK3pZF0nAAAAeKH5xV74sR94V/gnP/iu0Ygn2I6Ut/zxX9wXvu/HfyZUKmsjXHejrqUAAAAwHdJIpzQFdnamoxnsyMHZmdyey5AhAAAAmCLZ0BrI7OL9k+U3Qk7oBAAAAEDuhE4AAAAA5E7oBAAAAEDuhE4AAAAA5E7oBAAAAEDuhE4AAAAA5E7oBAAAAEDuhE4AAAAA5E7oBAAAAEDuhE4AAAAA5K6uBQAAAMDzLSz1wvLqahhkg1CJ/9TrtdBptUKr0dActkToBAAAAIws9pbDI08/HZ4+fTosLS+HldV+GGRZqFQqoV6thVazEQ7MdMKxSy4JVxw9EmpVE6i4MKETAAAAlNxgkIWvPP5YOPH4k6PRTSlk2qh6rTb6mmyYhcVebzQC6olnT4XDs7PhxquvCpcdPqyBnJfQCQAAAEpscXk5fOGhh8PXT58ejVzaCJmebyOE2nB6bj585v4Hwg3HrwovvupFGskLCJ0AAACgpNIUur+4/4FwemHhgmHThdRq1TAcDsOXT34t9LMs3HT1cQ3lmwidAACAchpmIawspf/Qi6JI22t1eUcP7WfDsDQYhHq1Urgfuxpf92CY//s0y7Lw+YceDqfn57cdOG1II59q1RAe/NqjYabVDFdffrn3Kc8ROgEAAKVU6R4Olde9M14VuRNXYayuhHDVDTt66PUHuuE7rroytOu1wv3YjXYz/MlMJ9w/HIY8l+0+8cSToyl1Ow2cnvssjabdDcP9X30kHD14MHTbbe9VRoROAABAOR17Saj+09/Uh6LZ4UCld15zLLzj6iuL+SNXKuFH7/k/4bP9fjgUWrk8Z29lNZx4/IlQreQz8qtarcbnXBk95y3XX7etx6YFyne8Ydn+tkq9HlO7hU4AAECJr77c7r0s0jV2pVLcYCPvd+oTzz4zWkB8t6OczpUWIX/8mWdHi4q3m80tPWZucSl8/qGHRnfPCxXB055KUzRjj19zw0vCgZnOWL6l0AkAAAAm3DDX5xqGp06dzj2ES8+3sroanj59Jhy//LItPWaQZWF+cSn0B4NCh4KFeA8Nh6Mep56Pi9AJAAAASqTfH4xGGFX3IOTJhsPRwuRbDZ3SK0hT86rrgQh7ZyN0GmeXjSUFAACAEllaXgmDwWDPnr+3uqrJjAidAAAAoETSVLbhHj33aPrWIBuNqgGhEwAAAJTInk6xGobRtD1T5UiETgAAAFAi7UZjz0KhtEh5o275aNYInQAAAKBEWq1maDebezLFLoVZ3U5bkxkRPwIAAECJpOlvlxw6GE4vLIRqrZbb86YQK92J7tJDh7b+mOHaGlOpTMnbWxt3rxvneltCJwAAACiZK48eCV998qnngog8ZFkWLjl4IBya7W75Md1OK7zmxpesByFCp3EY50g0oRMAAACUzNGDB0cjkp549tlQz3G007VXXjkaSbVVaf2nK48etUGmlDWdAAAAoIRuuuZ4aDUaIcthutVqvx+OXXJ0VLBB6AQAAAAldGBmJtx83bWj/97NOj9pPabDs7Phluuu01S+yabT6xaWejoEAAA8J42KaNRrYagVMBWuuuzSUWh038mvhkGWhVp1e2NT0mPTGk633nhDaDUbGso32TR0etfb7tAhAAAgVNI/lUr44kMnw8OPPZnrGjDA/rr2yitCp9UK9504GeaXlkZrMlU3CZ/SqKgUUKWvS6HVS6+9JnSaTY3kBTYNnX7ke96pQwAAwChwSiMgfvGDHw33n3xM6ART5vIjh0dT5E488UR4/Olnw3xv6YV3thum/xuOPv+XHT40CqssAs5mNg2d5hdNrwMAAL4ROq32B6HiruYwlZqNerjx6uPhumNXhjPzC+H0/HxY6PVGi4SnUU3NRjMc6nbCodnZ+O+uhnFRdS0AAAAANjTr9dFIplSwG+5eBwAAAEDuhE4AAAAA5E7oBAAAAEDuhE4AAAAA5E7oBAAAAEDuhE4AAAAA5E7oBAAAAEDu6loAAACU1XA41ISLqFQqtjewI0InAACglM4uLIQ/+8u/CrWqCSDnkwKaZqMebnvZS0OzXvxLx5NPPBkefPTRuL1rhXvtnVYzPP7MM6FecwlPsXjHAgAApZQNh2FxeVnodAEpdOpng6kZHbTa74eF3nKo14oXOoVKCP3BIFS8LSkYoRMAAFBa1UplVLzQcL0/06Kyvq2L+DOl15znNMfhYw+G4f/8pRCyQWqMN3uZrPRC5Tv+bqjcdPtYvp3QCQAAAMrkzFNh+IcfCKG/EoKRfuWyOBcqr3prCEInAAAAIHdpXavOAaFTKVVCqDXG91bTcAAAAADyJnQCAAAAIHdCJwAAAAByJ3QCAAAAIHdCJwAAAAByJ3QCAAAAIHd1LQAAAMpoOByG/mAw+jfn70+tNj3jFLL17V1EgyzzPqWQhE4AAEApNer1cOySo6FaMQHkfFLI0ajXYn8qU/HzzLbbo+1dq9YK99pbrUZot1qCJwpH6AQAAJTSbKcTXv+yl2pESRy79JJRFdUVhw+HfjawISkUkT4AAABMuMwoJwpI6AQAAABA7oROAAAAAORO6AQAAABA7oROAAAAAORO6AQAAABA7oROAAAAAORO6AQAAABA7oROAAAAAORO6AQAAABA7oROAAAAAORO6AQAAABA7oROAAAAAORO6AQAAABA7oROAAAAMOEqlYomUDh1LQAAAMqo3x+E0wvzoRJczBfFMP5Tr9XC4dnZbT92cXk5LPR6oVrA7d1sNsJSfP2CJ4pG6AQAAJTSfG8p/OmX7w+1qgkgRTHIsnBkdjbc8fKbt/3Yx59+JvzlV782Cq2Kpttph6fPnAn1as2bgEIROgEAAKWVZZlxTgXbXtlwuLvHF3C00GAwsPEpJKETAABQWmm6kilLBdteJdze3qMUldAJAAAopTRexkinYtnNSKdhfFxRRzql1z3cxQgv2C9CJwAAoJTSWk4HuzOhWrGmU1Fkwyx0260dPbbZaIy2d61azDWdGvW64InCEToBAACldKDTCXe+/BaNKJidTjW76rJLw7FLjhbyZ04B6eWHj4R+Zm0nikXoBAAAlFIKL9LoEcohBTdFvlNhrWoiKMVjHCkAAABMOBPrKCKhEwAAAAC5EzoBAAAAkDuhEwAAAAC5EzoBAAAAkDuhEwAAAAC5EzoBAAAAkDuhEwAAAAC5EzoBAAAAkDuhEwAAAEz6xXulogkUTl0LAACAMlrs9cIDjzwaKi7mCyMbDkO33Qo3HD++7cc+depUePTpZ0KtWryxF61mIzx95mwhXzvlJnQCAABKaXl1NZx44kkX8gUyyLJw9MCBHYVOZxYWw8m4veu1WuF+7m6nHRZ6S6Fa8V6lWIROAABAKaURTimAEDoVa5vtdHtV17d3EUOn9DMbkUcR2bsCAAAAkDsjnQAAgFIaDodhtd8PmZFOhZGm1/UHgx09NouPTds7bfei6Q/qo/WsoGiETgAAQCl1Wq3wsuuudVewAknBS6fZ3NFjLzl0MNyctncRFxJvNMKhbncUnEGRCJ0AAIBSajeb4aarj2tESRw9eHBURXVkdjYMhkInisU4UgAAAJhwptdRRBcLnc5oEQAAAADbdbHQ6TEtAgAAAGC7LhY6PaBFAAAAAGzXxUKnz2oRAAAAANt1sdDp87EWtAkAAACA7bhY6PRgrC9qEwAAAADbcbHQaSXWR7UJAAAAgO2obuFr/nusOa0CAAAAYKu2Ejp9JdaHtAoAAACArapv8ev+c6zvjTWrZQAAwDQYDodhpT8IFa0ozjaL/1QrldCo17f92EGWhf4gbe/ibfFGoxay+PqhaLb6Sf1CrF+I9ZNaBgAATIO5xcXwZ3/5V6FWrWpGQaTg6FC3G1730hu3/dhHnvp6eOCRR0O9Vivcz93ttMOTp07F1173JqBQtvOO/ZlY74z1am0DAACKLhsOw2KvF2oFDCHKajDIQqvR2NFjV/v90fau14sY3AzXR2nl93whjZwyeqqEO74sDfMc27fbzqdtIdYPx/p4rMO2FAAAUHTVanU0XYtiGFYrO95elfi4om7v9Loreb7uSi2EVieEFLga6Vcu2SBu9/EFr9v9Tn8a60dj/UrY2iLkAAAAEyut6zQc42/92b/tNSzw9s77NVeuf1Wo/cwnvKFK+SHKQpg9OrZvt5N469diHYz17vRetcUAAICiqtWqoVbx+/RCbbMdjsxJI5xG27uAI3vSOlS5LoDeaIZw9Jg3E3v/3t3h434xVi/WL8VqaiMAAFA0B2Zmwh233FzIu5mVVbp73U4XAr/qskvD0YMHCrm9U1h22eHDoZ+mRkGB7GYi33tjPRLrl2Ndp5UAAEChLuSr1XB4dlYjSiItQL7TRcgn4vU3G6aCUji7HVf4sVhvj/UhrQQAAIC9IXCiiPKYzPpQrO+N9d2xPqOlAAAAAOS5gtpvx3pjrO8LayOg5rUXAAAAoJzqOT/fcqzfWq+XxfrrsW6L9apY3xKrreVAmVQqlTQUOo2FtkIpAFOhWnWnNwC2pr6Hz/3l9UoOrdeVsS6N1Qn5jrICmDiVSmWwsrJyLNbPhTCc0RGYOPOdTucna7X6Y8Ph0HkJXES1Ukm/RBmefPypv1+rVb9dRwC4mPqYvs+Z9fqqlgNlkEY4LS/3wsLCwpvjHwVOMJlmBoP+l5vN9ic6nY4FWmET1WpldOes9919T/j8AyfeHP9b6ATARdW1ACB/vV4vLC4upPDpO3QDJvc6ejDI3rK0tPiJFDh1uzMh5U7CJ/hm6RcpnWYzvOfue8Jd93wqzHY6DV0BYCuETgA5npRnWRbm5+dCv98f/Tl6k87ARH9u001QKr3e0nA4zEK73Qm1Wk3wBOuqKXBqNcP7PnJv+OA9f5wCp1CxSiEAWz2OaAFALheu5wucjsW6UXdgor061mVrU2KXw9zc2XM/w1DuC4VqJbTXA6cP3POp0O20BE4AbO9YogUAu5MuTnu9pXD27AsuVtPF7OU6BBPtcKzXb3yWN8Lj1dXV4KaTlPoiIQVOzWZ47933rAVO7ZYwFibgnBOKxvQ6gF0d+CujtZtS6HSek4HXBeE+TPxHOdadsT668RlOU+vSiKdmsxVmZ2dNtaOUx7c0wum9v3NPuOveT031lLqV1X548tQpF/MFkvbJrUY9XH7kyLYfO7e4GE7PLYRKtXjbO/3M80tLoymvUCRCJ4AdnpAPBoPRguHpLnUXOFm9U6egEF4TqxZrcO5nfGVlOSwshNDtdtP/InyiFEZrOLVb4X133xs++Im0hlN7qqfULcZj+OcefCjUqn5HVBSDLAtHZmd3FDo9+ezp8OWTJ0O9Vivczz0TP4vPzs3F92rNm4BCEToBbNNa4NQPc/HAn6biXCBwOhrrtboFhZA+q5em65Hnf9bTOk/9/mrodLqh1WqNPvMwrdKUus76lLq7SjSlLv2MRjqVY3ulhxV1e1dC/pO+B45pub83jUR7IaETwDZPVtJaLwsL85sFTkmaWneJjkEhXBbrlvC80GnjBHIwyEaf+fRxT1PuBE9Mo3ShlNZw+q933xN+a7RoeFsQA1Ps7MJC+OLDJ0O6c6s1DHdvkA3CpYcOhZuvu1YznkfoBLBF6eQ7XXimkQ9b+C3ZG4L1nKBI3hLrkxf67Cfz8/Oh1eqHdtvFONN3fOu0muE9aUrdPdO9htPzpWmzRnsU7eI+23H4n6XtPcgKuQ9PrzvPad6r/UE4PX/RX6KyRf3BILQbLY04D6ETwBZOxtNB/tzA6SJS2HSrzkGhvGErX7S0tDi6S+Xs7IHRVCTrPFF0a2s4NcP7P3Jv+OBo0fB2KNP1Z6NeD5cdPmRNpwJJodOBTmdHj01TRi8/cjjUasXb3mn0YRqNmNdxJ53Ppvd9JbgrXh7SdqlW9fF8hE4Am52Mx4NxWkx4cXFxtHD4Fg/KaT2n23QPCuWlsS6P9dTF9glpjaeFhbnQ6cyEerxgFTxR3GPcxhpO95ZqDadzpVFdb7j5Zd4MRbPDt+mLLr00HLukmKsfpM/mZYcPh342sP0pFKETwCYXlylwSlNq0kXlNk7Eb0rnNToIhXI8rAVPT23lxD+t7ba6eibMzHRH0+0ETxTuGLe+htN7PnxPuOu5EU7l/C29UR62N7CHxxstAHihdAG5uLgQFtL90rd/gvIWHYRCnhNteYTixrpuaT/R6/Xif6eHu5ChOBfd7XYrvC+NcLp3Yw0n718A9uYEC4BzTsSTtH5TmlK3w9ELd+gkFNK2A+ON4Cmt9ZTuAOTCnYk/+a9WwkwrreF07ggnfQFgj447WgDwjYvHFDLNz8+Nps5Ud7aoaFrP6WbdhEJ6VawDO9l3pNBpbu7sdtZ+g/Gf+FfXptSlNZw+8PFyruEEwHhZ0wlg/aJxebk3ujtdujPVLk7Cb4x1rY5CIR2L9ZpYf7STfUgKnFJoPTs7G2o1C4wzWc5dw2l0l7qZjgmhUGLpCJXuBJhlRunmYa2XjvvnI3QCnIhXq6HXW9rp+k3P99pYNV2FQmqEHYZOG/uOdPJ+5syZ0G53wszMjOCJiZDem51WM7z3I/eG3xI4AdFsux1uuf66tZvlaMeuZbGP3VZbI85D6ASU+iQ8XSCmaTFp/aacfsvzVp2FQrs9j31LCrKTFDwlwif2y2iEU6sV3veRe8MH7/lU6KY1nLQFSq/VbIRrr7hcI9hzQieglM6dCpPjGizp6vJW3YVCuzPWbKz53e5jlpeXQr+/GjqdmdBoNARPjN031nD6ePjgvX9sDScAxn8s0gKgbNIJd1q3KefAKXllrBfpMBTa8ZDbzQDW9jXpbpjp3zu8OQHs+FjXbqU1nD4e7vr4+ggngRMAY+bsByjdSXiaSjc3d2YvFk58dSyTuaHY0ppsb8xzn7NxV8ylpSXdZTwn+PF9N9NuhvffndZw+rQ1nADYv2OSFgBlkC78Nm5rvrbWyp6cft+u0zAVbsv7CVPwlEY8pdrYJ8GenNxX10Y4vf8jnwgfGK3hlKbU6QtMy/ksFI01nYBSHKDT1JY0wmkw6O/VAbsTchwdAeyrdAe7Q7HO5BsGVMPy8vLancQ6M6M/W+eJfN9j62s4ffie8MFPWMNpK+aXlsIXHz4RqhW/i9+O4TALN1x9PBw9cKBQr/uxp58JJ598MtSqxbrRcPoUpzD5qVOnQr3qJskUi9AJmPIT8GpYXV0dTW3Zg+l057op1nU6DlPhhvXP8+f2Yp+UgqeVlZXQ7XZDs9kSPJHPRen6Gk7v/Z17wl33firMdjpGOG3Bar8fnnz2VKhZc21b0jnVNQW889lCrzfa3vVa8YKbbrsdevHYIUimaDYNnd7x9jt0CNg3H/vEn+z6OdJUurSOSrqo2+ODdLrjVcNWg6mQrkbSdNnP7cWTb+yL1qbaVUKz2dx18OScjQ1veeOt4TfCT+zp9zjyhu+emn6lz2MKIIRO25OtL1tQNNX17V3E0KlWqwqcKCR7V2DqfOOCbiHMz8+PaxSB9Zxgyq7dx7C3GgVPc3Nz37TvAgCYFqbXAVMlXbSlId9p/abl5d64blE+G9buXAdMj/SZnom1uNffaHV1JczNnQ2zswes8wRjlj5vg8Eg/ZdmbEOWDQu5r8ria+7H7V3EjH8Qz28dHygioRMwNVLglNZJSSMH0kG5Or6h8tfEeqktAFPl+rC2ttPn9vobbdzsIK0912q1Y1nnCcYlrZPz6htebKThNqU91KHZ2cK97iuOHA7NxktG0+yKplGvh6MHDoZBNvAGpFCETsBUqFSqYWVleb9uR/66WE1bAaZKuiPlK8IYQqeNfVYKnvr9tdC8HS+EBU+w95qNRrjmiis0oiQOdrujKqoDM53RaC0oEms6AYWWLtTSsXd+/uxzgdM++DZbAqbSt457f5ZqcXFhXDdAAKBABE4UkdAJKKyN9ZtS4JSm1e2TVqxbbQ2YSm8Ma3eyG/u+bWlpcbTO02C09ojgCQAoJqETUEhr6zctj9ZASVNS9vGi7MWxvsUWgamU1mu7ab/2cSlwSne2EzwBAEVlTSegcNLFV6/XG01B2fjzPnp5WLt7HTB9DsR6baz79mtfl2WDcPbsmdEC4zMzM9Z5AiAXZxcWw30nTo6m7Pm1RrmkOyHeePXxcPmRw2P5fkInoDA2ptOlwClNPZmQ3/y/yZaBqfb6WL++n/u9pNdbW+Opu74ArvAJgN1YHQzCqbm50bm10bTl2/bLq6tj+35CJ6AQNqaapOl0EzbV5FttHZhqd4S1u1Ou7OeLSPu85eXeaORTp9MJ9XpD8ATAzo8r4Rs3sBA6lUs1be8xbnOhEzD5B8XJDZxeEus6Wwim2i2xjsf6yiTsC1dXV0O/Pwizs7Oh0RA8AbAzKXhoNZtGOpVQPV5P1avjW95b6ARMtI27OPV6y/HiauIOimmtl8O2Eky1dqzbwwSEThv7xBCGYX5+PszMdEKz2XKxAMC2HZzthjtffrNGlFSjNr6b8wqdgImVLqTSYuFpDacJHfp7m60EpZCm0X5gsl7SWvDUaq2GbveALQTAtoxGOjUaGsGeEzoBEytNp1tZWZnU3+Kn/ecdthKUwqtitWItT9QFQ7U62keGMGcLAQATqaoFwKSa4MApuTLWK20lKIVXxHrRJL6wtI9cC54AACaP0AmYWBO+Tkm6jfqsrQSlkOavvWISXkhaOPz5BQAwqYROwMQ638XVBF1kvckWglL5tv1+ASmIr9froVZ7YQEATCJnKcDEmpnpXvDvlpeXQ5YNRgHUPoyISqsu3moLQam8Yb++8cZ+Lt2pbmZmxugmAKAwhE7AxGq32xf8u1arNQqd0p3t9mE9k7Se0ytsISiVF8e6JtZXx/UNU7iUFgtvtzujfd7G/wYAUBRCJ2BiXeziqlqthW53NgwGZ0K/3x/niKebYx21haBULov18jCm0CnLslHQlEZ8puBJ2ARA3gbxWJPOnh1hyqdarYRKGM+1k9AJKLR0ITY7eyCsrCyHpaWlcX3bt+g8lFKaYve/xrFf63TS6Ka2wAmAPXF2YTF88eET8RiTTfrNe8jZYJCFG6+5Olxx5PBYvp/QCSi8dKDsdGZGo53SVLsxHDjv1HUopW/d62+QAqY0nS6t3bTxZwDI22o8bz49Pz8aWSt0Kpf+YBBWVlfH9v3cvQ6YClk2HAVP9Xptr7/VsVg36DiUUpped/lePfk31nBqP/dnANgb45pcRdkZ6QRMiWGo1WphdvZgOHPmTNjD2enpovOYfkMppbXcbov1e3vx5ClwStOFTakDYM+DgFo1HJiZMdKphPrZIDTq44uChE7A1Dh3lMDS0uJeHUDTBacjM5RTGiF+e9iD0CmtqdFud0M9ngQKnADYawdnu+GOW27WiDJeM6Vf1lfHN+lN6ARM1050fQHe9O9eb2kvgqc36zKU2mtjpXm8gzyfNC0angJzgRMA45DOkGs1q+2w97zLgKmUbjW+B1NUjsR6le5Cqd22vi/IxcYIzW53VmcBgKkjdAKmTrqIW1vfaW1tlBy9LtalOgyldlmsV+b1ZBt33wR2f+xvNhoawVRL73EjYika0+uAqT35TGujpFuPLy4u5DXN7jb7TSB6S6xP5rGfSuF4s9l0EQG7NNNuhU/9+RfCj//se0brlcC0Sfea+/RnvzR6r0ORuHgCpla6iEvT7AaDflhZWdnt06UhU6/TVSCPfUHaPzUajVEJnGD3Ws1m+NJDJ8Nn7ntAM5ha7VZz9F533KBIhE7A1EtrpQwGZ0K/39/NiKdDYe2uVQAvD2vT7L6+0ydIYVMa5QTkYxTk1utjvQ047Nd7HYrEmk5AKaQ72u1yht0tsV6kk0B0dawbd3PBsLZPqugkADDV/CoAmHpr01iaods9EBYW5nf6NG/WSWBdSovuiPXpneyPut1uqNdNqwNgf8+PB1mmESVVq1bH9ssvoRNQmgNrCp7S4uKrq6s72cnepovAOVIQ/fPb3Q+lRcNbrbbACYB9dWZhMXzuwYdCNsxGi5RTHoNsEG6+/rpw7OjRsXw/oRNQImt3ipqfnwv9/moIWz/Apj3yK/QPOEda1ymt9XZmqw+o1Wqh05kROAGw77IsC0vLy6PRTqZ7l0t/MIg1vlFuQiegVNJBNV30nT17ZjtrPL041vW6B5zjeFgLnrY8xS6F3il4EjoBsN/SkWj43P8TOpVr4w/Xt/t4CJ2Aku1jh6MpdjMz3bC0tLjVh70huPEC8M0asW4NWwidNhYOFzgBMCnqtWo4NDsTsmwYDHQql36WhWajMb73mpYDZZMu+trtduj3+2FlZXkrQ4rfomvAedwZ6xe3sr8xrQ6ASXKwOxNuv/llGlFS1TEmjUInoJQ2Rh4MBv1Yg82Cp26sV+oYcB5pFGQn1tKF9jNp39Jud3QKgImSFg+vVQ1xYu+ZLgKUVprqktZYqVarm41AuCXWNboFnMeLwiahdNq3HDhw8GL7GACAqSV0AkorXQSm4KnVam32Za+O1dIt4DyaYW200wv2Lel3yCnUTmvICZwAgLISOgGltjbNbmY01e4CF4Z36BKwideeb7/SbDYETgBA6QmdgNLbCJ6azebzLxDTKIY7dQjYxG2xDpy7P2m12qHb7QqcAIDSEzoBhI07THVGa6+cw3pOwMXcGOv6jT+khcNnZtLC4RZnBQAQOgGsS1Nh0hosyfoIhdtjtXUGuMi51HMjItMIp0rFwuEAAKNrLC0AWJMuEhuNxmiaXa/XSyMWXqsrwBa8aTjM/svMTDfuP9pxX5LpCAATLYvnvav9vkaM7UIj/YK7FmrV8o37EToBnHsAzrKQLhxTALW8vPz6NFUGYNPzyOHwlSmsbjZbAicACuHswkL43INfWT9uOd8dxzXGjVcfD8cvv6x0P7vQCZgG6Uh5XVhb0PfFsY6EtUXAdzy/pdudPVivN27WWuDihjc2m61frVarp3cxrS7tx1ZinYn1QKw/j3UinafqLwB5G2TDsNjrjcIQv2QdR7+z0o4sEzoBRZaOkN8T6/tjvS3WTJ5P3m5bzgnYktZwOPzBnNdxWoz1v2P9WqwPhV2E6ADwAvGYNVz7F2Npd3kbLXQCiuo1sX4u1tsdHIAplEL0d67XD8X657H+QluYECtaAMXWqNfDpYcOhiwbGuk0BoNhFjqtVil/dqETUEQ/EOsXYh3UCqAEUrj+B7F+LNavaAcT4IwWQLEd7M6E17/spRrBnqtqAVAwP7J+0SVwAkp1fRDr/bH+kVYwAR7TAgC2QugEFMm7Yr3bvgsosf8Q629qA/vsZLDIPQBb4MINKIpvifVLsWpaAZRYWhrhl8PanTphv3wx1rPaAMDFCJ2Aovi3sY5pA0C4Mta/0wb20SOx7tMGAC5G6AQUwdti/S1tAHhO2ie+XRvYR3drAQAXI3QCJl26h+s/CKbVATx/3/gj6/+G/fB7sea1AYDNCJ2ASZfWcvoubQB4gb8W6yXawD75q1gf1QYANiN0Aibdd8bqaAPAC3TDWvAE++XnY61qAwAXInQCJt2btADggqzrxH76TKxf0QYALkToBEyy2Vg3aAPABd0Uq6UN7KOfinVCGwA4H6ETMMmOxrpKGwA23U9eqQ3so8di/cNYA60A4PmETsAkSyOdjmgDwKb7yaPawD77/Vj/TBtgctRrbvzMzjXq9fzei9oJTPLx0n4KYFPN9YL99h9jXRbrJ7QC9letVg2PPvV0uO+hr4bBINMQtv3+uf/EI7le0AEAUEyVYOQ6k+NfxOrF+ldaAftnptMOv/G7nwwf+v0/CsOhfrDNE4t4ZtEfZKFareTyfEInAAAgL/861ldivTuYIg/7IkUFyyurYWl5WTPY2XuoUgm1aj6/0xI6AQAAefr1WJ+J9XOxvlM7YPzSKJVqsK4TE/Be1AIAACBn98X6rljfH+vPtAOgnIROwCSraAHAphrO55hwvxHrrbG+O9bvxnpKSwDKw/Q6YJKtxHo0liUQAV4oBfOrYW3hZphki7F+e72uj/XKWHfEek2s47E6YS1ArTjmwwWl29BdEqurFRSJ0AmYZA/EutUJKMB5bVygn9YKCuTh9frIOf/bbFgLnoROcGH9sLZA//drBUUidAIm1jvefkc6uBqGDwDTbX69gM0tagFFYw0AAAAAcP0O3rQAAAAATD6hEwAAAAC5EzoBAAAAkDuhEwAAAAC5EzoBAAAAkDuhEwAAAAC5EzoBAAAAkDuhEwAAAAC5EzoBAAAAkDuhEwAAAAC5EzoBAAAAkDuhEwAAAAC5EzoBAAAAkDuhEwAAAAC5EzoBAAAAkDuhEwAAAAC5EzoBAAAAkDuhEwAAAAC5EzoBAAAAkDuhEwAAAAC5EzoBAAAAkDuhEwAAAAC5EzoBAAAAkDuhEwAAAAC5EzoBAAAAkDuhEwAAAAC5EzoBAAAAkDuhEwAAAAC5EzoBAAAAkDuhEwAAAAC5EzoBAADA5BtoAUUjdAIAAIDJN68FTKC5zf5S6AQAAACT72ktYAI9udlfCp0AAABg8p3UAibQw5v9pdAJAAAAJt+XYq1oAxPm85v9pdAJAAAAJt+DsR7VBiZIP9YXN/sCoRMAAABMvqVYn9YGJsiJWPdv9gVCJwAAACiGe7WACfInsU5t9gVCJwAAACiGFDo9pQ1MiLsu9gVCJwAAACiGx2N9RBuYAGktpz+82BcJnQAAAKA43hPcxY7996uxFi72RUInAAAAKI7PxPqwNrCPHgprodNFCZ0AAACgOIaxfirWnFawT9L779RWvlDoBAAAAMVyX6yf1Qb2wcdj/eZWv1joBAAAAMXzH8IWFnKGHKXRTf841mCrDxA6AQAAQPH0Yv29WF/TCsYgi/XDse7fzoOETgAAAFBMD8b6gVhntYI99hOxPrTdBwmdAAAAoLj+INYPxprXCvbIT8f69zt5oNAJAAAAiu3Dsf5OrKe1gpz9y/XaEaETAAAAFN9HY317rM9pBTk4HdZG0P30bp5E6AQAAADT4bOx3h7rfbGG2sEOfTLWm2P92m6fSOgEAAAA0yNNsfuhWH8j1p9rB9vwWKwfj/WOWF/I4wmFTgAAADB9fjfWW8Pabe7/n3awiROx/k2s22P9p1greT1xXW8BAABgKi3Eek+s/xbWAqi/HettsY7HqmhPqT0V1sLIu2J9LNYTe/FNhE4AAAAw3Xqxfn+9Doe1ES2vjPXyWC+OdSzWkVg1rZo6aW2vuVhPhrURTV8Ka1Pn/m+sr+31N68Mh9YWAwAAACBf1nQCAAAAIHdCJwAAAAByJ3QCAAAAIHdCJwAAAAByJ3QCAAAAIHdCJwAAAAByJ3QCAAAAIHdCJwAAAAByJ3QCAAAAIHdCJwAAAAByJ3QCAAAAIHdCJwAAAAByJ3QCAAAAIHdCJwAAAAByJ3QCAAAAIHdCJwAAAAByJ3QCAAAAIHdCJwAAAAByJ3QCAAAAIHdCJwAAAAByJ3QCAAAAIHdCJwAAAAByJ3QCAAAAIHdCJwAAAAByJ3QCAAAAIHdCJwAAAAByJ3QCAAAAIHdCJwAAAAByJ3QCAAAAIHdCJwAAAAByJ3QCAAAAIHdCJwAAAAByJ3QCAAAAIHdCJwAAAAByJ3QCAAAAIHdCJwAAAAByJ3QCAAAAIHdCJwAAAAByJ3QCAAAAIHdCJwAAAABy9/8FGAC9OlhS32CauwAAAABJRU5ErkJggg==;" vertex="1" parent="1">
          <mxGeometry y="1342.48" width="96.47" height="73.68" as="geometry" />
        </mxCell>
        <mxCell id="SolYquduVEcN4SEWnmSy-112" value="" style="endArrow=classic;html=1;rounded=0;entryX=0;entryY=0.5;entryDx=0;entryDy=0;exitX=1;exitY=0.5;exitDx=0;exitDy=0;" edge="1" parent="1" source="SolYquduVEcN4SEWnmSy-84" target="SolYquduVEcN4SEWnmSy-41">
          <mxGeometry width="50" height="50" relative="1" as="geometry">
            <mxPoint x="370.1" y="1211" as="sourcePoint" />
            <mxPoint x="407.1" y="1182" as="targetPoint" />
          </mxGeometry>
        </mxCell>
        <mxCell id="SolYquduVEcN4SEWnmSy-113" value="" style="endArrow=classic;html=1;rounded=0;entryX=0;entryY=0.5;entryDx=0;entryDy=0;exitX=1;exitY=0.5;exitDx=0;exitDy=0;" edge="1" parent="1" source="SolYquduVEcN4SEWnmSy-85" target="SolYquduVEcN4SEWnmSy-45">
          <mxGeometry width="50" height="50" relative="1" as="geometry">
            <mxPoint x="384.17" y="1344.85" as="sourcePoint" />
            <mxPoint x="436.1700000000001" y="1309.85" as="targetPoint" />
          </mxGeometry>
        </mxCell>
        <mxCell id="SolYquduVEcN4SEWnmSy-115" value="" style="edgeStyle=elbowEdgeStyle;elbow=horizontal;endArrow=classic;html=1;curved=0;rounded=0;endSize=8;startSize=8;exitX=1;exitY=0.5;exitDx=0;exitDy=0;entryX=0;entryY=0;entryDx=0;entryDy=62;entryPerimeter=0;" edge="1" parent="1">
          <mxGeometry width="50" height="50" relative="1" as="geometry">
            <mxPoint x="536.97" y="1217" as="sourcePoint" />
            <mxPoint x="592.97" y="1300" as="targetPoint" />
          </mxGeometry>
        </mxCell>
        <mxCell id="SolYquduVEcN4SEWnmSy-116" value="" style="edgeStyle=elbowEdgeStyle;elbow=horizontal;endArrow=classic;html=1;curved=0;rounded=0;endSize=8;startSize=8;exitX=1;exitY=0.5;exitDx=0;exitDy=0;entryX=0;entryY=0;entryDx=0;entryDy=62;entryPerimeter=0;" edge="1" parent="1">
          <mxGeometry width="50" height="50" relative="1" as="geometry">
            <mxPoint x="536.97" y="1377" as="sourcePoint" />
            <mxPoint x="592.97" y="1300" as="targetPoint" />
          </mxGeometry>
        </mxCell>
        <mxCell id="SolYquduVEcN4SEWnmSy-117" value="" style="shape=curlyBracket;whiteSpace=wrap;html=1;rounded=1;labelPosition=left;verticalLabelPosition=middle;align=right;verticalAlign=middle;rotation=-90;size=0.5;" vertex="1" parent="1">
          <mxGeometry x="313.01" y="1330.9199999999998" width="16.69" height="130" as="geometry" />
        </mxCell>
      </root>
    </mxGraphModel>
  </diagram>
</mxfile>
